G04 --- HEADER BEGIN --- *
G04 #@! TF.GenerationSoftware,LibrePCB,LibrePCB,0.1.2*
G04 #@! TF.CreationDate,2019-01-02T03:04:05*
G04 #@! TF.ProjectId,test_project,7c04f9d5-7366-4c4b-9e17-852ed57b3966,v1*
G04 #@! TF.Part,Single*
G04 #@! TF.SameCoordinates*
G04 #@! TF.FileFunction,Legend,Top*
G04 #@! TF.FilePolarity,Positive*
%FSLAX66Y66*%
%MOMM*%
G01*
G75*
G04 --- HEADER END --- *
G04 --- APERTURE LIST BEGIN --- *
%ADD10C,0.2*%
%ADD11C,0.0*%
%ADD12C,0.01*%
%ADD13C,0.254*%
%ADD14C,2.0*%
%AMROTATEDOBROUND15*1,1,1.47,0.110267,-0.625353*1,1,1.47,-0.110267,0.625353*20,1,1.47,0.110267,-0.625353,-0.110267,0.625353,0*%
%ADD15ROTATEDOBROUND15*%
%AMROUNDEDRECT16*20,1,1.47,-1.27,0.0,1.27,0.0,120.0*20,1,1.27,-1.37,0.0,1.37,0.0,120.0*1,1,0.2,0.085074,-1.417352*1,1,0.2,-1.184926,0.782352*1,1,0.2,-0.085074,1.417352*1,1,0.2,1.184926,-0.782352*%
%ADD16ROUNDEDRECT16*%
%AMROUNDEDOCTAGON17*4,1,16,1.1,0.207107,1.070711,0.277818,0.777818,0.570711,0.707107,0.6,-0.707107,0.6,-0.777818,0.570711,-1.070711,0.277818,-1.1,0.207107,-1.1,-0.207107,-1.070711,-0.277818,-0.777818,-0.570711,-0.707107,-0.6,0.707107,-0.6,0.777818,-0.570711,1.070711,-0.277818,1.1,-0.207107,1.1,0.207107,100.0*1,1,0.2,-0.615192,0.60954*1,1,0.2,-0.369616,-0.783189*1,1,0.2,-0.030312,-1.020772*1,1,0.2,0.377609,-0.948844*1,1,0.2,0.615192,-0.60954*1,1,0.2,0.369616,0.783189*1,1,0.2,0.030312,1.020772*1,1,0.2,-0.377609,0.948844*%
%ADD17ROUNDEDOCTAGON17*%
%AMROTATEDOBROUND18*1,1,1.47,0.3175,-0.549926*1,1,1.47,-0.3175,0.549926*20,1,1.47,0.3175,-0.549926,-0.3175,0.549926,0*%
%ADD18ROTATEDOBROUND18*%
%AMROUNDEDOCTAGON19*4,1,16,1.6,0.414214,1.570711,0.484925,0.984925,1.070711,0.914214,1.1,-0.914214,1.1,-0.984925,1.070711,-1.570711,0.484925,-1.6,0.414214,-1.6,-0.414214,-1.570711,-0.484925,-0.984925,-1.070711,-0.914214,-1.1,0.914214,-1.1,0.984925,-1.070711,1.570711,-0.484925,1.6,-0.414214,1.6,0.414214,50.0*1,1,0.2,-0.178399,1.343116*1,1,0.2,-1.35369,-0.057541*1,1,0.2,-1.281488,-0.882815*1,1,0.2,-0.646875,-1.415318*1,1,0.2,0.178399,-1.343116*1,1,0.2,1.35369,0.057541*1,1,0.2,1.281488,0.882815*1,1,0.2,0.646875,1.415318*%
%ADD19ROUNDEDOCTAGON19*%
%AMROTATEDOBROUND20*1,1,1.47,-0.596705,-0.217183*1,1,1.47,0.596705,0.217183*20,1,1.47,-0.596705,-0.217183,0.596705,0.217183,0*%
%ADD20ROTATEDOBROUND20*%
%AMROUNDEDRECT21*20,1,1.47,-1.27,0.0,1.27,0.0,0.0*20,1,1.27,-1.37,0.0,1.37,0.0,0.0*1,1,0.2,-1.27,0.635*1,1,0.2,1.27,0.635*1,1,0.2,1.27,-0.635*1,1,0.2,-1.27,-0.635*%
%ADD21ROUNDEDRECT21*%
%AMROUNDEDOCTAGON22*4,1,16,1.1,0.207107,1.070711,0.277818,0.777818,0.570711,0.707107,0.6,-0.707107,0.6,-0.777818,0.570711,-1.070711,0.277818,-1.1,0.207107,-1.1,-0.207107,-1.070711,-0.277818,-0.777818,-0.570711,-0.707107,-0.6,0.707107,-0.6,0.777818,-0.570711,1.070711,-0.277818,1.1,-0.207107,1.1,0.207107,20.0*1,1,0.2,0.493453,0.711691*1,1,0.2,-0.835473,0.228001*1,1,0.2,-1.010527,-0.147403*1,1,0.2,-0.868858,-0.536637*1,1,0.2,-0.493453,-0.711691*1,1,0.2,0.835473,-0.228001*1,1,0.2,1.010527,0.147403*1,1,0.2,0.868858,0.536637*%
%ADD22ROUNDEDOCTAGON22*%
%AMROUNDEDRECT23*20,1,1.2,-1.0,0.0,1.0,0.0,0.0*20,1,1.0,-1.1,0.0,1.1,0.0,0.0*1,1,0.2,-1.0,0.5*1,1,0.2,1.0,0.5*1,1,0.2,1.0,-0.5*1,1,0.2,-1.0,-0.5*%
%ADD23ROUNDEDRECT23*%
%ADD24O,2.74X1.47*%
%AMROUNDEDOCTAGON25*4,1,16,1.6,0.414214,1.570711,0.484925,0.984925,1.070711,0.914214,1.1,-0.914214,1.1,-0.984925,1.070711,-1.570711,0.484925,-1.6,0.414214,-1.6,-0.414214,-1.570711,-0.484925,-0.984925,-1.070711,-0.914214,-1.1,0.914214,-1.1,0.984925,-1.070711,1.570711,-0.484925,1.6,-0.414214,1.6,0.414214,70.0*1,1,0.2,-0.627013,1.2011*1,1,0.2,-1.252372,-0.51706*1,1,0.2,-0.902264,-1.267869*1,1,0.2,-0.123796,-1.551208*1,1,0.2,0.627013,-1.2011*1,1,0.2,1.252372,0.51706*1,1,0.2,0.902264,1.267869*1,1,0.2,0.123796,1.551208*%
%ADD25ROUNDEDOCTAGON25*%
%ADD26O,1.2X2.2*%
%ADD27C,2.2*%
G04 --- APERTURE LIST END --- *
G04 --- BOARD BEGIN --- *
D10*
G04 #@! TO.C,D1*
X1920000Y26440000D02*
G03*
X-13320000Y26440000I-7620000J-7620000D01*
G01*
X-13320000Y46760000D01*
G02*
X1920000Y46760000I7620000J5335581D01*
G01*
X1920000Y26440000D01*
D11*
X-620000Y46760000D02*
G03*
X-10780000Y46760000I-5080000J0D01*
G01*
X-10780000Y56920000D01*
X-620000Y56920000D01*
X-620000Y46760000D01*
D12*
G36*
X-620000Y46760000D02*
G03*
X-10780000Y46760000I-5080000J0D01*
G01*
X-10780000Y56920000D01*
X-620000Y56920000D01*
X-620000Y46760000D01*
G37*
G36*
X-4200000Y46760000D02*
G02*
X-7200000Y46760000I-1500000J0D01*
G01*
G02*
X-4200000Y46760000I1500000J0D01*
G01*
G37*
D13*
X-3200000Y46760000D02*
G02*
X-8200000Y46760000I-2500000J0D01*
G01*
G02*
X-3200000Y46760000I2500000J0D01*
G01*
D14*
G04 #@! TD*
X49000000Y79000000D02*
X49000000Y79000000D01*
G02*
X64000000Y79000000I7500000J-42534614D01*
G01*
G03*
X64000000Y64000000I42534614J-7500000D01*
G01*
G02*
X49000000Y64000000I-7500000J42534614D01*
G01*
G03*
X49000000Y79000000I-42534614J7500000D01*
G01*
D10*
G04 #@! TO.C,D1*
X5460000Y40137778D02*
X4460000Y40137778D01*
X4460000Y40375556D01*
X4507778Y40518889D01*
X4603333Y40614445D01*
X4697778Y40661111D01*
X4888889Y40708889D01*
X5031111Y40708889D01*
X5222222Y40661111D01*
X5316667Y40614445D01*
X5412222Y40518889D01*
X5460000Y40375556D01*
X5460000Y40137778D01*
X5460000Y41680000D02*
X5460000Y41108889D01*
X5460000Y41394445D02*
X4460000Y41394445D01*
X4603333Y41298889D01*
X4697778Y41204445D01*
X4745556Y41108889D01*
%LPC*%
D15*
G04 #@! TO.C,D2*
X60012659Y41970886D03*
D16*
X55613250Y39430886D03*
D17*
X65092659Y33172068D03*
D18*
X53413546Y38160886D03*
D19*
X57812955Y40700886D03*
D20*
G04 #@! TO.C,D1*
X-620000Y39140000D03*
D21*
X-620000Y34060000D03*
D22*
X-10780000Y36600000D03*
D23*
X-10780000Y31520000D03*
D24*
X-620000Y31520000D03*
D25*
X-620000Y36600000D03*
D26*
X-10780000Y34060000D03*
D27*
G04 #@! TD*
X16000000Y46000000D03*
X20000000Y46000000D03*
X12000000Y46000000D03*
G04 --- BOARD END --- *

M02*
