G04 --- HEADER BEGIN --- *
%TF.GenerationSoftware,LibrePCB,LibrePCB,0.1.2*%
%TF.CreationDate,2019-01-02T03:04:05*%
%TF.ProjectId,test_project - default,7c04f9d5-7366-4c4b-9e17-852ed57b3966,v1*%
%TF.Part,Single*%
%FSLAX66Y66*%
%MOMM*%
G01*
G74*
G04 --- HEADER END --- *
G04 --- APERTURE LIST BEGIN --- *
%AMROTATEDOBROUND*1,1,$5,$1,$2,0*1,1,$5,$3,$4,0*20,1,$5,$1,$2,$3,$4,0*%
%AMROTATEDRECT*21,1,$1,$2,0,0,$3*%
%AMROTATEDOCTAGON*4,1,8,-($1/2),($2/2)-$3,-($1/2)+$3,($2/2),($1/2)-$3,($2/2),($1/2),($2/2)-$3,($1/2),-($2/2)+$3,($1/2)-$3,-($2/2),-($1/2)+$3,-($2/2),-($1/2),-($2/2)+$3,-($1/2),($2/2)-$3,$4*%
%ADD10C,0.2*%
%ADD11C,0.0*%
%ADD12C,3.0X3.0*%
%ADD13C,3.0*%
%ADD14C,5.254X4.746*%
%ADD15C,2.0*%
%ADD16ROTATEDOBROUND,0.110266X-0.625352X-0.110266X0.625352X1.47*%
%ADD17ROTATEDRECT,2.74X1.47X120.0*%
%ADD18ROTATEDOCTAGON,2.2X1.2X0.351472X100.0*%
%ADD19ROTATEDOBROUND,0.317499X-0.549926X-0.317499X0.549926X1.47*%
%ADD20ROTATEDOCTAGON,2.2X3.2X0.644365X140.0*%
%ADD21ROTATEDOBROUND,0.596704X0.217182X-0.596704X-0.217182X1.47*%
%ADD22R,2.74X1.47*%
%ADD23ROTATEDOCTAGON,2.2X1.2X0.351472X200.0*%
%ADD24R,2.2X1.2*%
%ADD25O,2.74X1.47*%
%ADD26ROTATEDOCTAGON,2.2X3.2X0.644365X160.0*%
%ADD27O,1.2X2.2*%
%ADD28R,2.2X2.2*%
%ADD29P,2.2X8X22.5*%
%ADD30C,2.2*%
G04 --- APERTURE LIST END --- *
G04 --- BOARD BEGIN --- *
D10*
X1920000Y26440000D02*
G75*
G03*
X-13320000Y26440000I-7620000J-7620000D01*
G01*
X-13320000Y46760000D01*
G02*
X1920000Y46760000I7620000J5335581D01*
G01*
X1920000Y26440000D01*
D11*
X-620000Y46760000D02*
G03*
X-10780000Y46760000I-5080000J0D01*
G01*
X-10780000Y56920000D01*
X-620000Y56920000D01*
X-620000Y46760000D01*
G36*
X-620000Y46760000D02*
G03*
X-10780000Y46760000I-5080000J0D01*
G01*
X-10780000Y56920000D01*
X-620000Y56920000D01*
X-620000Y46760000D01*
G37*
D12*
X-5700000Y46760000D03*
D13*
X-5700000Y46760000D03*
D14*
X-5700000Y46760000D03*
D15*
X49000000Y79000000D02*
X49000000Y79000000D01*
G02*
X64000000Y79000000I7500000J-42534614D01*
G01*
G03*
X64000000Y64000000I42534614J-7500000D01*
G01*
G02*
X49000000Y64000000I-7500000J42534614D01*
G01*
G03*
X49000000Y79000000I-42534614J7500000D01*
G01*
D10*
X5460000Y40137778D02*
X4460000Y40137778D01*
X4460000Y40375556D01*
X4507778Y40518889D01*
X4603333Y40614445D01*
X4697778Y40661111D01*
X4888889Y40708889D01*
X5031111Y40708889D01*
X5222222Y40661111D01*
X5316667Y40614445D01*
X5412222Y40518889D01*
X5460000Y40375556D01*
X5460000Y40137778D01*
X5460000Y41680000D02*
X5460000Y41108889D01*
X5460000Y41394445D02*
X4460000Y41394445D01*
X4603333Y41298889D01*
X4697778Y41204445D01*
X4745556Y41108889D01*
%LPC*%
D16*
X60012660Y41970886D03*
D17*
X55613251Y39430886D03*
D18*
X65092660Y33172068D03*
D19*
X53413546Y38160886D03*
D20*
X57812955Y40700886D03*
D21*
X-620000Y39140000D03*
D22*
X-620000Y34060000D03*
D23*
X-10780000Y36600000D03*
D24*
X-10780000Y31520000D03*
D25*
X-620000Y31520000D03*
D26*
X-620000Y36600000D03*
D27*
X-10780000Y34060000D03*
D28*
X16000000Y46000000D03*
D29*
X20000000Y46000000D03*
D30*
X12000000Y46000000D03*
G04 --- BOARD END --- *

M02*
