G04 --- HEADER BEGIN --- *
G04 #@! TF.GenerationSoftware,LibrePCB,LibrePCB,0.1.2*
G04 #@! TF.CreationDate,2019-01-02T03:04:05*
G04 #@! TF.ProjectId,test_project,7c04f9d5-7366-4c4b-9e17-852ed57b3966,v1*
G04 #@! TF.Part,Single*
G04 #@! TF.SameCoordinates*
G04 #@! TF.FileFunction,Copper,L2,Bot*
G04 #@! TF.FilePolarity,Positive*
%FSLAX66Y66*%
%MOMM*%
G01*
G75*
G04 --- HEADER END --- *
G04 --- APERTURE LIST BEGIN --- *
G04 #@! TA.AperFunction,ComponentPad*
%AMOUTLINE10*4,1,23,-0.746681,-0.498916,-0.829667,-0.34366,-0.88077,-0.175196,-0.898026,0.0,-0.88077,0.175196,-0.829667,0.34366,-0.746681,0.498916,-0.635,0.635,0.635,0.635,0.786965,0.616548,0.930099,0.562265,1.056083,0.475304,1.157595,0.360721,1.228735,0.225174,1.26537,0.076541,1.26537,-0.076541,1.228735,-0.225174,1.157595,-0.360721,1.056083,-0.475304,0.930099,-0.562265,0.786965,-0.616548,0.635,-0.635,-0.635,-0.635,-0.746681,-0.498916,100.0*%
%ADD10OUTLINE10*%
G04 #@! TA.AperFunction,FiducialPad,Local*
%AMROTATEDRECT11*20,1,1.27,-1.27,0.0,1.27,0.0,120.0*%
%ADD11ROTATEDRECT11*%
G04 #@! TA.AperFunction,FiducialPad,Global*
%AMROTATEDOCTAGON12*4,1,8,1.0,0.207107,0.707107,0.5,-0.707107,0.5,-1.0,0.207107,-1.0,-0.207107,-0.707107,-0.5,0.707107,-0.5,1.0,-0.207107,1.0,0.207107,100.0*%
%ADD12ROTATEDOCTAGON12*%
G04 #@! TA.AperFunction,SMDPad,CuDef*
%AMROUNDEDRECT13*20,1,1.0,-0.75,0.0,0.75,0.0,120.0*20,1,0.5,-1.0,0.0,1.0,0.0,120.0*1,1,0.5,0.158494,-0.774519*1,1,0.5,-0.591506,0.524519*1,1,0.5,-0.158494,0.774519*1,1,0.5,0.591506,-0.524519*%
%ADD13ROUNDEDRECT13*%
G04 #@! TA.AperFunction,ComponentPad*
%AMROTATEDOBROUND14*1,1,1.27,0.3175,-0.549926*1,1,1.27,-0.3175,0.549926*20,1,1.27,0.3175,-0.549926,-0.3175,0.549926,0*%
%ADD14ROTATEDOBROUND14*%
%AMROTATEDOCTAGON15*4,1,8,1.5,0.414214,0.914214,1.0,-0.914214,1.0,-1.5,0.414214,-1.5,-0.414214,-0.914214,-1.0,0.914214,-1.0,1.5,-0.414214,1.5,0.414214,50.0*%
%ADD15ROTATEDOCTAGON15*%
G04 #@! TA.AperFunction,SMDPad,CuDef*
%AMROTATEDOBROUND16*1,1,1.0,-0.433013,-0.25*1,1,1.0,0.433013,0.25*20,1,1.0,-0.433013,-0.25,0.433013,0.25,0*%
%ADD16ROTATEDOBROUND16*%
G04 #@! TA.AperFunction,Conductor*
%ADD17C,0.2*%
G04 #@! TA.AperFunction,NonConductor*
%ADD18C,0.2*%
G04 #@! TA.AperFunction,ComponentPad*
%AMOUTLINE19*4,1,23,0.746681,-0.498916,0.829667,-0.34366,0.88077,-0.175196,0.898026,0.0,0.88077,0.175196,0.829667,0.34366,0.746681,0.498916,0.635,0.635,-0.635,0.635,-0.786965,0.616548,-0.930099,0.562265,-1.056083,0.475304,-1.157595,0.360721,-1.228735,0.225174,-1.26537,0.076541,-1.26537,-0.076541,-1.228735,-0.225174,-1.157595,-0.360721,-1.056083,-0.475304,-0.930099,-0.562265,-0.786965,-0.616548,-0.635,-0.635,0.635,-0.635,0.746681,-0.498916,200.0*%
%ADD19OUTLINE19*%
G04 #@! TA.AperFunction,FiducialPad,Local*
%ADD20R,2.54X1.27*%
G04 #@! TA.AperFunction,SMDPad,CuDef*
%AMROTATEDOCTAGON21*4,1,8,1.0,0.207107,0.707107,0.5,-0.707107,0.5,-1.0,0.207107,-1.0,-0.207107,-0.707107,-0.5,0.707107,-0.5,1.0,-0.207107,1.0,0.207107,20.0*%
%ADD21ROTATEDOCTAGON21*%
G04 #@! TA.AperFunction,ComponentPad*
%ADD22O,2.54X1.27*%
%AMROTATEDOCTAGON23*4,1,8,1.5,0.414214,0.914214,1.0,-0.914214,1.0,-1.5,0.414214,-1.5,-0.414214,-0.914214,-1.0,0.914214,-1.0,1.5,-0.414214,1.5,0.414214,70.0*%
%ADD23ROTATEDOCTAGON23*%
G04 #@! TA.AperFunction,Conductor*
%ADD24C,0.01*%
G04 #@! TA.AperFunction,ViaPad*
%ADD25C,2.0*%
%ADD26C,0.7*%
G04 #@! TA.AperFunction,Conductor*
%ADD27C,0.5*%
G04 #@! TD*
G04 --- APERTURE LIST END --- *
G04 --- BOARD BEGIN --- *
D10*
G04 #@! TO.N,N/C*
G04 #@! TO.C,D2*
G04 #@! TO.P,D2,4,4*
X60012659Y41970886D03*
D11*
G04 #@! TO.N,N3*
G04 #@! TO.P,D2,2,2*
X55613250Y39430886D03*
D12*
G04 #@! TO.N,Hello*
G04 #@! TO.P,D2,7,6*
X62892955Y31902068D03*
D13*
G04 #@! TO.N,N/C*
G04 #@! TO.P,D2,5,5*
X58493546Y29362068D03*
D14*
G04 #@! TO.N,N3*
G04 #@! TO.P,D2,1,1*
X53413546Y38160886D03*
D15*
G04 #@! TO.N,GND*
G04 #@! TO.P,D2,3,3*
X57812955Y40700886D03*
D16*
G04 #@! TO.N,Hello*
G04 #@! TO.P,D2,6,6*
X60693250Y30632068D03*
D17*
G04 #@! TD.P*
G04 #@! TO.N,*
X54683546Y35961182D02*
X57223546Y31561773D01*
X58153250Y35031477D01*
X54683546Y35961182D01*
D18*
X63131520Y35615525D02*
X63298186Y35326850D01*
X62844967Y35065184D02*
X63710992Y35565184D01*
X63472658Y35977990D01*
X62311633Y35988945D02*
X62400232Y35931043D01*
X62465498Y35913555D01*
X62571178Y35919400D01*
X62819439Y36062733D01*
X62877341Y36151332D01*
X62894829Y36216598D01*
X62888984Y36322278D01*
X62817317Y36446408D01*
X62728162Y36505273D01*
X62662896Y36522761D01*
X62557772Y36515953D01*
X62309511Y36372619D01*
X62251054Y36284983D01*
X62233566Y36219718D01*
X62239967Y36113075D01*
X62311633Y35988945D01*
X61849967Y36788574D02*
X61938566Y36730673D01*
X62003832Y36713185D01*
X62109511Y36719030D01*
X62357772Y36862363D01*
X62415674Y36950962D01*
X62433162Y37016228D01*
X62427317Y37121908D01*
X62355651Y37246038D01*
X62266496Y37304903D01*
X62201230Y37322391D01*
X62096106Y37315583D01*
X61847845Y37172249D01*
X61789387Y37084613D01*
X61771899Y37019347D01*
X61778300Y36912704D01*
X61849967Y36788574D01*
X61769853Y37974001D02*
X61657772Y38074799D01*
X61593062Y38091324D01*
X61486419Y38084923D01*
X61362289Y38013256D01*
X61304388Y37924657D01*
X61286344Y37860354D01*
X61292745Y37753711D01*
X61483300Y37423659D01*
X62349325Y37923659D01*
X62182659Y38212334D01*
X62093504Y38271199D01*
X62028238Y38288687D01*
X61923114Y38281879D01*
X61840360Y38234101D01*
X61780940Y38145910D01*
X61763452Y38080644D01*
X61769853Y37974001D01*
X61936520Y37685326D01*
X60759411Y38677472D02*
X61212631Y38939138D01*
X61319274Y38945539D01*
X61408429Y38886675D01*
X61503429Y38722130D01*
X61509829Y38615488D01*
X60800788Y38701361D02*
X60807189Y38594718D01*
X60926078Y38388796D01*
X61015233Y38329932D01*
X61121875Y38336333D01*
X61203666Y38383555D01*
X61262530Y38472710D01*
X61256130Y38579352D01*
X61137241Y38785274D01*
X61130840Y38891916D01*
X60559411Y39023882D02*
X61136762Y39357216D01*
X60972217Y39262216D02*
X61030119Y39350815D01*
X61047607Y39416081D01*
X61041762Y39521760D01*
X60993984Y39604514D01*
D19*
G04 #@! TO.N,N3*
G04 #@! TO.C,D1*
G04 #@! TO.P,D1,4,4*
X-620000Y39140000D03*
D20*
G04 #@! TO.N,N/C*
G04 #@! TO.P,D1,2,2*
X-620000Y34060000D03*
D21*
G04 #@! TO.N,Hello*
G04 #@! TO.P,D1,8,!8*
X-10780000Y39140000D03*
D22*
G04 #@! TO.N,FOO*
G04 #@! TO.P,D1,1,1*
X-620000Y31520000D03*
D23*
G04 #@! TO.N,VCC*
G04 #@! TO.P,D1,3,3*
X-620000Y36600000D03*
D24*
G04 #@! TD.P*
G04 #@! TA.AperFunction,Conductor*
G04 #@! TO.N,*
G36*
X-3160000Y36600000D02*
X-8240000Y36600000D01*
X-5700000Y34060000D01*
X-3160000Y36600000D01*
G37*
D25*
G04 #@! TD.AperFunction*
G04 #@! TD.C*
G04 #@! TO.N,GND*
X16000000Y46000000D03*
D26*
G04 #@! TO.N,N/C*
X18000000Y32000000D03*
D25*
G04 #@! TO.N,GND*
X20000000Y46000000D03*
D27*
X57812955Y47187045D02*
X49000000Y56000000D01*
X57812955Y40700886D02*
X57812955Y47187045D01*
X20000000Y46000000D02*
X20000000Y51000000D01*
X20000000Y51000000D02*
X25000000Y56000000D01*
X25000000Y56000000D02*
X49000000Y56000000D01*
D25*
X12000000Y46000000D03*
D26*
G04 #@! TO.N,N/C*
X14000000Y32000000D03*
X10000000Y32000000D03*
D27*
X11000000Y34000000D02*
X13000000Y34000000D01*
X10000000Y32000000D02*
X10000000Y33000000D01*
X14000000Y32000000D02*
X14000000Y33000000D01*
X13000000Y34000000D02*
X14000000Y33000000D01*
X11000000Y34000000D02*
X10000000Y33000000D01*
D24*
G04 #@! TA.AperFunction,Conductor*
G04 #@! TO.N,FOO*
G36*
X-23994967Y12153518D02*
X-23977422Y12093584D01*
X-23927740Y12055746D01*
X-23857576Y12057518D01*
X-22335153Y12672342D01*
X-22335153Y15542726D01*
X-22344346Y15542991D01*
X-22536677Y15566427D01*
X-22545669Y15568378D01*
X-22730416Y15626755D01*
X-22738896Y15630325D01*
X-22909762Y15721650D01*
X-22917454Y15726726D01*
X-23068627Y15847890D01*
X-23075253Y15854291D01*
X-23201594Y16001176D01*
X-23206924Y16008675D01*
X-23304122Y16176273D01*
X-23307989Y16184634D01*
X-23372735Y16367238D01*
X-23374998Y16376161D01*
X-23405090Y16567562D01*
X-23405674Y16576740D01*
X-23400085Y16770401D01*
X-23398970Y16779551D01*
X-23357890Y16968884D01*
X-23355116Y16977665D01*
X-23279945Y17156230D01*
X-23275606Y17164348D01*
X-23168898Y17326070D01*
X-23163148Y17333244D01*
X-23028542Y17472602D01*
X-23021564Y17478605D01*
X-22863646Y17590853D01*
X-22855683Y17595471D01*
X-22679832Y17676791D01*
X-22671153Y17679869D01*
X-22480730Y17728156D01*
X-22477018Y17729174D01*
X-22373541Y17759697D01*
X-22349680Y17770288D01*
X-22267212Y17820696D01*
X-22246906Y17837101D01*
X-22180296Y17907134D01*
X-22164929Y17928235D01*
X-22118714Y18013121D01*
X-22109330Y18037483D01*
X-22086661Y18131437D01*
X-22083903Y18157395D01*
X-22086605Y18265270D01*
X-22086776Y18269116D01*
X-22092580Y18360335D01*
X-22092677Y18361711D01*
X-22099518Y18449988D01*
X-22099341Y18461725D01*
X-22099345Y18461915D01*
X-22099334Y18462452D01*
X-22099323Y18462607D01*
X-22098985Y18474344D01*
X-22088256Y18562390D01*
X-22088099Y18563761D01*
X-22078599Y18651822D01*
X-22076266Y18663341D01*
X-22076239Y18663506D01*
X-22076130Y18664024D01*
X-22076088Y18664187D01*
X-22073597Y18675671D01*
X-22046874Y18760239D01*
X-22046468Y18761557D01*
X-22020950Y18846368D01*
X-22016541Y18857260D01*
X-22016480Y18857429D01*
X-22016281Y18857912D01*
X-22016213Y18858057D01*
X-22011649Y18868898D01*
X-21969841Y18947119D01*
X-21969199Y18948339D01*
X-21927462Y19029086D01*
X-21925165Y19033068D01*
X-21244486Y20096270D01*
X-21230735Y20170236D01*
X-21298335Y20500582D01*
X-21299115Y20505762D01*
X-21332471Y20848096D01*
X-21332705Y20853316D01*
X-21330094Y21197269D01*
X-21329781Y21202475D01*
X-21291231Y21544273D01*
X-21290374Y21549429D01*
X-21216309Y21885319D01*
X-21214917Y21890360D01*
X-21106153Y22216655D01*
X-21104237Y22221534D01*
X-20961959Y22534678D01*
X-20959549Y22539321D01*
X-20785313Y22835885D01*
X-20782432Y22840247D01*
X-20578152Y23116971D01*
X-20574837Y23121002D01*
X-20342750Y23374860D01*
X-20339021Y23378533D01*
X-20081662Y23606747D01*
X-20077596Y23609988D01*
X-19797787Y23810053D01*
X-19793390Y23812861D01*
X-19495085Y23982082D01*
X-19488561Y23985182D01*
X-19307079Y24055834D01*
X-19298231Y24058367D01*
X-19107842Y24094281D01*
X-19098680Y24095146D01*
X-18904932Y24095465D01*
X-18895764Y24094631D01*
X-18705268Y24059345D01*
X-18696398Y24056838D01*
X-18515626Y23987149D01*
X-18507377Y23983058D01*
X-18342487Y23881339D01*
X-18335125Y23875798D01*
X-18191731Y23745509D01*
X-18185524Y23738723D01*
X-18068508Y23584299D01*
X-18063651Y23576484D01*
X-17977003Y23403188D01*
X-17973665Y23394611D01*
X-17920338Y23208356D01*
X-17918629Y23199299D01*
X-17900435Y23006419D01*
X-17900421Y22997203D01*
X-17917979Y22804260D01*
X-17919654Y22795215D01*
X-17972371Y22608769D01*
X-17975679Y22600186D01*
X-18061755Y22426607D01*
X-18066589Y22418771D01*
X-18183088Y22263971D01*
X-18189280Y22257155D01*
X-18332244Y22126394D01*
X-18339582Y22120834D01*
X-18508065Y22016129D01*
X-18669340Y21917047D01*
X-18683340Y21906663D01*
X-18818415Y21786886D01*
X-18830400Y21774228D01*
X-18942624Y21632814D01*
X-18952228Y21618267D01*
X-19038192Y21459511D01*
X-19045124Y21443518D01*
X-19102211Y21272255D01*
X-19106261Y21255301D01*
X-19132742Y21076725D01*
X-19133787Y21059326D01*
X-19128856Y20878857D01*
X-19126863Y20861540D01*
X-19090669Y20684671D01*
X-19085699Y20667964D01*
X-19016129Y20491935D01*
X-19016125Y20491925D01*
X-18995711Y20439486D01*
X-18992701Y20432544D01*
X-18970411Y20386036D01*
X-18967213Y20377398D01*
X-18959034Y20346914D01*
X-18955637Y20336550D01*
X-18944167Y20307087D01*
X-18941631Y20298228D01*
X-18932056Y20247468D01*
X-18930373Y20240089D01*
X-18917008Y20190280D01*
X-18915451Y20181193D01*
X-18913014Y20149737D01*
X-18911580Y20138925D01*
X-18905717Y20107843D01*
X-18904852Y20098680D01*
X-18904767Y20047012D01*
X-18904468Y20039452D01*
X-18900485Y19988042D01*
X-18900623Y19978827D01*
X-18904008Y19947456D01*
X-18904585Y19936563D01*
X-18904533Y19904932D01*
X-18905367Y19895766D01*
X-18914777Y19844967D01*
X-18915873Y19837478D01*
X-18921404Y19786202D01*
X-18923231Y19777184D01*
X-18932328Y19746947D01*
X-18934895Y19736350D01*
X-18940653Y19705267D01*
X-18943159Y19696402D01*
X-18961742Y19648199D01*
X-18964195Y19641039D01*
X-18979055Y19591649D01*
X-18982509Y19583119D01*
X-18997005Y19555072D01*
X-19001477Y19545126D01*
X-19012850Y19515624D01*
X-19016942Y19507372D01*
X-19044058Y19463417D01*
X-19047785Y19456830D01*
X-19072534Y19408947D01*
X-19074834Y19404960D01*
X-19871347Y18160827D01*
X-19887096Y18109439D01*
X-19890666Y17968361D01*
X-19891184Y17962338D01*
X-19937272Y17649204D01*
X-19938506Y17643312D01*
X-20022005Y17338002D01*
X-20023943Y17332295D01*
X-20143632Y17039282D01*
X-20146244Y17033851D01*
X-20300382Y16757396D01*
X-20303626Y16752325D01*
X-20489961Y16496467D01*
X-20493798Y16491817D01*
X-20709611Y16260290D01*
X-20713984Y16256133D01*
X-20956132Y16052307D01*
X-20960970Y16048711D01*
X-21225917Y15875560D01*
X-21231161Y15872568D01*
X-21515048Y15732616D01*
X-21520607Y15730281D01*
X-21819294Y15625569D01*
X-21825100Y15623919D01*
X-22133449Y15556144D01*
X-22141000Y15555080D01*
X-22335153Y15542726D01*
X-22335153Y12672342D01*
X-17356487Y14682957D01*
X-17356487Y17242393D01*
X-17549499Y17259191D01*
X-17558561Y17260832D01*
X-17745209Y17312813D01*
X-17753802Y17316087D01*
X-17927722Y17401480D01*
X-17935573Y17406281D01*
X-18090834Y17522173D01*
X-18097671Y17528336D01*
X-18228998Y17670788D01*
X-18234583Y17678098D01*
X-18337496Y17842253D01*
X-18341648Y17850477D01*
X-18412640Y18030733D01*
X-18415213Y18039588D01*
X-18451875Y18229826D01*
X-18452776Y18238987D01*
X-18453858Y18432728D01*
X-18453060Y18441900D01*
X-18418524Y18632535D01*
X-18416052Y18641413D01*
X-18346248Y18824629D01*
X-18344414Y18828845D01*
X-16550393Y22482734D01*
X-16548176Y22486769D01*
X-16445892Y22654043D01*
X-16440387Y22661418D01*
X-16310662Y22805324D01*
X-16303897Y22811561D01*
X-16149942Y22929180D01*
X-16142134Y22934075D01*
X-15969186Y23021402D01*
X-15960627Y23024773D01*
X-15774574Y23078834D01*
X-15765534Y23080576D01*
X-15572719Y23099531D01*
X-15563514Y23099582D01*
X-15370505Y23082783D01*
X-15361435Y23081140D01*
X-15174797Y23029163D01*
X-15166196Y23025886D01*
X-14992279Y22940495D01*
X-14984428Y22935694D01*
X-14829173Y22819808D01*
X-14822322Y22813632D01*
X-14691004Y22671188D01*
X-14685418Y22663876D01*
X-14582504Y22499721D01*
X-14578356Y22491505D01*
X-14507361Y22311243D01*
X-14504788Y22302388D01*
X-14468126Y22112150D01*
X-14467225Y22102989D01*
X-14466143Y21909248D01*
X-14466941Y21900075D01*
X-14501477Y21709437D01*
X-14503946Y21700568D01*
X-14573752Y21517345D01*
X-14575586Y21513129D01*
X-16369607Y17859240D01*
X-16371824Y17855205D01*
X-16474108Y17687931D01*
X-16479613Y17680556D01*
X-16609338Y17536650D01*
X-16616102Y17530413D01*
X-16770058Y17412795D01*
X-16777867Y17407899D01*
X-16950814Y17320573D01*
X-16959373Y17317202D01*
X-17145426Y17263140D01*
X-17154466Y17261398D01*
X-17347282Y17242444D01*
X-17356487Y17242393D01*
X-17356487Y14682957D01*
X-11859196Y16903016D01*
X-11859196Y18614239D01*
X-12158407Y18616942D01*
X-12164850Y18617417D01*
X-12461204Y18658672D01*
X-12467531Y18659974D01*
X-12756105Y18739094D01*
X-12762192Y18741195D01*
X-13038150Y18856856D01*
X-13043940Y18859736D01*
X-13302685Y19010010D01*
X-13308040Y19013603D01*
X-13545249Y19195979D01*
X-13550102Y19200236D01*
X-13761830Y19411683D01*
X-13766079Y19416513D01*
X-13948351Y19652939D01*
X-13952637Y19659505D01*
X-14045808Y19830160D01*
X-14049458Y19838618D01*
X-14109470Y20022830D01*
X-14111502Y20031815D01*
X-14136643Y20223911D01*
X-14136991Y20233119D01*
X-14126406Y20426572D01*
X-14125057Y20435679D01*
X-14079103Y20623895D01*
X-14076103Y20632601D01*
X-13996350Y20809165D01*
X-13991800Y20817173D01*
X-13880960Y20976079D01*
X-13875020Y20983110D01*
X-13736866Y21118946D01*
X-13729735Y21124766D01*
X-13568972Y21232902D01*
X-13560894Y21237312D01*
X-13383004Y21314066D01*
X-13374243Y21316920D01*
X-13185279Y21359679D01*
X-13176154Y21360873D01*
X-12982545Y21368184D01*
X-12973352Y21367681D01*
X-12781693Y21339290D01*
X-12772761Y21337109D01*
X-12589585Y21273984D01*
X-12581187Y21270191D01*
X-12412739Y21174489D01*
X-12405184Y21169219D01*
X-12257185Y21044192D01*
X-12250727Y21037624D01*
X-12129281Y20888826D01*
X-12120737Y20879607D01*
X-12089268Y20849668D01*
X-12052193Y20827326D01*
X-12026064Y20818546D01*
X-11983019Y20813966D01*
X-11955631Y20817051D01*
X-11914680Y20831094D01*
X-11891160Y20845467D01*
X-11859989Y20875492D01*
X-11844746Y20898456D01*
X-11829179Y20938852D01*
X-11825070Y20966108D01*
X-11828035Y21009295D01*
X-11835830Y21035733D01*
X-11856768Y21073619D01*
X-11885507Y21106186D01*
X-11894398Y21115068D01*
X-12038550Y21242009D01*
X-12044863Y21248699D01*
X-12164267Y21401287D01*
X-12169243Y21409021D01*
X-12258574Y21580946D01*
X-12262047Y21589472D01*
X-12318266Y21774885D01*
X-12320113Y21783900D01*
X-12341305Y21976484D01*
X-12341464Y21985689D01*
X-12326909Y22178882D01*
X-12325372Y22187965D01*
X-12275568Y22375188D01*
X-12272385Y22383842D01*
X-12189025Y22558730D01*
X-12184315Y22566637D01*
X-12070234Y22723234D01*
X-12064146Y22730147D01*
X-11923237Y22863113D01*
X-11915989Y22868785D01*
X-11753035Y22973602D01*
X-11744872Y22977843D01*
X-11565442Y23050928D01*
X-11556629Y23053601D01*
X-11366819Y23092474D01*
X-11357675Y23093479D01*
X-11163964Y23096811D01*
X-11154772Y23096119D01*
X-10963743Y23063801D01*
X-10954854Y23061436D01*
X-10773010Y22994563D01*
X-10764701Y22990602D01*
X-10597654Y22891105D01*
X-10591248Y22886573D01*
X-10361831Y22695587D01*
X-10357147Y22691146D01*
X-10153777Y22471646D01*
X-10149717Y22466652D01*
X-9976340Y22222763D01*
X-9972957Y22217286D01*
X-9832474Y21953087D01*
X-9829820Y21947208D01*
X-9724578Y21667119D01*
X-9722696Y21660920D01*
X-9654444Y21369611D01*
X-9653379Y21363236D01*
X-9623252Y21065532D01*
X-9623019Y21059103D01*
X-9631523Y20759989D01*
X-9632122Y20753571D01*
X-9679119Y20458059D01*
X-9680540Y20451775D01*
X-9765240Y20164790D01*
X-9767464Y20158729D01*
X-9888457Y19885063D01*
X-9891439Y19879348D01*
X-10046703Y19623565D01*
X-10050403Y19618273D01*
X-10237349Y19384639D01*
X-10241695Y19379876D01*
X-10457201Y19172294D01*
X-10462125Y19168130D01*
X-10702606Y18990057D01*
X-10708014Y18986570D01*
X-10969435Y18840993D01*
X-10975270Y18838221D01*
X-11253273Y18727564D01*
X-11259405Y18725572D01*
X-11549360Y18651679D01*
X-11555704Y18650492D01*
X-11852769Y18614597D01*
X-11859196Y18614239D01*
X-11859196Y16903016D01*
X-8233298Y18367321D01*
X-8233298Y21701606D01*
X-8251324Y21701745D01*
X-8341634Y21719168D01*
X-8356381Y21724537D01*
X-8416763Y21758140D01*
X-8422388Y21761786D01*
X-10956037Y23657035D01*
X-10962799Y23663132D01*
X-11027494Y23733174D01*
X-11037115Y23748421D01*
X-11070782Y23832697D01*
X-11074315Y23850377D01*
X-11075623Y23941123D01*
X-11072602Y23958891D01*
X-11041376Y24044106D01*
X-11032199Y24059623D01*
X-10973895Y24126516D01*
X-10956279Y24139389D01*
X-10829521Y24194219D01*
X-10816966Y24197786D01*
X-10525042Y24240547D01*
X-10513653Y24242898D01*
X-10244785Y24314942D01*
X-10233747Y24318600D01*
X-9975070Y24421364D01*
X-9964530Y24426279D01*
X-9719549Y24558372D01*
X-9709652Y24564477D01*
X-9481647Y24724128D01*
X-9472525Y24731340D01*
X-9264600Y24916377D01*
X-9256377Y24924600D01*
X-9071340Y25132525D01*
X-9064128Y25141647D01*
X-8904477Y25369652D01*
X-8898372Y25379549D01*
X-8766279Y25624530D01*
X-8761364Y25635070D01*
X-8658600Y25893747D01*
X-8654942Y25904785D01*
X-8582898Y26173653D01*
X-8580547Y26185042D01*
X-8537495Y26478952D01*
X-8535356Y26487813D01*
X-8504617Y26578066D01*
X-8495801Y26593787D01*
X-8437521Y26663837D01*
X-8424282Y26675019D01*
X-8348674Y26718899D01*
X-8341089Y26722487D01*
X-7989889Y26853751D01*
X-7987453Y26854591D01*
X-7960548Y26863102D01*
X-7958090Y26863810D01*
X-7592452Y26959130D01*
X-7589939Y26959716D01*
X-7562310Y26965423D01*
X-7559790Y26965876D01*
X-7186280Y27023225D01*
X-7183769Y27023545D01*
X-7155695Y27026391D01*
X-7153114Y27026586D01*
X-6775703Y27045353D01*
X-6773180Y27045414D01*
X-6744941Y27045367D01*
X-6742378Y27045297D01*
X-6365041Y27025286D01*
X-6362478Y27025083D01*
X-6334444Y27022148D01*
X-6331857Y27021810D01*
X-5958574Y26963235D01*
X-5956067Y26962776D01*
X-5928455Y26956978D01*
X-5925935Y26956381D01*
X-5560613Y26859857D01*
X-5558165Y26859142D01*
X-5531292Y26850544D01*
X-5528849Y26849692D01*
X-5175358Y26716241D01*
X-5172967Y26715268D01*
X-5147136Y26703970D01*
X-5144779Y26702867D01*
X-4806829Y26533891D01*
X-4804560Y26532683D01*
X-4779973Y26518769D01*
X-4777825Y26517480D01*
X-4458919Y26314725D01*
X-4456812Y26313308D01*
X-4433794Y26296958D01*
X-4431738Y26295417D01*
X-4135314Y26061066D01*
X-4133365Y26059441D01*
X-4112147Y26040819D01*
X-4110249Y26039065D01*
X-3839433Y25775595D01*
X-3837628Y25773747D01*
X-3818436Y25753056D01*
X-3816756Y25751149D01*
X-3574318Y25461253D01*
X-3572754Y25459282D01*
X-3555773Y25436717D01*
X-3554281Y25434626D01*
X-3342859Y25121452D01*
X-3341489Y25119307D01*
X-3326897Y25095101D01*
X-3325651Y25092907D01*
X-3147427Y24759695D01*
X-3146277Y24757407D01*
X-3134267Y24731883D01*
X-3133220Y24729501D01*
X-2990110Y24379841D01*
X-2989182Y24377398D01*
X-2979858Y24350799D01*
X-2979066Y24348339D01*
X-2873461Y23988971D01*
X-2871701Y23980034D01*
X-2861898Y23885191D01*
X-2863336Y23867223D01*
X-2886901Y23779580D01*
X-2894668Y23763314D01*
X-2947744Y23690261D01*
X-2961561Y23677373D01*
X-3050642Y23621676D01*
X-3059617Y23617248D01*
X-8130620Y21720612D01*
X-8139410Y21718213D01*
X-8233298Y21701606D01*
X-8233298Y18367321D01*
X15509401Y27955719D01*
X15557110Y27996016D01*
X15571608Y28056759D01*
X15547241Y28114259D01*
X15480386Y28148085D01*
X9808336Y28628028D01*
X1286536Y29349104D01*
X1281401Y29349808D01*
X1085797Y29387021D01*
X1076078Y29389919D01*
X898471Y29463265D01*
X893958Y29465399D01*
X827709Y29500878D01*
X824999Y29502440D01*
X723888Y29564985D01*
X717378Y29569783D01*
X573553Y29694991D01*
X566731Y29702248D01*
X451242Y29852786D01*
X445996Y29861259D01*
X361626Y30034009D01*
X359670Y30038581D01*
X339885Y30092070D01*
X338180Y30097671D01*
X285150Y30317406D01*
X283769Y30328136D01*
X280120Y30517401D01*
X280923Y30527330D01*
X315492Y30716441D01*
X316636Y30721307D01*
X332845Y30777498D01*
X333739Y30780285D01*
X371034Y30885858D01*
X374256Y30893093D01*
X466645Y31062869D01*
X469239Y31067117D01*
X558277Y31197711D01*
X565750Y31210655D01*
X600244Y31282282D01*
X605704Y31296195D01*
X629137Y31372163D01*
X632463Y31386734D01*
X644311Y31465341D01*
X645428Y31480245D01*
X645428Y31559755D01*
X644311Y31574659D01*
X632463Y31653266D01*
X629137Y31667837D01*
X605704Y31743805D01*
X600244Y31757718D01*
X565752Y31829341D01*
X558279Y31842285D01*
X469166Y31972989D01*
X469103Y31972946D01*
X465937Y31978040D01*
X386325Y32119109D01*
X381756Y32129299D01*
X379468Y32135049D01*
X376043Y32142557D01*
X351955Y32217018D01*
X351437Y32218577D01*
X321079Y32307408D01*
X317677Y32321986D01*
X317566Y32321960D01*
X316755Y32326041D01*
X315813Y32329541D01*
X297961Y32412331D01*
X297216Y32416729D01*
X276190Y32586380D01*
X275919Y32595797D01*
X288415Y32785399D01*
X290060Y32795225D01*
X339916Y32978292D01*
X344103Y32989218D01*
X347123Y33051595D01*
X312548Y33103600D01*
X250725Y33125000D01*
X-1500402Y33125000D01*
X-1559729Y33105500D01*
X-1595918Y33054605D01*
X-1594887Y32992252D01*
X-1543331Y32843506D01*
X-1541103Y32834363D01*
X-1513735Y32646335D01*
X-1513292Y32636379D01*
X-1523826Y32446930D01*
X-1525369Y32437095D01*
X-1573978Y32251104D01*
X-1575484Y32246330D01*
X-1595933Y32191283D01*
X-1597031Y32188574D01*
X-1604976Y32170517D01*
X-1609049Y32159566D01*
X-1609861Y32156918D01*
X-1613722Y32147728D01*
X-1618471Y32138988D01*
X-1622137Y32131517D01*
X-1642016Y32086338D01*
X-1645768Y32079368D01*
X-1675951Y32032602D01*
X-1679798Y32026117D01*
X-1705500Y31978814D01*
X-1709086Y31972935D01*
X-1709166Y31972989D01*
X-1798279Y31842285D01*
X-1805752Y31829341D01*
X-1840244Y31757718D01*
X-1845704Y31743805D01*
X-1869137Y31667837D01*
X-1872463Y31653266D01*
X-1884311Y31574659D01*
X-1885428Y31559755D01*
X-1885428Y31480245D01*
X-1884311Y31465341D01*
X-1872463Y31386734D01*
X-1869137Y31372163D01*
X-1845703Y31296191D01*
X-1840238Y31282268D01*
X-1839643Y31281033D01*
X-1837556Y31276021D01*
X-1767965Y31079540D01*
X-1765539Y31069461D01*
X-1740272Y30879091D01*
X-1739863Y30874111D01*
X-1737413Y30797356D01*
X-1737418Y30793989D01*
X-1741928Y30665858D01*
X-1742917Y30657565D01*
X-1781206Y30470900D01*
X-1784171Y30461392D01*
X-1858480Y30286803D01*
X-1863273Y30278080D01*
X-1972220Y30119676D01*
X-1975247Y30115715D01*
X-2012089Y30072198D01*
X-2016130Y30067957D01*
X-2181400Y29913745D01*
X-2190055Y29907274D01*
X-2353080Y29811034D01*
X-2362116Y29806855D01*
X-2543782Y29743980D01*
X-2548592Y29742580D01*
X-2605468Y29729074D01*
X-2608366Y29728475D01*
X-2718639Y29709044D01*
X-2726521Y29708293D01*
X-2919774Y29705273D01*
X-2924769Y29705445D01*
X-11396477Y30422282D01*
X-14898077Y30718571D01*
X-14958837Y30704142D01*
X-14999188Y30656480D01*
X-15003394Y30594172D01*
X-14954433Y30531161D01*
X-14889977Y30495965D01*
X-14883988Y30492116D01*
X-14684110Y30342490D01*
X-14678727Y30337825D01*
X-14502175Y30161273D01*
X-14497510Y30155890D01*
X-14347884Y29956012D01*
X-14344035Y29950023D01*
X-14224371Y29730877D01*
X-14221415Y29724404D01*
X-14134160Y29490462D01*
X-14132155Y29483636D01*
X-14079080Y29239656D01*
X-14078066Y29232601D01*
X-14060255Y28983565D01*
X-14060255Y28976435D01*
X-14078066Y28727399D01*
X-14079080Y28720344D01*
X-14132155Y28476364D01*
X-14134160Y28469538D01*
X-14221415Y28235596D01*
X-14224371Y28229123D01*
X-14344035Y28009977D01*
X-14347884Y28003988D01*
X-14497510Y27804110D01*
X-14502175Y27798727D01*
X-14678727Y27622175D01*
X-14684110Y27617510D01*
X-14883988Y27467884D01*
X-14889977Y27464035D01*
X-15109123Y27344371D01*
X-15115596Y27341415D01*
X-15349538Y27254160D01*
X-15356364Y27252155D01*
X-15600344Y27199080D01*
X-15607399Y27198066D01*
X-15856435Y27180255D01*
X-15863565Y27180255D01*
X-16112601Y27198066D01*
X-16119656Y27199080D01*
X-16363636Y27252155D01*
X-16370462Y27254160D01*
X-16604404Y27341415D01*
X-16610877Y27344371D01*
X-16830023Y27464035D01*
X-16836012Y27467884D01*
X-17035890Y27617510D01*
X-17041273Y27622175D01*
X-17217825Y27798727D01*
X-17222490Y27804110D01*
X-17372116Y28003988D01*
X-17375965Y28009977D01*
X-17495629Y28229123D01*
X-17498585Y28235596D01*
X-17585840Y28469538D01*
X-17587845Y28476364D01*
X-17640920Y28720344D01*
X-17641934Y28727399D01*
X-17659745Y28976435D01*
X-17659745Y28983565D01*
X-17641934Y29232601D01*
X-17640920Y29239656D01*
X-17587845Y29483636D01*
X-17585840Y29490462D01*
X-17498585Y29724404D01*
X-17495629Y29730877D01*
X-17375965Y29950023D01*
X-17372116Y29956012D01*
X-17222490Y30155890D01*
X-17217825Y30161273D01*
X-17041273Y30337825D01*
X-17035890Y30342490D01*
X-16836012Y30492116D01*
X-16830023Y30495965D01*
X-16610877Y30615629D01*
X-16604404Y30618585D01*
X-16487982Y30662008D01*
X-16439210Y30701011D01*
X-16423088Y30761344D01*
X-16445905Y30819476D01*
X-16514497Y30855345D01*
X-20217386Y31168666D01*
X-23257868Y31425938D01*
X-23318628Y31411509D01*
X-23358979Y31363847D01*
X-23366244Y31329572D01*
X-23994967Y12153518D01*
G37*
G04 #@! TO.N,GND*
G36*
X-30993816Y50888690D02*
X-30004820Y33086769D01*
X-29982059Y33028615D01*
X-29913406Y32992673D01*
X-20133072Y32165105D01*
X-20133072Y42004662D01*
X-20139863Y42005126D01*
X-20403532Y42041367D01*
X-20410200Y42042753D01*
X-20666466Y42114555D01*
X-20672897Y42116841D01*
X-20916992Y42222867D01*
X-20923053Y42226008D01*
X-21150435Y42364281D01*
X-21156020Y42368223D01*
X-21362448Y42536165D01*
X-21367441Y42540829D01*
X-21549091Y42735327D01*
X-21553397Y42740620D01*
X-21706864Y42958034D01*
X-21710412Y42963868D01*
X-21832853Y43200168D01*
X-21835567Y43206416D01*
X-21924689Y43457181D01*
X-21926532Y43463760D01*
X-21980676Y43724317D01*
X-21981605Y43731076D01*
X-21999767Y43996594D01*
X-21999767Y44003406D01*
X-21981605Y44268924D01*
X-21980676Y44275683D01*
X-21926532Y44536240D01*
X-21924689Y44542819D01*
X-21835567Y44793584D01*
X-21832853Y44799832D01*
X-21710412Y45036132D01*
X-21706864Y45041966D01*
X-21553397Y45259380D01*
X-21549091Y45264673D01*
X-21367441Y45459171D01*
X-21362448Y45463835D01*
X-21156020Y45631777D01*
X-21150435Y45635719D01*
X-20923053Y45773992D01*
X-20916992Y45777133D01*
X-20672897Y45883159D01*
X-20666466Y45885445D01*
X-20410200Y45957247D01*
X-20403532Y45958633D01*
X-20139863Y45994874D01*
X-20133072Y45995338D01*
X-19866928Y45995338D01*
X-19860137Y45994874D01*
X-19596468Y45958633D01*
X-19589800Y45957247D01*
X-19333534Y45885445D01*
X-19327103Y45883159D01*
X-19098240Y45783749D01*
X-19036056Y45777998D01*
X-18982586Y45810262D01*
X-18961294Y45851590D01*
X-18944683Y45919140D01*
X-18943032Y45924528D01*
X-18825459Y46242936D01*
X-18823212Y46248105D01*
X-18670601Y46551296D01*
X-18667797Y46556163D01*
X-18482090Y46840278D01*
X-18478743Y46844819D01*
X-18262278Y47106280D01*
X-18258467Y47110389D01*
X-18013992Y47345873D01*
X-18009730Y47349539D01*
X-17740345Y47556060D01*
X-17735707Y47559218D01*
X-17444821Y47734163D01*
X-17439840Y47736789D01*
X-17131147Y47877937D01*
X-17125922Y47879979D01*
X-16803311Y47985552D01*
X-16797875Y47986997D01*
X-16465456Y48055649D01*
X-16459907Y48056473D01*
X-16121871Y48087339D01*
X-16116248Y48087534D01*
X-15776885Y48080221D01*
X-15771299Y48079786D01*
X-15434897Y48034386D01*
X-15429384Y48033323D01*
X-15100224Y47950413D01*
X-15094871Y47948739D01*
X-14777103Y47829366D01*
X-14771966Y47827098D01*
X-14469639Y47672783D01*
X-14464781Y47669948D01*
X-14181712Y47482641D01*
X-14177192Y47479270D01*
X-13916963Y47261345D01*
X-13912867Y47257503D01*
X-13678768Y47011711D01*
X-13675116Y47007417D01*
X-13470358Y46737193D01*
X-13466832Y46731865D01*
X-13342424Y46514952D01*
X-13339335Y46508547D01*
X-13247203Y46276488D01*
X-13245049Y46269682D01*
X-13186882Y46026883D01*
X-13185721Y46019855D01*
X-13162699Y45771238D01*
X-13162550Y45764120D01*
X-13175145Y45514755D01*
X-13176012Y45507681D01*
X-13223962Y45262665D01*
X-13225831Y45255768D01*
X-13308167Y45020063D01*
X-13310987Y45013528D01*
X-13426028Y44791939D01*
X-13429764Y44785850D01*
X-13575166Y44582893D01*
X-13579718Y44577411D01*
X-13752539Y44397199D01*
X-13757813Y44392432D01*
X-13954519Y44238650D01*
X-13960436Y44234670D01*
X-14177005Y44110459D01*
X-14183441Y44107355D01*
X-14415487Y44015228D01*
X-14422293Y44013074D01*
X-14665092Y43954907D01*
X-14672120Y43953746D01*
X-14877269Y43934749D01*
X-14934546Y43909862D01*
X-14967207Y43848119D01*
X-14993875Y43643820D01*
X-14995295Y43636853D01*
X-15062520Y43396380D01*
X-15064919Y43389685D01*
X-15165684Y43161225D01*
X-15169010Y43154943D01*
X-15301253Y42943163D01*
X-15305456Y42937394D01*
X-15466485Y42746599D01*
X-15471466Y42741486D01*
X-15658006Y42575554D01*
X-15663666Y42571201D01*
X-15871934Y42433495D01*
X-15878130Y42430006D01*
X-16103885Y42323339D01*
X-16110531Y42320761D01*
X-16349157Y42247311D01*
X-16356099Y42245706D01*
X-16602756Y42206962D01*
X-16609847Y42206362D01*
X-16859521Y42203115D01*
X-16866613Y42203530D01*
X-17114206Y42235849D01*
X-17121173Y42237269D01*
X-17361646Y42304494D01*
X-17368341Y42306893D01*
X-17596801Y42407658D01*
X-17603083Y42410984D01*
X-17815187Y42543429D01*
X-17820371Y42547146D01*
X-18082743Y42761888D01*
X-18086895Y42765695D01*
X-18201258Y42883094D01*
X-18256624Y42911983D01*
X-18318332Y42902392D01*
X-18354584Y42870983D01*
X-18446603Y42740620D01*
X-18450909Y42735327D01*
X-18632559Y42540829D01*
X-18637552Y42536165D01*
X-18843980Y42368223D01*
X-18849565Y42364281D01*
X-19076947Y42226008D01*
X-19083008Y42222867D01*
X-19327103Y42116841D01*
X-19333534Y42114555D01*
X-19589800Y42042753D01*
X-19596468Y42041367D01*
X-19860137Y42005126D01*
X-19866928Y42004662D01*
X-20133072Y42004662D01*
X-20133072Y32165105D01*
X-11312163Y31418721D01*
X-11312163Y37429528D01*
X-11321940Y37429955D01*
X-11506273Y37456272D01*
X-11515777Y37458598D01*
X-11693760Y37521188D01*
X-11698297Y37523038D01*
X-12069253Y37696018D01*
X-12073588Y37698305D01*
X-12235933Y37794412D01*
X-12243831Y37800203D01*
X-12382476Y37924493D01*
X-12389083Y37931703D01*
X-12500821Y38080660D01*
X-12505894Y38089019D01*
X-12587483Y38259119D01*
X-12589393Y38263660D01*
X-12729376Y38648257D01*
X-12730833Y38652970D01*
X-12777669Y38835714D01*
X-12779157Y38845381D01*
X-12789307Y39031306D01*
X-12788880Y39041084D01*
X-12762564Y39225417D01*
X-12760239Y39234918D01*
X-12697648Y39412903D01*
X-12695798Y39417440D01*
X-12522818Y39788397D01*
X-12520531Y39792732D01*
X-12424424Y39955077D01*
X-12418633Y39962975D01*
X-12294343Y40101620D01*
X-12287133Y40108227D01*
X-12138176Y40219965D01*
X-12129817Y40225038D01*
X-11959717Y40306627D01*
X-11955176Y40308537D01*
X-10630887Y40790540D01*
X-10626174Y40791997D01*
X-10443429Y40838833D01*
X-10433764Y40840321D01*
X-10247837Y40850472D01*
X-10238060Y40850045D01*
X-10053727Y40823728D01*
X-10044223Y40821402D01*
X-9866240Y40758812D01*
X-9861703Y40756962D01*
X-9490747Y40583982D01*
X-9486412Y40581695D01*
X-9324067Y40485588D01*
X-9316169Y40479797D01*
X-9177524Y40355507D01*
X-9170917Y40348297D01*
X-9059179Y40199340D01*
X-9054106Y40190981D01*
X-8972517Y40020881D01*
X-8970607Y40016340D01*
X-8830624Y39631743D01*
X-8829167Y39627030D01*
X-8782331Y39444286D01*
X-8780843Y39434619D01*
X-8770693Y39248694D01*
X-8771120Y39238916D01*
X-8797436Y39054583D01*
X-8799761Y39045082D01*
X-8862352Y38867097D01*
X-8864202Y38862560D01*
X-9037182Y38491603D01*
X-9039469Y38487268D01*
X-9135576Y38324923D01*
X-9141367Y38317025D01*
X-9265657Y38178380D01*
X-9272867Y38171773D01*
X-9421824Y38060035D01*
X-9430183Y38054962D01*
X-9600283Y37973373D01*
X-9604824Y37971463D01*
X-10929113Y37489460D01*
X-10933826Y37488003D01*
X-11116571Y37441167D01*
X-11126236Y37439679D01*
X-11312163Y37429528D01*
X-11312163Y31418721D01*
X-2837961Y30701673D01*
X-2777201Y30716102D01*
X-2736850Y30763764D01*
X-2739434Y30844704D01*
X-2775358Y30919301D01*
X-2778081Y30926240D01*
X-2847904Y31152603D01*
X-2849564Y31159876D01*
X-2884871Y31394119D01*
X-2885428Y31401554D01*
X-2885428Y31638446D01*
X-2884871Y31645881D01*
X-2849564Y31880124D01*
X-2847904Y31887397D01*
X-2778081Y32113760D01*
X-2775358Y32120699D01*
X-2672572Y32334136D01*
X-2668849Y32340584D01*
X-2535404Y32536311D01*
X-2533770Y32538360D01*
X-2533486Y32539124D01*
X-2533294Y32539406D01*
X-2533364Y32539454D01*
X-2512024Y32596901D01*
X-2548512Y32678013D01*
X-2593311Y32714778D01*
X-2600224Y32721691D01*
X-2718353Y32865632D01*
X-2723787Y32873764D01*
X-2811561Y33037979D01*
X-2815308Y33047023D01*
X-2869358Y33225206D01*
X-2871267Y33234803D01*
X-2889759Y33422557D01*
X-2890000Y33427450D01*
X-2890000Y34692550D01*
X-2889759Y34697443D01*
X-2871267Y34885197D01*
X-2869358Y34894794D01*
X-2815308Y35072977D01*
X-2811561Y35082021D01*
X-2723787Y35246235D01*
X-2718355Y35254365D01*
X-2676040Y35305926D01*
X-2653478Y35364157D01*
X-2662711Y35411625D01*
X-2688680Y35467317D01*
X-2731425Y35512845D01*
X-2792846Y35524135D01*
X-2850020Y35495766D01*
X-4991387Y33354399D01*
X-4994522Y33351520D01*
X-5119345Y33246322D01*
X-5126925Y33241050D01*
X-5292360Y33147391D01*
X-5301474Y33143374D01*
X-5481879Y33084578D01*
X-5491602Y33082454D01*
X-5680092Y33060686D01*
X-5690054Y33060538D01*
X-5879104Y33076665D01*
X-5888895Y33078499D01*
X-6070970Y33131880D01*
X-6080200Y33135622D01*
X-6248035Y33224127D01*
X-6256338Y33229631D01*
X-6405174Y33351313D01*
X-6408873Y33354659D01*
X-8945740Y35891526D01*
X-8948364Y35894362D01*
X-9045063Y36007375D01*
X-9050205Y36014595D01*
X-9146420Y36178778D01*
X-9150572Y36187832D01*
X-9212053Y36367326D01*
X-9214326Y36377036D01*
X-9238906Y36565170D01*
X-9239203Y36575124D01*
X-9225900Y36764395D01*
X-9224211Y36774221D01*
X-9173557Y36957064D01*
X-9169951Y36966354D01*
X-9083965Y37135488D01*
X-9078584Y37143875D01*
X-8960699Y37292544D01*
X-8953761Y37299693D01*
X-8808677Y37421968D01*
X-8800454Y37427596D01*
X-8633965Y37518595D01*
X-8624792Y37522475D01*
X-8443531Y37578571D01*
X-8433771Y37580550D01*
X-8242491Y37599750D01*
X-8237497Y37600000D01*
X-3161945Y37600000D01*
X-3158063Y37599849D01*
X-3009777Y37588314D01*
X-3001043Y37586846D01*
X-2816922Y37538787D01*
X-2807574Y37535318D01*
X-2637176Y37451869D01*
X-2628708Y37446613D01*
X-2589659Y37416588D01*
X-2530741Y37395884D01*
X-2471029Y37414172D01*
X-2434737Y37461660D01*
X-2219188Y38053875D01*
X-2227666Y38139954D01*
X-2288094Y38239537D01*
X-2290441Y38243870D01*
X-2364443Y38398150D01*
X-2366353Y38402691D01*
X-2431717Y38582274D01*
X-2433174Y38586986D01*
X-2475653Y38752734D01*
X-2476641Y38757565D01*
X-2505711Y38946437D01*
X-2506221Y38951339D01*
X-2515550Y39122213D01*
X-2515576Y39127099D01*
X-2507239Y39318055D01*
X-2506785Y39322937D01*
X-2482598Y39492353D01*
X-2481669Y39497162D01*
X-2436244Y39682803D01*
X-2434843Y39687514D01*
X-2378429Y39847931D01*
X-2375620Y39854413D01*
X-2249697Y40096396D01*
X-2242911Y40106301D01*
X-2118273Y40247974D01*
X-2110974Y40254763D01*
X-1959837Y40369465D01*
X-1951337Y40374666D01*
X-1778175Y40458122D01*
X-1773545Y40460075D01*
X-583907Y40893067D01*
X-581066Y40894005D01*
X-468171Y40927529D01*
X-465282Y40928293D01*
X-320561Y40961909D01*
X-314628Y40962914D01*
X-80950Y40988109D01*
X-74919Y40988392D01*
X72108Y40986418D01*
X78112Y40985974D01*
X311039Y40954513D01*
X316956Y40953347D01*
X459229Y40916247D01*
X464983Y40914368D01*
X683577Y40828093D01*
X689061Y40825536D01*
X818320Y40755466D01*
X823442Y40752275D01*
X1015056Y40616179D01*
X1019761Y40612390D01*
X1128500Y40513418D01*
X1132709Y40509094D01*
X1286179Y40331102D01*
X1289836Y40326304D01*
X1371736Y40204177D01*
X1374783Y40198979D01*
X1481201Y39989428D01*
X1483610Y39983877D01*
X1533894Y39845723D01*
X1535614Y39839931D01*
X1588793Y39610990D01*
X1589798Y39605057D01*
X1605561Y39458861D01*
X1605844Y39452830D01*
X1602689Y39217823D01*
X1602245Y39211819D01*
X1582563Y39066098D01*
X1581397Y39060181D01*
X1522093Y38832760D01*
X1520214Y38827006D01*
X1466241Y38690255D01*
X1463684Y38684771D01*
X1351682Y38478159D01*
X1348491Y38473037D01*
X1263352Y38353167D01*
X1259561Y38348459D01*
X1239557Y38326480D01*
X1214046Y38269479D01*
X1222882Y38216910D01*
X1537643Y37541903D01*
X1539493Y37537366D01*
X1602083Y37359383D01*
X1604409Y37349879D01*
X1630726Y37165546D01*
X1631153Y37155769D01*
X1621002Y36969843D01*
X1619514Y36960178D01*
X1572678Y36777433D01*
X1571221Y36772720D01*
X1161499Y35647020D01*
X1159532Y35584601D01*
X1199913Y35529671D01*
X1209364Y35523356D01*
X1353309Y35405224D01*
X1360224Y35398309D01*
X1478353Y35254368D01*
X1483787Y35246236D01*
X1571561Y35082021D01*
X1575308Y35072977D01*
X1629358Y34894794D01*
X1631267Y34885197D01*
X1649759Y34697443D01*
X1650000Y34692550D01*
X1650000Y33427450D01*
X1649759Y33422557D01*
X1631267Y33234803D01*
X1629358Y33225206D01*
X1575308Y33047023D01*
X1571561Y33037979D01*
X1483787Y32873764D01*
X1478353Y32865632D01*
X1360224Y32721691D01*
X1353311Y32714778D01*
X1308512Y32678013D01*
X1275022Y32625303D01*
X1293512Y32539555D01*
X1293294Y32539406D01*
X1293660Y32538869D01*
X1293770Y32538360D01*
X1295404Y32536311D01*
X1428849Y32340584D01*
X1432572Y32334136D01*
X1535358Y32120699D01*
X1538081Y32113760D01*
X1607904Y31887397D01*
X1609564Y31880124D01*
X1644871Y31645881D01*
X1645428Y31638446D01*
X1645428Y31401554D01*
X1644871Y31394119D01*
X1609564Y31159876D01*
X1607904Y31152603D01*
X1538081Y30926240D01*
X1535358Y30919301D01*
X1432572Y30705864D01*
X1428849Y30699416D01*
X1294073Y30501737D01*
X1276764Y30441734D01*
X1298429Y30383162D01*
X1368265Y30345762D01*
X9892650Y29624467D01*
X9892650Y30654611D01*
X9884441Y30655291D01*
X9672672Y30690630D01*
X9664687Y30692652D01*
X9461618Y30762365D01*
X9454080Y30765671D01*
X9265258Y30867856D01*
X9258354Y30872367D01*
X9088933Y31004234D01*
X9082872Y31009812D01*
X8937462Y31167769D01*
X8932395Y31174280D01*
X8814968Y31354015D01*
X8811053Y31361249D01*
X8724805Y31557876D01*
X8722133Y31565659D01*
X8669428Y31773783D01*
X8668070Y31781926D01*
X8650342Y31995873D01*
X8650342Y32004127D01*
X8668070Y32218074D01*
X8669428Y32226217D01*
X8722131Y32434330D01*
X8724812Y32442139D01*
X8741577Y32480360D01*
X8750000Y32520529D01*
X8750000Y32997805D01*
X8750192Y33002192D01*
X8754375Y33050007D01*
X8754756Y33058722D01*
X8754756Y33104575D01*
X8755515Y33113250D01*
X8763477Y33158406D01*
X8764615Y33167054D01*
X8768610Y33212713D01*
X8770119Y33221272D01*
X8781983Y33265552D01*
X8783871Y33274068D01*
X8791834Y33319224D01*
X8794087Y33327632D01*
X8809765Y33370707D01*
X8812389Y33379027D01*
X8824256Y33423317D01*
X8827225Y33431472D01*
X8846602Y33473026D01*
X8849940Y33481086D01*
X8865623Y33524175D01*
X8869298Y33532056D01*
X8892222Y33571763D01*
X8896249Y33579499D01*
X8915618Y33621035D01*
X8919976Y33628584D01*
X8946264Y33666125D01*
X8950954Y33673485D01*
X8973879Y33713194D01*
X8978867Y33720319D01*
X9008335Y33755436D01*
X9013647Y33762359D01*
X9039938Y33799908D01*
X9045530Y33806571D01*
X9077950Y33838991D01*
X9083843Y33845422D01*
X9114709Y33882206D01*
X9117666Y33885433D01*
X10114579Y34882346D01*
X10117780Y34885279D01*
X10154575Y34916154D01*
X10161007Y34922048D01*
X10193429Y34954470D01*
X10200092Y34960061D01*
X10237657Y34986364D01*
X10244580Y34991676D01*
X10279689Y35021136D01*
X10286804Y35026118D01*
X10326502Y35049037D01*
X10333862Y35053726D01*
X10371424Y35080028D01*
X10378965Y35084382D01*
X10420516Y35103758D01*
X10428252Y35107785D01*
X10467945Y35130701D01*
X10475826Y35134376D01*
X10518901Y35150054D01*
X10526960Y35153392D01*
X10568524Y35172774D01*
X10576694Y35175748D01*
X10620987Y35187616D01*
X10629306Y35190239D01*
X10672370Y35205913D01*
X10680773Y35208165D01*
X10725913Y35216124D01*
X10734431Y35218012D01*
X10778723Y35229880D01*
X10787295Y35231391D01*
X10832956Y35235386D01*
X10841604Y35236524D01*
X10886751Y35244484D01*
X10895425Y35245243D01*
X10941266Y35245243D01*
X10949981Y35245624D01*
X10997808Y35249808D01*
X11002195Y35250000D01*
X12997805Y35250000D01*
X13002192Y35249808D01*
X13050019Y35245624D01*
X13058734Y35245243D01*
X13104574Y35245243D01*
X13113248Y35244484D01*
X13158382Y35236526D01*
X13167030Y35235388D01*
X13212700Y35231392D01*
X13221279Y35229880D01*
X13265567Y35218013D01*
X13274083Y35216125D01*
X13319222Y35208165D01*
X13327634Y35205911D01*
X13370696Y35190238D01*
X13379015Y35187614D01*
X13423310Y35175745D01*
X13431483Y35172770D01*
X13473036Y35153394D01*
X13481095Y35150056D01*
X13524173Y35134377D01*
X13532048Y35130705D01*
X13571749Y35107784D01*
X13579486Y35103756D01*
X13621051Y35084374D01*
X13628573Y35080030D01*
X13666132Y35053731D01*
X13673490Y35049043D01*
X13713190Y35026122D01*
X13720313Y35021135D01*
X13755430Y34991668D01*
X13762353Y34986356D01*
X13799912Y34960057D01*
X13806570Y34954471D01*
X13838994Y34922047D01*
X13845426Y34916153D01*
X13882220Y34885279D01*
X13885421Y34882346D01*
X14882346Y33885421D01*
X14885279Y33882220D01*
X14916154Y33845425D01*
X14922048Y33838993D01*
X14954470Y33806571D01*
X14960061Y33799908D01*
X14986364Y33762343D01*
X14991676Y33755420D01*
X15021137Y33720311D01*
X15026122Y33713191D01*
X15049046Y33673486D01*
X15053733Y33666128D01*
X15080035Y33628565D01*
X15084374Y33621051D01*
X15103755Y33579488D01*
X15107783Y33571751D01*
X15130703Y33532052D01*
X15134377Y33524171D01*
X15150052Y33481105D01*
X15153390Y33473044D01*
X15172772Y33431480D01*
X15175749Y33423300D01*
X15187616Y33379013D01*
X15190239Y33370694D01*
X15205914Y33327626D01*
X15208164Y33319231D01*
X15216126Y33274079D01*
X15218014Y33265563D01*
X15229882Y33221272D01*
X15231390Y33212713D01*
X15235386Y33167043D01*
X15236524Y33158395D01*
X15244484Y33113250D01*
X15245243Y33104575D01*
X15245243Y33058734D01*
X15245624Y33050019D01*
X15249808Y33002192D01*
X15250000Y32997805D01*
X15250000Y32520529D01*
X15258423Y32480360D01*
X15275188Y32442139D01*
X15277869Y32434330D01*
X15330572Y32226217D01*
X15331930Y32218074D01*
X15349658Y32004127D01*
X15349658Y31995873D01*
X15331930Y31781926D01*
X15330572Y31773783D01*
X15277867Y31565659D01*
X15275195Y31557876D01*
X15188947Y31361249D01*
X15185032Y31354015D01*
X15067605Y31174280D01*
X15062538Y31167769D01*
X14917128Y31009812D01*
X14911067Y31004234D01*
X14741646Y30872367D01*
X14734742Y30867856D01*
X14545920Y30765671D01*
X14538382Y30762365D01*
X14335313Y30692652D01*
X14327328Y30690630D01*
X14115559Y30655291D01*
X14107350Y30654611D01*
X13892650Y30654611D01*
X13884441Y30655291D01*
X13672672Y30690630D01*
X13664687Y30692652D01*
X13461618Y30762365D01*
X13454080Y30765671D01*
X13265258Y30867856D01*
X13258354Y30872367D01*
X13088933Y31004234D01*
X13082872Y31009812D01*
X12937462Y31167769D01*
X12932395Y31174280D01*
X12814968Y31354015D01*
X12811053Y31361249D01*
X12724805Y31557876D01*
X12722133Y31565659D01*
X12669428Y31773783D01*
X12668070Y31781926D01*
X12650342Y31995873D01*
X12650342Y32004127D01*
X12668070Y32218074D01*
X12669428Y32226217D01*
X12723147Y32438344D01*
X12721309Y32438809D01*
X12722060Y32494099D01*
X12697356Y32534877D01*
X12511522Y32720711D01*
X12440812Y32750000D01*
X11559188Y32750000D01*
X11488478Y32720711D01*
X11302644Y32534877D01*
X11274482Y32479138D01*
X11278152Y32438673D01*
X11276853Y32438344D01*
X11330572Y32226217D01*
X11331930Y32218074D01*
X11349658Y32004127D01*
X11349658Y31995873D01*
X11331930Y31781926D01*
X11330572Y31773783D01*
X11277867Y31565659D01*
X11275195Y31557876D01*
X11188947Y31361249D01*
X11185032Y31354015D01*
X11067605Y31174280D01*
X11062538Y31167769D01*
X10917128Y31009812D01*
X10911067Y31004234D01*
X10741646Y30872367D01*
X10734742Y30867856D01*
X10545920Y30765671D01*
X10538382Y30762365D01*
X10335313Y30692652D01*
X10327328Y30690630D01*
X10115559Y30655291D01*
X10107350Y30654611D01*
X9892650Y30654611D01*
X9892650Y29624467D01*
X17892650Y28947544D01*
X17892650Y30654611D01*
X17884441Y30655291D01*
X17672672Y30690630D01*
X17664687Y30692652D01*
X17461618Y30762365D01*
X17454080Y30765671D01*
X17265258Y30867856D01*
X17258354Y30872367D01*
X17088933Y31004234D01*
X17082872Y31009812D01*
X16937462Y31167769D01*
X16932395Y31174280D01*
X16814968Y31354015D01*
X16811053Y31361249D01*
X16724805Y31557876D01*
X16722133Y31565659D01*
X16669428Y31773783D01*
X16668070Y31781926D01*
X16650342Y31995873D01*
X16650342Y32004127D01*
X16668070Y32218074D01*
X16669428Y32226217D01*
X16722133Y32434341D01*
X16724805Y32442124D01*
X16811053Y32638751D01*
X16814968Y32645985D01*
X16932395Y32825720D01*
X16937462Y32832231D01*
X17082872Y32990188D01*
X17088933Y32995766D01*
X17258354Y33127633D01*
X17265258Y33132144D01*
X17454080Y33234329D01*
X17461618Y33237635D01*
X17664687Y33307348D01*
X17672672Y33309370D01*
X17884441Y33344709D01*
X17892650Y33345389D01*
X18107350Y33345389D01*
X18115559Y33344709D01*
X18327328Y33309370D01*
X18335313Y33307348D01*
X18538382Y33237635D01*
X18545920Y33234329D01*
X18734742Y33132144D01*
X18741646Y33127633D01*
X18911067Y32995766D01*
X18917128Y32990188D01*
X19062538Y32832231D01*
X19067605Y32825720D01*
X19185032Y32645985D01*
X19188947Y32638751D01*
X19275195Y32442124D01*
X19277867Y32434341D01*
X19330572Y32226217D01*
X19331930Y32218074D01*
X19349658Y32004127D01*
X19349658Y31995873D01*
X19331930Y31781926D01*
X19330572Y31773783D01*
X19277867Y31565659D01*
X19275195Y31557876D01*
X19188947Y31361249D01*
X19185032Y31354015D01*
X19067605Y31174280D01*
X19062538Y31167769D01*
X18917128Y31009812D01*
X18911067Y31004234D01*
X18741646Y30872367D01*
X18734742Y30867856D01*
X18545920Y30765671D01*
X18538382Y30762365D01*
X18335313Y30692652D01*
X18327328Y30690630D01*
X18115559Y30655291D01*
X18107350Y30654611D01*
X17892650Y30654611D01*
X17892650Y28947544D01*
X26891570Y28186098D01*
X26952330Y28200527D01*
X26992681Y28248189D01*
X27000000Y28285741D01*
X27000000Y32997497D01*
X27000250Y33002491D01*
X27019450Y33193771D01*
X27021429Y33203531D01*
X27077525Y33384792D01*
X27081405Y33393965D01*
X27172246Y33560165D01*
X27178299Y33568884D01*
X27320864Y33733583D01*
X27324800Y33737641D01*
X27665948Y34051690D01*
X27667471Y34053034D01*
X27728986Y34105134D01*
X27730574Y34106424D01*
X28097904Y34392329D01*
X28099564Y34393567D01*
X28165143Y34440389D01*
X28166851Y34441556D01*
X28556507Y34696130D01*
X28558304Y34697252D01*
X28627511Y34738491D01*
X28629309Y34739513D01*
X29038651Y34961038D01*
X29040524Y34962002D01*
X29112897Y34997382D01*
X29114791Y34998260D01*
X29541050Y35185235D01*
X29542939Y35186018D01*
X29618034Y35215320D01*
X29619949Y35216022D01*
X30060240Y35367174D01*
X30062168Y35367792D01*
X30139400Y35390785D01*
X30141436Y35391345D01*
X30592626Y35505602D01*
X30594658Y35506072D01*
X30673520Y35522608D01*
X30675564Y35522992D01*
X31134689Y35599606D01*
X31136702Y35599900D01*
X31216662Y35609867D01*
X31218774Y35610086D01*
X31682589Y35648519D01*
X31684697Y35648650D01*
X31765205Y35651980D01*
X31767267Y35652022D01*
X32232733Y35652022D01*
X32234795Y35651980D01*
X32315303Y35648650D01*
X32317411Y35648519D01*
X32781226Y35610086D01*
X32783338Y35609867D01*
X32863298Y35599900D01*
X32865311Y35599606D01*
X33324436Y35522992D01*
X33326480Y35522608D01*
X33405342Y35506072D01*
X33407374Y35505602D01*
X33858564Y35391345D01*
X33860600Y35390785D01*
X33937832Y35367792D01*
X33939760Y35367174D01*
X34380051Y35216022D01*
X34381966Y35215320D01*
X34457061Y35186018D01*
X34458950Y35185235D01*
X34885209Y34998260D01*
X34887103Y34997382D01*
X34959476Y34962002D01*
X34961349Y34961038D01*
X35370691Y34739513D01*
X35372489Y34738491D01*
X35441696Y34697252D01*
X35443493Y34696130D01*
X35833149Y34441556D01*
X35834857Y34440389D01*
X35900436Y34393567D01*
X35902096Y34392329D01*
X36269426Y34106424D01*
X36271014Y34105134D01*
X36332529Y34053034D01*
X36334052Y34051690D01*
X36675449Y33737411D01*
X36678933Y33733867D01*
X36806675Y33590172D01*
X36812509Y33582114D01*
X36907877Y33418074D01*
X36911996Y33409008D01*
X36972947Y33229027D01*
X36975111Y33219875D01*
X36998490Y33051264D01*
X36998903Y33046860D01*
X37015404Y32710972D01*
X37016366Y32701206D01*
X37058106Y32419821D01*
X37060021Y32410196D01*
X37129140Y32134258D01*
X37131988Y32124867D01*
X37227818Y31857039D01*
X37231574Y31847973D01*
X37353199Y31590821D01*
X37357825Y31582166D01*
X37504067Y31338175D01*
X37509519Y31330016D01*
X37678974Y31101533D01*
X37685199Y31093947D01*
X37876232Y30883172D01*
X37883172Y30876232D01*
X38093947Y30685199D01*
X38101533Y30678974D01*
X38330016Y30509519D01*
X38338175Y30504067D01*
X38582166Y30357825D01*
X38590821Y30353199D01*
X38847973Y30231574D01*
X38857039Y30227818D01*
X39124867Y30131988D01*
X39134258Y30129140D01*
X39410196Y30060021D01*
X39419821Y30058106D01*
X39701206Y30016366D01*
X39710972Y30015404D01*
X40046568Y29998918D01*
X40051548Y29998422D01*
X40241641Y29969862D01*
X40251313Y29967401D01*
X40429589Y29902484D01*
X40438561Y29898159D01*
X40600389Y29799099D01*
X40608327Y29793072D01*
X40747234Y29663827D01*
X40753810Y29656350D01*
X40864264Y29502069D01*
X40869222Y29493435D01*
X40946810Y29320278D01*
X40949953Y29310832D01*
X40991791Y29124751D01*
X40992916Y29116821D01*
X40999910Y29001492D01*
X41000000Y28998500D01*
X41000000Y27084203D01*
X41019500Y27024876D01*
X41091568Y26984560D01*
X47916002Y26407108D01*
X47976762Y26421537D01*
X48017113Y26469199D01*
X48020926Y26533000D01*
X47993332Y26634437D01*
X47992267Y26639304D01*
X47098541Y31983770D01*
X47097963Y31988746D01*
X47085351Y32180574D01*
X47085694Y32190526D01*
X47111126Y32378560D01*
X47113438Y32388239D01*
X47175731Y32567459D01*
X47179930Y32576506D01*
X47276598Y32739765D01*
X47282502Y32747785D01*
X47409694Y32888578D01*
X47417080Y32895269D01*
X47568724Y33007242D01*
X47579518Y33013300D01*
X47845430Y33121636D01*
X47852518Y33123925D01*
X48217337Y33212344D01*
X48219889Y33212894D01*
X48318183Y33231436D01*
X48320729Y33231849D01*
X48695142Y33282748D01*
X48697704Y33283029D01*
X48797398Y33291402D01*
X48799953Y33291551D01*
X49177592Y33303810D01*
X49180204Y33303827D01*
X49280233Y33301938D01*
X49282764Y33301825D01*
X49659706Y33275314D01*
X49662292Y33275065D01*
X49761575Y33262937D01*
X49764137Y33262557D01*
X50136335Y33197561D01*
X50138873Y33197051D01*
X50236439Y33174800D01*
X50238881Y33174176D01*
X50602545Y33071352D01*
X50604935Y33070610D01*
X50699738Y33038468D01*
X50702098Y33037599D01*
X51053276Y32898060D01*
X51055655Y32897043D01*
X51146606Y32855380D01*
X51148897Y32854259D01*
X51483942Y32679455D01*
X51486133Y32678240D01*
X51572390Y32627443D01*
X51574554Y32626092D01*
X51889860Y32417910D01*
X51892002Y32416416D01*
X51972540Y32357090D01*
X51974574Y32355509D01*
X52266906Y32116091D01*
X52268842Y32114420D01*
X52342899Y32047132D01*
X52344751Y32045360D01*
X52610997Y31777253D01*
X52612782Y31775359D01*
X52679529Y31700862D01*
X52681198Y31698901D01*
X52918563Y31404920D01*
X52920141Y31402859D01*
X52978913Y31321897D01*
X52980362Y31319789D01*
X53186351Y31003026D01*
X53187710Y31000814D01*
X53237859Y30914284D01*
X53239111Y30911989D01*
X53411553Y30575780D01*
X53412652Y30573495D01*
X53453701Y30482209D01*
X53454675Y30479884D01*
X53591764Y30127744D01*
X53592637Y30125317D01*
X53624106Y30030332D01*
X53624841Y30027907D01*
X53725119Y29663563D01*
X53725728Y29661107D01*
X53747299Y29563378D01*
X53747786Y29560869D01*
X53809993Y29189385D01*
X53810568Y29184442D01*
X53823223Y28992611D01*
X53822883Y28982649D01*
X53797495Y28794615D01*
X53795184Y28784933D01*
X53732929Y28605696D01*
X53728739Y28596661D01*
X53632534Y28434100D01*
X53625487Y28424854D01*
X53446698Y28239766D01*
X53441749Y28235284D01*
X53239751Y28075565D01*
X53231064Y28067834D01*
X53091898Y27928668D01*
X53084167Y27919981D01*
X52962112Y27765617D01*
X52955442Y27756091D01*
X52852131Y27588597D01*
X52846612Y27578362D01*
X52763436Y27399992D01*
X52759143Y27389184D01*
X52697248Y27202394D01*
X52694238Y27191162D01*
X52654439Y26998417D01*
X52652754Y26986911D01*
X52635602Y26790870D01*
X52635263Y26779245D01*
X52640988Y26582528D01*
X52642002Y26570945D01*
X52670523Y26376226D01*
X52672874Y26364836D01*
X52723808Y26174748D01*
X52727466Y26163710D01*
X52771927Y26051794D01*
X52811953Y26003858D01*
X52856430Y25989071D01*
X57202187Y25621353D01*
X57269396Y25640095D01*
X57491738Y25801637D01*
X57497020Y25804989D01*
X57766643Y25953215D01*
X57772311Y25955882D01*
X58058376Y26069143D01*
X58064348Y26071083D01*
X58362341Y26147595D01*
X58368511Y26148772D01*
X58647685Y26184039D01*
X58647685Y27337930D01*
X58439335Y27356158D01*
X58430763Y27357669D01*
X58228723Y27411805D01*
X58220564Y27414775D01*
X58030995Y27503173D01*
X58023468Y27507518D01*
X57852128Y27627491D01*
X57845469Y27633079D01*
X57697570Y27780978D01*
X57691982Y27787637D01*
X57570754Y27960770D01*
X57568422Y27964429D01*
X56820589Y29259714D01*
X56818591Y29263553D01*
X56729266Y29455111D01*
X56726296Y29463270D01*
X56672160Y29665310D01*
X56670649Y29673882D01*
X56652421Y29882230D01*
X56652421Y29890942D01*
X56670649Y30099292D01*
X56672160Y30107864D01*
X56726296Y30309904D01*
X56729267Y30318063D01*
X56788092Y30444216D01*
X56795492Y30506226D01*
X56764659Y30560533D01*
X56736440Y30578567D01*
X56707404Y30590857D01*
X56699289Y30595215D01*
X56687696Y30602897D01*
X56675646Y30609731D01*
X56663110Y30615734D01*
X56655208Y30620459D01*
X56599316Y30661331D01*
X56595525Y30663971D01*
X56537788Y30702229D01*
X56530611Y30708004D01*
X56520628Y30717685D01*
X56510039Y30726617D01*
X56498819Y30734821D01*
X56491918Y30740920D01*
X56444487Y30791366D01*
X56441247Y30794656D01*
X56391519Y30842876D01*
X56385535Y30849862D01*
X56377495Y30861219D01*
X56368731Y30871939D01*
X56359211Y30882064D01*
X56353545Y30889332D01*
X56316198Y30947625D01*
X56313616Y30951458D01*
X56272251Y31009891D01*
X56269762Y31013775D01*
X53732077Y35409176D01*
X53729949Y35413289D01*
X53700047Y35478282D01*
X53698021Y35482432D01*
X53666189Y35543967D01*
X53662736Y35552488D01*
X53658722Y35565812D01*
X53653819Y35578763D01*
X53648006Y35591398D01*
X53644951Y35600069D01*
X53628059Y35667232D01*
X53626829Y35671687D01*
X53606849Y35738008D01*
X53605020Y35747026D01*
X53603524Y35760852D01*
X53601083Y35774493D01*
X53597693Y35787967D01*
X53596280Y35797073D01*
X53592018Y35866179D01*
X53591628Y35870782D01*
X53587967Y35904612D01*
X53562197Y35961497D01*
X53496023Y35993572D01*
X53491098Y35993941D01*
X53483713Y35995054D01*
X53252766Y36047766D01*
X53245637Y36049965D01*
X53025132Y36136508D01*
X53018404Y36139748D01*
X52813256Y36258189D01*
X52807090Y36262393D01*
X52621894Y36410083D01*
X52616416Y36415165D01*
X52455294Y36588813D01*
X52450644Y36594645D01*
X52316152Y36791908D01*
X52314160Y36795077D01*
X51681030Y37891692D01*
X51679279Y37895004D01*
X51575688Y38110114D01*
X51572965Y38117053D01*
X51503141Y38343415D01*
X51501481Y38350688D01*
X51466174Y38584932D01*
X51465617Y38592367D01*
X51465617Y38829258D01*
X51466174Y38836693D01*
X51501482Y39070936D01*
X51503142Y39078209D01*
X51572965Y39304572D01*
X51575688Y39311511D01*
X51678469Y39524938D01*
X51682204Y39531407D01*
X51815644Y39727127D01*
X51820294Y39732959D01*
X51981416Y39906607D01*
X51986893Y39911689D01*
X52172092Y40059380D01*
X52178253Y40063581D01*
X52383413Y40182030D01*
X52390126Y40185263D01*
X52610637Y40271807D01*
X52617766Y40274006D01*
X52848711Y40326718D01*
X52856100Y40327831D01*
X53092310Y40345532D01*
X53099782Y40345532D01*
X53335997Y40327831D01*
X53338597Y40327439D01*
X53339402Y40327576D01*
X53339730Y40327551D01*
X53339736Y40327632D01*
X53400167Y40337883D01*
X53452158Y40410033D01*
X53461597Y40467207D01*
X53464128Y40476654D01*
X53529722Y40650933D01*
X53534046Y40659700D01*
X53632373Y40817824D01*
X53638331Y40825588D01*
X53765620Y40961493D01*
X53772971Y40967939D01*
X53926334Y41077838D01*
X53930440Y41080486D01*
X55026052Y41713037D01*
X55030420Y41715281D01*
X55202258Y41793140D01*
X55211522Y41796285D01*
X55392866Y41838567D01*
X55402563Y41839844D01*
X55588664Y41845936D01*
X55598431Y41845296D01*
X55782144Y41814965D01*
X55791592Y41812434D01*
X55965871Y41746840D01*
X55974638Y41742516D01*
X56132762Y41644189D01*
X56140526Y41638231D01*
X56276431Y41510942D01*
X56282877Y41503591D01*
X56392776Y41350228D01*
X56395424Y41346122D01*
X56537194Y41100569D01*
X56583745Y41058941D01*
X56645916Y41053047D01*
X56700400Y41086291D01*
X56895731Y41319078D01*
X56899994Y41321721D01*
X56924277Y41316028D01*
X56982628Y41267065D01*
X56459265Y40643345D01*
X56531467Y39818071D01*
X57166080Y39285568D01*
X57991354Y39357770D01*
X58514718Y39981491D01*
X58579056Y39927504D01*
X58581699Y39923242D01*
X58576006Y39898959D01*
X58071118Y39297257D01*
X58064122Y39290413D01*
X58045211Y39275235D01*
X58028074Y39266313D01*
X58004783Y39259524D01*
X57995175Y39257722D01*
X57769866Y39238010D01*
X57712464Y39213414D01*
X57680848Y39159559D01*
X57687496Y39097121D01*
X57743079Y38974448D01*
X57746223Y38965188D01*
X57788505Y38783844D01*
X57789782Y38774147D01*
X57795874Y38588046D01*
X57795234Y38578279D01*
X57764903Y38394566D01*
X57762372Y38385118D01*
X57696778Y38210839D01*
X57692454Y38202072D01*
X57594127Y38043948D01*
X57588169Y38036184D01*
X57460880Y37900279D01*
X57453529Y37893833D01*
X57300166Y37783934D01*
X57296060Y37781286D01*
X56200448Y37148735D01*
X56196080Y37146491D01*
X56024242Y37068632D01*
X56014978Y37065487D01*
X55833634Y37023205D01*
X55823937Y37021928D01*
X55741079Y37019216D01*
X55682422Y36997786D01*
X55647917Y36945734D01*
X55651022Y36883362D01*
X55718469Y36822679D01*
X58435720Y36094593D01*
X58440112Y36093196D01*
X58481320Y36077957D01*
X58490123Y36075157D01*
X58530307Y36064390D01*
X58538945Y36061196D01*
X58576470Y36043226D01*
X58584977Y36039625D01*
X58624009Y36025191D01*
X58632310Y36021217D01*
X58668022Y35999858D01*
X58676161Y35995487D01*
X58713692Y35977515D01*
X58721591Y35972791D01*
X58755176Y35948231D01*
X58762876Y35943128D01*
X58798588Y35921770D01*
X58806016Y35916339D01*
X58837191Y35888785D01*
X58844389Y35882993D01*
X58877976Y35858433D01*
X58884880Y35852330D01*
X58913380Y35822018D01*
X58920011Y35815587D01*
X58951187Y35788033D01*
X58957496Y35781324D01*
X58983073Y35748517D01*
X58989082Y35741503D01*
X59017591Y35711181D01*
X59023252Y35703920D01*
X59045705Y35668876D01*
X59051040Y35661339D01*
X59076615Y35628534D01*
X59081584Y35620779D01*
X59100698Y35583829D01*
X59105317Y35575829D01*
X59127768Y35540787D01*
X59132000Y35532607D01*
X59147631Y35494033D01*
X59151492Y35485643D01*
X59170601Y35448704D01*
X59174062Y35440162D01*
X59186059Y35400338D01*
X59189129Y35391625D01*
X59204762Y35353048D01*
X59207417Y35344234D01*
X59215695Y35303439D01*
X59217948Y35294483D01*
X59229946Y35254653D01*
X59231776Y35245632D01*
X59236252Y35204278D01*
X59237668Y35195152D01*
X59245945Y35154360D01*
X59246936Y35145199D01*
X59247577Y35103588D01*
X59248145Y35094369D01*
X59252621Y35053005D01*
X59252764Y35043808D01*
X59249563Y35002325D01*
X59249279Y34993093D01*
X59249920Y34951490D01*
X59249210Y34942293D01*
X59242196Y34901288D01*
X59241060Y34892120D01*
X59237860Y34850638D01*
X59236307Y34841560D01*
X59225540Y34801376D01*
X59223564Y34792354D01*
X59216156Y34749042D01*
X59215173Y34744554D01*
X58346704Y31503379D01*
X58350185Y31441026D01*
X58389979Y31392897D01*
X58434581Y31377878D01*
X58547768Y31367976D01*
X58556329Y31366467D01*
X58758369Y31312331D01*
X58766528Y31309361D01*
X58929733Y31233257D01*
X58991742Y31225857D01*
X59051329Y31263012D01*
X59143124Y31382642D01*
X59148371Y31388469D01*
X59313409Y31545085D01*
X59319492Y31550011D01*
X59508623Y31679997D01*
X59511934Y31682086D01*
X60374571Y32180129D01*
X60378022Y32181945D01*
X60585173Y32280752D01*
X60592473Y32283553D01*
X60810628Y32348173D01*
X60818292Y32349802D01*
X61043857Y32379498D01*
X61051689Y32379909D01*
X61179446Y32376564D01*
X61239263Y32394505D01*
X61276772Y32444435D01*
X61281771Y32484157D01*
X61278376Y32528529D01*
X61278590Y32538298D01*
X61300878Y32723166D01*
X61302997Y32732721D01*
X61360925Y32909690D01*
X61364860Y32918632D01*
X61457410Y33083051D01*
X61460018Y33087195D01*
X61694782Y33422473D01*
X61697793Y33426354D01*
X61820636Y33569550D01*
X61827696Y33576309D01*
X61974178Y33691268D01*
X61982432Y33696526D01*
X62148526Y33780699D01*
X62157638Y33784243D01*
X62339334Y33835059D01*
X62344118Y33836147D01*
X62427203Y33850797D01*
X62482242Y33880303D01*
X62509044Y33936709D01*
X62497155Y33998017D01*
X62440153Y34044570D01*
X62420605Y34050789D01*
X62412137Y34054372D01*
X62241431Y34146039D01*
X62233767Y34151118D01*
X62082821Y34272584D01*
X62076213Y34278992D01*
X61950155Y34426127D01*
X61944840Y34433634D01*
X61847968Y34601423D01*
X61844117Y34609795D01*
X61779726Y34792522D01*
X61777482Y34801441D01*
X61747762Y34992898D01*
X61747576Y34995922D01*
X61747182Y34996639D01*
X61747053Y34997468D01*
X61746752Y34997421D01*
X61708684Y35066659D01*
X61709863Y35068144D01*
X61670659Y35099283D01*
X61663701Y35104338D01*
X61625868Y35129408D01*
X61618694Y35135180D01*
X61591571Y35161481D01*
X61584154Y35167995D01*
X61554535Y35191521D01*
X61547882Y35197891D01*
X61518108Y35232200D01*
X61512196Y35238448D01*
X61479605Y35270051D01*
X61473616Y35277041D01*
X61451774Y35307896D01*
X61445680Y35315661D01*
X61420898Y35344218D01*
X61415536Y35351692D01*
X61392581Y35390874D01*
X61387916Y35398103D01*
X61360343Y35437054D01*
X61357851Y35440944D01*
X61288491Y35561080D01*
X61286375Y35565171D01*
X61267610Y35605958D01*
X61263448Y35614020D01*
X61242203Y35650957D01*
X61238369Y35659329D01*
X61224925Y35697683D01*
X61221400Y35706401D01*
X61204430Y35743286D01*
X61201369Y35751971D01*
X61190984Y35793263D01*
X61188374Y35801953D01*
X61174276Y35842171D01*
X61172047Y35851094D01*
X61165879Y35891268D01*
X61164016Y35900485D01*
X61161793Y35909323D01*
X61134433Y35956715D01*
X61129895Y35961116D01*
X61122472Y35967635D01*
X61092880Y35991139D01*
X61086226Y35997510D01*
X61056463Y36031806D01*
X61050551Y36038054D01*
X61017937Y36069679D01*
X61011953Y36076662D01*
X60990109Y36107521D01*
X60984015Y36115287D01*
X60959237Y36143839D01*
X60953867Y36151324D01*
X60930917Y36190498D01*
X60926253Y36197727D01*
X60898680Y36236677D01*
X60896190Y36240564D01*
X60826827Y36360703D01*
X60824706Y36364806D01*
X60805933Y36405609D01*
X60801772Y36413670D01*
X60780537Y36450591D01*
X60776702Y36458962D01*
X60763268Y36497285D01*
X60759745Y36506000D01*
X60742762Y36542913D01*
X60739703Y36551594D01*
X60729310Y36592918D01*
X60726700Y36601607D01*
X60720054Y36620567D01*
X60701624Y36652550D01*
X60687466Y36669075D01*
X60681139Y36675804D01*
X60651273Y36704764D01*
X60645284Y36711754D01*
X60621246Y36745711D01*
X60615567Y36752995D01*
X60588487Y36784602D01*
X60583175Y36792106D01*
X60562364Y36828152D01*
X60557381Y36835929D01*
X60532002Y36871781D01*
X60529518Y36875657D01*
X60341268Y37201717D01*
X60339155Y37205801D01*
X60320370Y37246631D01*
X60316208Y37254691D01*
X60294984Y37291593D01*
X60291147Y37299969D01*
X60277715Y37338287D01*
X60274192Y37347002D01*
X60257203Y37383929D01*
X60254148Y37392598D01*
X60243752Y37433934D01*
X60241142Y37442623D01*
X60227057Y37482805D01*
X60224825Y37491739D01*
X60221029Y37516458D01*
X60184753Y37579289D01*
X60165244Y37594935D01*
X60158628Y37601329D01*
X60130848Y37633645D01*
X60124629Y37640248D01*
X60094052Y37669897D01*
X60088064Y37676887D01*
X60064595Y37710040D01*
X60058808Y37717450D01*
X60032327Y37748255D01*
X60026994Y37755762D01*
X60005631Y37792623D01*
X60000730Y37800259D01*
X59974782Y37836914D01*
X59972293Y37840798D01*
X59855712Y38042723D01*
X59853599Y38046807D01*
X59835224Y38086746D01*
X59830980Y38094949D01*
X59762410Y38213716D01*
X59758559Y38222086D01*
X59733007Y38294597D01*
X59714633Y38326423D01*
X59664599Y38384824D01*
X59659284Y38392331D01*
X59562412Y38560120D01*
X59558561Y38568492D01*
X59494170Y38751219D01*
X59491926Y38760138D01*
X59462205Y38951605D01*
X59461639Y38960778D01*
X59467606Y39154440D01*
X59468737Y39163574D01*
X59510184Y39352831D01*
X59512977Y39361609D01*
X59588498Y39540034D01*
X59592846Y39548132D01*
X59699868Y39709646D01*
X59705641Y39716820D01*
X59840509Y39855906D01*
X59847503Y39861899D01*
X59903160Y39901297D01*
X59940316Y39951491D01*
X59940448Y40013940D01*
X59903504Y40064290D01*
X59857353Y40082196D01*
X59701026Y40101044D01*
X59696191Y40101869D01*
X59509591Y40143238D01*
X59504868Y40144531D01*
X59342229Y40197768D01*
X59337638Y40199525D01*
X59162717Y40276492D01*
X59158311Y40278694D01*
X59051541Y40338794D01*
X58990277Y40350902D01*
X58925886Y40315930D01*
X58730178Y40082694D01*
X58725915Y40080051D01*
X58701632Y40085744D01*
X58643281Y40134706D01*
X59166645Y40758427D01*
X59094443Y41583701D01*
X58459830Y42116204D01*
X57634556Y42044002D01*
X57111192Y41420281D01*
X57046854Y41474267D01*
X57044211Y41478530D01*
X57049904Y41502813D01*
X57554792Y42104515D01*
X57561788Y42111359D01*
X57580699Y42126537D01*
X57597836Y42135459D01*
X57621127Y42142248D01*
X57630734Y42144050D01*
X58202689Y42194090D01*
X58260090Y42218686D01*
X58291706Y42272541D01*
X58292412Y42309301D01*
X58292711Y42309344D01*
X58292061Y42313814D01*
X58278653Y42430792D01*
X58278399Y42433812D01*
X58270426Y42582137D01*
X58270467Y42588171D01*
X58286232Y42822668D01*
X58287000Y42828654D01*
X58314475Y42973109D01*
X58315955Y42978943D01*
X58387384Y43202864D01*
X58389564Y43208498D01*
X58450805Y43342165D01*
X58453647Y43347493D01*
X58576588Y43547812D01*
X58580035Y43552735D01*
X58671497Y43667877D01*
X58675527Y43672366D01*
X58842838Y43837445D01*
X58847376Y43841410D01*
X58963730Y43931314D01*
X58968715Y43934706D01*
X59170663Y44054943D01*
X59176017Y44057707D01*
X59310500Y44117150D01*
X59316156Y44119253D01*
X59541024Y44187673D01*
X59546870Y44189072D01*
X59691679Y44214605D01*
X59697681Y44215293D01*
X59932368Y44227909D01*
X59938402Y44227868D01*
X60085108Y44218005D01*
X60091094Y44217237D01*
X60321978Y44173323D01*
X60327823Y44171840D01*
X60467912Y44127154D01*
X60473530Y44124980D01*
X60687213Y44027080D01*
X60692533Y44024242D01*
X60817862Y43947323D01*
X60822785Y43943876D01*
X61006823Y43797687D01*
X61011312Y43793657D01*
X61114585Y43688987D01*
X61118552Y43684449D01*
X61262257Y43498465D01*
X61265658Y43493466D01*
X61340878Y43367128D01*
X61343642Y43361774D01*
X61438659Y43146814D01*
X61440761Y43141155D01*
X61484000Y42999044D01*
X61484795Y42996120D01*
X61512201Y42881625D01*
X61512816Y42878664D01*
X61732652Y41631910D01*
X61733272Y41626956D01*
X61747580Y41435240D01*
X61747325Y41425286D01*
X61723558Y41237043D01*
X61721329Y41227331D01*
X61660957Y41048556D01*
X61655770Y41037724D01*
X61509173Y40807687D01*
X61504955Y40802000D01*
X61452840Y40741251D01*
X61429012Y40683526D01*
X61444077Y40622921D01*
X61489759Y40584052D01*
X61510130Y40575429D01*
X61518234Y40571078D01*
X61679747Y40464056D01*
X61686921Y40458283D01*
X61826010Y40323412D01*
X61831999Y40316422D01*
X61945281Y40156394D01*
X61947765Y40152518D01*
X61993232Y40073765D01*
X61995355Y40069662D01*
X62015301Y40026307D01*
X62019230Y40018652D01*
X62031119Y39997755D01*
X62036417Y39989428D01*
X62036890Y39988760D01*
X62133761Y39820974D01*
X62137612Y39812604D01*
X62187236Y39671782D01*
X62211936Y39633227D01*
X62240460Y39605568D01*
X62246444Y39598583D01*
X62269912Y39565431D01*
X62275699Y39558021D01*
X62302182Y39527213D01*
X62307506Y39519719D01*
X62328870Y39482857D01*
X62333768Y39475225D01*
X62359728Y39438551D01*
X62362209Y39434678D01*
X62413198Y39346362D01*
X62469642Y39301018D01*
X62516189Y39286295D01*
X62524677Y39282718D01*
X62537807Y39275696D01*
X62550283Y39270084D01*
X62564256Y39264917D01*
X62572566Y39260937D01*
X62631174Y39225885D01*
X62635339Y39223528D01*
X62697542Y39190258D01*
X62701535Y39187879D01*
X62786813Y39131574D01*
X62790550Y39128851D01*
X62825574Y39100762D01*
X62832902Y39095412D01*
X62868427Y39071872D01*
X62875591Y39066108D01*
X62904775Y39037809D01*
X62911824Y39031590D01*
X62943499Y39006187D01*
X62950114Y38999794D01*
X62977875Y38967499D01*
X62984096Y38960894D01*
X63014683Y38931235D01*
X63020681Y38924234D01*
X63044150Y38891081D01*
X63049935Y38883672D01*
X63076414Y38852868D01*
X63081741Y38845368D01*
X63103095Y38808522D01*
X63107996Y38800886D01*
X63133957Y38764212D01*
X63136441Y38760336D01*
X63300801Y38475653D01*
X63302917Y38471563D01*
X63321282Y38431645D01*
X63325527Y38423440D01*
X63346320Y38387427D01*
X63350172Y38379052D01*
X63363991Y38339838D01*
X63367459Y38331279D01*
X63384864Y38293448D01*
X63387922Y38284768D01*
X63398077Y38244394D01*
X63400741Y38235552D01*
X63414563Y38196328D01*
X63416808Y38187401D01*
X63423188Y38146297D01*
X63425025Y38137245D01*
X63435179Y38096872D01*
X63436592Y38087769D01*
X63439154Y38046234D01*
X63440147Y38037053D01*
X63446529Y37995937D01*
X63447095Y37986763D01*
X63445813Y37945172D01*
X63445956Y37935935D01*
X63448518Y37894403D01*
X63448234Y37885186D01*
X63443121Y37843889D01*
X63442410Y37834683D01*
X63441128Y37793101D01*
X63439997Y37783969D01*
X63431098Y37743335D01*
X63429541Y37734229D01*
X63424426Y37692918D01*
X63422456Y37683922D01*
X63416103Y37663954D01*
X63424479Y37584184D01*
X63427242Y37579328D01*
X63431037Y37570941D01*
X63443380Y37535189D01*
X63447059Y37526027D01*
X63462856Y37491693D01*
X63465913Y37483017D01*
X63476989Y37438981D01*
X63479444Y37430737D01*
X63494269Y37387798D01*
X63496456Y37378865D01*
X63502019Y37341458D01*
X63503952Y37331773D01*
X63505491Y37325655D01*
X63532861Y37278255D01*
X63539425Y37271891D01*
X63546468Y37265677D01*
X63578148Y37240269D01*
X63584779Y37233860D01*
X63612529Y37201578D01*
X63618749Y37194973D01*
X63649341Y37165309D01*
X63655330Y37158320D01*
X63678807Y37125154D01*
X63684594Y37117744D01*
X63711067Y37086947D01*
X63716401Y37079439D01*
X63716585Y37079121D01*
X63716671Y37079058D01*
X63719078Y37075670D01*
X63720210Y37076474D01*
X63781715Y37031573D01*
X63801607Y37027217D01*
X63810385Y37024424D01*
X63988810Y36948903D01*
X63996908Y36944555D01*
X64158422Y36837533D01*
X64165596Y36831760D01*
X64304682Y36696892D01*
X64310678Y36689893D01*
X64423948Y36529880D01*
X64426442Y36525988D01*
X64662461Y36117190D01*
X64664589Y36113077D01*
X64682947Y36073175D01*
X64687190Y36064972D01*
X64707990Y36028945D01*
X64711839Y36020578D01*
X64725663Y35981350D01*
X64729131Y35972791D01*
X64746529Y35934974D01*
X64749589Y35926292D01*
X64759744Y35885915D01*
X64762409Y35877070D01*
X64776230Y35837850D01*
X64778476Y35828922D01*
X64784856Y35787817D01*
X64786694Y35778763D01*
X64796845Y35738405D01*
X64798258Y35729302D01*
X64800820Y35687760D01*
X64801813Y35678577D01*
X64808195Y35637462D01*
X64808762Y35628282D01*
X64807480Y35586688D01*
X64807623Y35577452D01*
X64810184Y35535932D01*
X64809900Y35526716D01*
X64804788Y35485429D01*
X64804077Y35476221D01*
X64802795Y35434627D01*
X64801664Y35425489D01*
X64792763Y35384846D01*
X64791206Y35375743D01*
X64786093Y35334452D01*
X64784121Y35325448D01*
X64771509Y35285803D01*
X64769118Y35276881D01*
X64760215Y35236227D01*
X64757427Y35227463D01*
X64741208Y35189147D01*
X64738003Y35180481D01*
X64725388Y35140823D01*
X64721800Y35132346D01*
X64702111Y35095681D01*
X64698121Y35087350D01*
X64681902Y35049031D01*
X64677552Y35040929D01*
X64654569Y35006244D01*
X64649829Y34998319D01*
X64630140Y34961655D01*
X64625056Y34953983D01*
X64598964Y34921558D01*
X64593512Y34914102D01*
X64570535Y34879426D01*
X64564759Y34872248D01*
X64535798Y34842381D01*
X64529682Y34835461D01*
X64503593Y34803040D01*
X64497186Y34796433D01*
X64465583Y34769357D01*
X64458853Y34763030D01*
X64429883Y34733154D01*
X64422895Y34727167D01*
X64388936Y34703126D01*
X64381655Y34697450D01*
X64350055Y34670378D01*
X64342539Y34665058D01*
X64306515Y34644260D01*
X64298736Y34639276D01*
X64262888Y34613899D01*
X64258979Y34611394D01*
X63396962Y34113709D01*
X63392878Y34111596D01*
X63249436Y34045602D01*
X63203690Y34003090D01*
X63192085Y33941728D01*
X63219148Y33885447D01*
X63260124Y33859719D01*
X63321346Y33839679D01*
X63330291Y33835743D01*
X63494710Y33743193D01*
X63498854Y33740585D01*
X63834132Y33505821D01*
X63838013Y33502810D01*
X63981209Y33379967D01*
X63987968Y33372907D01*
X64102927Y33226425D01*
X64108185Y33218171D01*
X64192358Y33052077D01*
X64195902Y33042965D01*
X64246718Y32861269D01*
X64247806Y32856486D01*
X64492529Y31468585D01*
X64493141Y31463738D01*
X64507534Y31275607D01*
X64507320Y31265838D01*
X64485032Y31080970D01*
X64482913Y31071415D01*
X64424985Y30894446D01*
X64421050Y30885504D01*
X64328500Y30721085D01*
X64325892Y30716941D01*
X64091128Y30381663D01*
X64088117Y30377782D01*
X63965274Y30234586D01*
X63958214Y30227827D01*
X63811732Y30112868D01*
X63803478Y30107610D01*
X63637384Y30023437D01*
X63628272Y30019893D01*
X63446576Y29969077D01*
X63441793Y29967989D01*
X63038700Y29896914D01*
X63033853Y29896302D01*
X62845722Y29881909D01*
X62835953Y29882123D01*
X62651085Y29904411D01*
X62641530Y29906530D01*
X62464561Y29964458D01*
X62455619Y29968393D01*
X62429548Y29983068D01*
X62368284Y29995177D01*
X62301162Y29956802D01*
X62243372Y29881490D01*
X62238132Y29875669D01*
X62073091Y29719051D01*
X62067008Y29714125D01*
X61877877Y29584139D01*
X61874566Y29582050D01*
X61011929Y29084007D01*
X61008478Y29082191D01*
X60801327Y28983384D01*
X60794027Y28980583D01*
X60575872Y28915963D01*
X60568207Y28914334D01*
X60418702Y28894651D01*
X60362427Y28867575D01*
X60332135Y28804223D01*
X60316441Y28624833D01*
X60314932Y28616272D01*
X60260796Y28414232D01*
X60257826Y28406073D01*
X60169428Y28216504D01*
X60165083Y28208977D01*
X60045110Y28037637D01*
X60039522Y28030978D01*
X59891623Y27883079D01*
X59884964Y27877491D01*
X59711831Y27756263D01*
X59708172Y27753931D01*
X59278913Y27506098D01*
X59275074Y27504100D01*
X59083516Y27414775D01*
X59075357Y27411805D01*
X58873317Y27357669D01*
X58864745Y27356158D01*
X58656395Y27337930D01*
X58647685Y27337930D01*
X58647685Y26184039D01*
X58673748Y26187332D01*
X58680003Y26187726D01*
X58987679Y26187726D01*
X58993934Y26187332D01*
X59299171Y26148772D01*
X59305341Y26147595D01*
X59603334Y26071083D01*
X59609306Y26069143D01*
X59895371Y25955882D01*
X59901039Y25953215D01*
X60170662Y25804989D01*
X60175944Y25801636D01*
X60424865Y25620785D01*
X60429688Y25616794D01*
X60653964Y25406186D01*
X60658274Y25401596D01*
X60696155Y25355805D01*
X60764775Y25319903D01*
X72901799Y24292924D01*
X72901799Y28517859D01*
X72562469Y28525833D01*
X72556848Y28526282D01*
X72220570Y28572334D01*
X72215030Y28573413D01*
X71886048Y28656960D01*
X71880692Y28658646D01*
X71563515Y28778503D01*
X71557711Y28781132D01*
X71336968Y28898590D01*
X71330923Y28902383D01*
X71129448Y29049839D01*
X71124005Y29054453D01*
X70945570Y29229076D01*
X70940842Y29234414D01*
X70789066Y29432665D01*
X70785150Y29438615D01*
X70663133Y29656450D01*
X70660103Y29662900D01*
X70570327Y29895883D01*
X70568250Y29902682D01*
X70512545Y30146074D01*
X70511454Y30153125D01*
X70490954Y30401950D01*
X70490878Y30409080D01*
X70505999Y30658289D01*
X70506939Y30665367D01*
X70557372Y30909883D01*
X70559308Y30916751D01*
X70644028Y31151608D01*
X70646921Y31158129D01*
X70764200Y31378534D01*
X70767993Y31384579D01*
X70915449Y31586054D01*
X70920063Y31591497D01*
X71094686Y31769932D01*
X71100024Y31774660D01*
X71263614Y31899901D01*
X71298867Y31951449D01*
X71293669Y32021105D01*
X71207546Y32208266D01*
X71205035Y32214940D01*
X71134009Y32454295D01*
X71132475Y32461254D01*
X71096233Y32708292D01*
X71095705Y32715386D01*
X71094990Y32965079D01*
X71095477Y32972167D01*
X71130303Y33219420D01*
X71131796Y33226378D01*
X71201454Y33466147D01*
X71203925Y33472830D01*
X71306993Y33700239D01*
X71310389Y33706501D01*
X71444777Y33916935D01*
X71449027Y33922646D01*
X71611994Y34111810D01*
X71617013Y34116858D01*
X71805239Y34280903D01*
X71810936Y34285193D01*
X72020579Y34420772D01*
X72026837Y34424213D01*
X72253642Y34528578D01*
X72260322Y34531091D01*
X72499677Y34602117D01*
X72506636Y34603651D01*
X72753674Y34639893D01*
X72760767Y34640421D01*
X73010835Y34641138D01*
X73017188Y34640750D01*
X73353610Y34598533D01*
X73359146Y34597519D01*
X73689043Y34517682D01*
X73694440Y34516049D01*
X74013294Y34399644D01*
X74018439Y34397431D01*
X74322205Y34245928D01*
X74327086Y34243140D01*
X74611890Y34058475D01*
X74616424Y34055159D01*
X74878692Y33839648D01*
X74882810Y33835857D01*
X75119193Y33592249D01*
X75122881Y33587994D01*
X75330386Y33319378D01*
X75333566Y33314744D01*
X75509575Y33024513D01*
X75512221Y33019538D01*
X75654497Y32711383D01*
X75656573Y32706127D01*
X75763321Y32383943D01*
X75764792Y32378491D01*
X75834666Y32046330D01*
X75835509Y32040793D01*
X75867621Y31702855D01*
X75867836Y31697255D01*
X75861771Y31357868D01*
X75861355Y31352259D01*
X75817195Y31015705D01*
X75816152Y31010187D01*
X75734458Y30680738D01*
X75732794Y30675347D01*
X75614601Y30357168D01*
X75612347Y30352010D01*
X75459142Y30049111D01*
X75456332Y30044255D01*
X75270062Y29760488D01*
X75266722Y29755975D01*
X75049743Y29494932D01*
X75045918Y29490824D01*
X74800981Y29255814D01*
X74796716Y29252160D01*
X74526936Y29046170D01*
X74522283Y29043015D01*
X74231048Y28868632D01*
X74226088Y28866029D01*
X73917111Y28725479D01*
X73911865Y28723441D01*
X73589055Y28618499D01*
X73583636Y28617069D01*
X73251060Y28549062D01*
X73245517Y28548250D01*
X72907422Y28518044D01*
X72901799Y28517859D01*
X72901799Y24292924D01*
X81176066Y23592793D01*
X81176066Y33418665D01*
X80926411Y33421523D01*
X80919318Y33422112D01*
X80672591Y33460473D01*
X80665662Y33462064D01*
X80426907Y33535148D01*
X80420267Y33537711D01*
X80194348Y33644027D01*
X80188137Y33647512D01*
X79979652Y33784896D01*
X79974003Y33789225D01*
X79787191Y33954881D01*
X79782208Y33959979D01*
X79620875Y34150532D01*
X79616672Y34156282D01*
X79484097Y34367861D01*
X79480758Y34374146D01*
X79379643Y34602439D01*
X79377231Y34609137D01*
X79309634Y34849500D01*
X79308201Y34856470D01*
X79275426Y35104553D01*
X79274998Y35110561D01*
X79270755Y35501143D01*
X79270942Y35506048D01*
X79305051Y35895721D01*
X79305719Y35900587D01*
X79377862Y36285057D01*
X79378997Y36289806D01*
X79488479Y36665358D01*
X79490080Y36669991D01*
X79635840Y37032990D01*
X79637887Y37037443D01*
X79818526Y37384412D01*
X79820996Y37388636D01*
X80034780Y37716236D01*
X80037654Y37720201D01*
X80282509Y38025256D01*
X80285767Y38028930D01*
X80559348Y38308520D01*
X80562938Y38311846D01*
X80862612Y38563279D01*
X80866511Y38566237D01*
X81189390Y38787090D01*
X81193554Y38789647D01*
X81536514Y38977782D01*
X81540936Y38979932D01*
X81900678Y39133542D01*
X81905277Y39135244D01*
X81915986Y39138620D01*
X81974723Y39188016D01*
X82423282Y40054408D01*
X82425050Y40057544D01*
X82426048Y40059175D01*
X82432149Y40070796D01*
X82432210Y40070933D01*
X82435553Y40077214D01*
X82496181Y40173801D01*
X82496782Y40174771D01*
X82556295Y40272027D01*
X82560433Y40277818D01*
X82560530Y40277935D01*
X82568219Y40288564D01*
X82568302Y40288696D01*
X82572500Y40294430D01*
X82646241Y40381387D01*
X82646974Y40382261D01*
X82719734Y40470074D01*
X82724666Y40475228D01*
X82724760Y40475313D01*
X82733899Y40484756D01*
X82733987Y40484860D01*
X82738968Y40489948D01*
X82824366Y40565553D01*
X82825216Y40566315D01*
X82909701Y40642851D01*
X82915314Y40647249D01*
X82915433Y40647329D01*
X82925806Y40655363D01*
X82925912Y40655457D01*
X82931570Y40659788D01*
X83026943Y40722527D01*
X83027891Y40723159D01*
X83122205Y40786754D01*
X83160493Y40836089D01*
X83165123Y40884950D01*
X83130597Y41108172D01*
X83130013Y41115282D01*
X83127353Y41364931D01*
X83127787Y41372061D01*
X83160682Y41619547D01*
X83162124Y41626537D01*
X83229910Y41866833D01*
X83232326Y41873529D01*
X83333624Y42101744D01*
X83336969Y42108029D01*
X83469709Y42319496D01*
X83473922Y42325252D01*
X83635409Y42515679D01*
X83640382Y42520759D01*
X83827334Y42686275D01*
X83832979Y42690596D01*
X84041581Y42827819D01*
X84047793Y42831297D01*
X84273793Y42937432D01*
X84280442Y42939993D01*
X84519249Y43012885D01*
X84526184Y43014471D01*
X84772929Y43052636D01*
X84780039Y43053220D01*
X85029688Y43055880D01*
X85036818Y43055446D01*
X85284304Y43022551D01*
X85291294Y43021109D01*
X85531590Y42953323D01*
X85538286Y42950907D01*
X85766501Y42849609D01*
X85772786Y42846264D01*
X85984253Y42713524D01*
X85990009Y42709311D01*
X86180436Y42547824D01*
X86185516Y42542851D01*
X86351032Y42355899D01*
X86355353Y42350254D01*
X86492576Y42141652D01*
X86496054Y42135440D01*
X86602391Y41909010D01*
X86604668Y41903261D01*
X86712319Y41573221D01*
X86713674Y41568186D01*
X86786335Y41228238D01*
X86787160Y41223070D01*
X86823888Y40877402D01*
X86824168Y40872168D01*
X86824563Y40524552D01*
X86824295Y40519324D01*
X86788351Y40173567D01*
X86787538Y40168399D01*
X86715650Y39828296D01*
X86714302Y39823241D01*
X86607253Y39492499D01*
X86605392Y39487634D01*
X86464362Y39169905D01*
X86461980Y39165218D01*
X86288521Y38863990D01*
X86285677Y38859598D01*
X86081661Y38578123D01*
X86078387Y38574071D01*
X85846066Y38315462D01*
X85842378Y38311766D01*
X85584296Y38078856D01*
X85580252Y38075574D01*
X85394495Y37940292D01*
X85364562Y37905434D01*
X84769164Y36755421D01*
X84767418Y36752323D01*
X84755434Y36732738D01*
X84750252Y36723126D01*
X84741235Y36703965D01*
X84737750Y36697753D01*
X84686520Y36620011D01*
X84684722Y36617180D01*
X84636163Y36537822D01*
X84632019Y36532023D01*
X84618513Y36515723D01*
X84612014Y36506946D01*
X84600370Y36489275D01*
X84596030Y36483615D01*
X84534290Y36413991D01*
X84532108Y36411445D01*
X84472726Y36339777D01*
X84467793Y36334622D01*
X84452114Y36320418D01*
X84444433Y36312655D01*
X84430382Y36296810D01*
X84425284Y36291827D01*
X84354238Y36231676D01*
X84351717Y36229468D01*
X84282747Y36166988D01*
X84277151Y36162602D01*
X84259599Y36150767D01*
X84250891Y36144175D01*
X84234747Y36130507D01*
X84228974Y36126288D01*
X84150102Y36076867D01*
X84147292Y36075040D01*
X84070131Y36023011D01*
X84063959Y36019462D01*
X84044906Y36010247D01*
X84035347Y36004961D01*
X84017408Y35993721D01*
X84011109Y35990374D01*
X83925978Y35952668D01*
X83922936Y35951259D01*
X83839177Y35910750D01*
X83832572Y35908119D01*
X83812393Y35901707D01*
X83802176Y35897834D01*
X83782821Y35889261D01*
X83776128Y35886851D01*
X83686501Y35861645D01*
X83683291Y35860683D01*
X83594620Y35832507D01*
X83587679Y35830836D01*
X83566810Y35827364D01*
X83556149Y35824986D01*
X83535756Y35819251D01*
X83528798Y35817820D01*
X83436474Y35805623D01*
X83433159Y35805128D01*
X83341385Y35789859D01*
X83334305Y35789195D01*
X83313142Y35788729D01*
X83302244Y35787891D01*
X83280670Y35785040D01*
X83274802Y35784086D01*
X83178879Y35765554D01*
X83154113Y35757299D01*
X83075418Y35719027D01*
X83053634Y35704644D01*
X82987528Y35647311D01*
X82970208Y35627779D01*
X82921191Y35555286D01*
X82909516Y35531936D01*
X82880933Y35449228D01*
X82875700Y35423654D01*
X82868774Y35326206D01*
X82868529Y35320262D01*
X82865664Y35070004D01*
X82865075Y35062911D01*
X82826714Y34816184D01*
X82825123Y34809255D01*
X82752039Y34570500D01*
X82749476Y34563860D01*
X82643160Y34337941D01*
X82639675Y34331730D01*
X82502291Y34123245D01*
X82497962Y34117596D01*
X82332306Y33930784D01*
X82327208Y33925801D01*
X82136655Y33764468D01*
X82130905Y33760265D01*
X81919326Y33627690D01*
X81913041Y33624351D01*
X81684748Y33523236D01*
X81678050Y33520824D01*
X81437687Y33453227D01*
X81430717Y33451794D01*
X81183188Y33419092D01*
X81176066Y33418665D01*
X81176066Y23592793D01*
X91582061Y22712287D01*
X91642821Y22726716D01*
X91683172Y22774378D01*
X91690489Y22812521D01*
X91668374Y26554455D01*
X91668374Y26554578D01*
X91668373Y26554656D01*
X91668365Y26564650D01*
X91668366Y26565143D01*
X91685317Y30455992D01*
X91685320Y30456350D01*
X91685414Y30466204D01*
X91685420Y30466682D01*
X91742313Y34357010D01*
X91742322Y34357525D01*
X91742517Y34367388D01*
X91742525Y34367757D01*
X91839364Y38257640D01*
X91839663Y38267603D01*
X91839680Y38268118D01*
X91976440Y42156547D01*
X91976457Y42157000D01*
X91976852Y42166823D01*
X91976861Y42167036D01*
X92077168Y44373797D01*
X92060382Y44433949D01*
X91982568Y44478197D01*
X75847097Y45333866D01*
X75786820Y45317535D01*
X75747986Y45268628D01*
X75755199Y45184008D01*
X78282880Y40805935D01*
X78286568Y40788288D01*
X78284353Y40782174D01*
X75170302Y36065729D01*
X75163245Y36060142D01*
X75151807Y36069113D01*
X69639023Y45617534D01*
X69592472Y45659162D01*
X69557717Y45667393D01*
X50572383Y46674192D01*
X50512106Y46657861D01*
X50473272Y46608954D01*
X50471027Y46546544D01*
X50496377Y46503623D01*
X50988677Y46011323D01*
X50990939Y46006846D01*
X50983151Y45983151D01*
X49011323Y44011323D01*
X49006846Y44009061D01*
X48983151Y44016849D01*
X47011323Y45988677D01*
X47009061Y45993154D01*
X47016849Y46016849D01*
X47661459Y46661459D01*
X47689621Y46717198D01*
X47679223Y46778776D01*
X47634319Y46822177D01*
X47596045Y46832028D01*
X6801786Y48995360D01*
X6741509Y48979029D01*
X6702675Y48930122D01*
X6700430Y48867712D01*
X6723827Y48826800D01*
X6748405Y48800804D01*
X6752921Y48795287D01*
X6896885Y48591305D01*
X6900572Y48585198D01*
X7014044Y48362797D01*
X7016821Y48356237D01*
X7097488Y48119947D01*
X7099301Y48113062D01*
X7145522Y47867691D01*
X7146337Y47860620D01*
X7157166Y47611178D01*
X7156966Y47604045D01*
X7132186Y47355608D01*
X7130975Y47348586D01*
X7071090Y47106199D01*
X7068888Y47099412D01*
X6974449Y46866369D01*
X6972989Y46863107D01*
X5178513Y43208288D01*
X5176823Y43205136D01*
X5050178Y42987902D01*
X5046156Y42982013D01*
X4890995Y42786412D01*
X4886174Y42781153D01*
X4704753Y42609623D01*
X4699236Y42605107D01*
X4495254Y42461143D01*
X4489147Y42457456D01*
X4266746Y42343984D01*
X4260186Y42341207D01*
X4023895Y42260539D01*
X4017011Y42258726D01*
X3771641Y42212506D01*
X3764570Y42211691D01*
X3515127Y42200862D01*
X3507994Y42201062D01*
X3259557Y42225842D01*
X3252535Y42227053D01*
X3010149Y42286938D01*
X3003362Y42289140D01*
X2771967Y42382910D01*
X2765574Y42386049D01*
X2549876Y42511798D01*
X2543987Y42515820D01*
X2348386Y42670981D01*
X2343127Y42675802D01*
X2171597Y42857223D01*
X2167081Y42862740D01*
X2023117Y43066722D01*
X2019430Y43072829D01*
X1905958Y43295230D01*
X1903181Y43301790D01*
X1822513Y43538081D01*
X1820700Y43544965D01*
X1774480Y43790335D01*
X1773665Y43797406D01*
X1762836Y44046849D01*
X1763036Y44053982D01*
X1787816Y44302419D01*
X1789027Y44309441D01*
X1848912Y44551827D01*
X1851114Y44558614D01*
X1945552Y44791658D01*
X1947011Y44794919D01*
X3741487Y48449738D01*
X3743177Y48452890D01*
X3869822Y48670125D01*
X3873844Y48676014D01*
X4029005Y48871615D01*
X4033826Y48876874D01*
X4130081Y48967881D01*
X4159794Y49022809D01*
X4151125Y49084654D01*
X4107455Y49129296D01*
X4066676Y49140403D01*
X1059781Y49299860D01*
X1054485Y49300000D01*
X-13303987Y49300000D01*
X-13312534Y49302809D01*
X-13311350Y49317299D01*
X-13016884Y49906233D01*
X-13007794Y49968018D01*
X-13037131Y50023147D01*
X-13101030Y50050813D01*
X-30888675Y50994096D01*
X-30948952Y50977765D01*
X-30987786Y50928858D01*
X-30993816Y50888690D01*
G37*
G04 --- BOARD END --- *

M02*
