G04 --- HEADER BEGIN --- *
G04 #@! TF.GenerationSoftware,LibrePCB,LibrePCB,0.1.2*
G04 #@! TF.CreationDate,2019-01-02T03:04:05*
G04 #@! TF.ProjectId,test_project,7c04f9d5-7366-4c4b-9e17-852ed57b3966,v1*
G04 #@! TF.Part,Single*
G04 #@! TF.SameCoordinates*
G04 #@! TF.FileFunction,Copper,L1,Top*
G04 #@! TF.FilePolarity,Positive*
%FSLAX66Y66*%
%MOMM*%
G01*
G75*
G04 --- HEADER END --- *
G04 --- APERTURE LIST BEGIN --- *
G04 #@! TA.AperFunction,ComponentPad*
%AMROTATEDOBROUND10*1,1,1.27,0.110267,-0.625353*1,1,1.27,-0.110267,0.625353*20,1,1.27,0.110267,-0.625353,-0.110267,0.625353,0*%
%ADD10ROTATEDOBROUND10*%
%AMROTATEDRECT11*20,1,1.27,-1.27,0.0,1.27,0.0,120.0*%
%ADD11ROTATEDRECT11*%
G04 #@! TA.AperFunction,SMDPad,CuDef*
%AMROTATEDOCTAGON12*4,1,8,1.0,0.207107,0.707107,0.5,-0.707107,0.5,-1.0,0.207107,-1.0,-0.207107,-0.707107,-0.5,0.707107,-0.5,1.0,-0.207107,1.0,0.207107,100.0*%
%ADD12ROTATEDOCTAGON12*%
G04 #@! TA.AperFunction,ComponentPad*
%AMROTATEDOBROUND13*1,1,1.27,0.3175,-0.549926*1,1,1.27,-0.3175,0.549926*20,1,1.27,0.3175,-0.549926,-0.3175,0.549926,0*%
%ADD13ROTATEDOBROUND13*%
%AMROTATEDOCTAGON14*4,1,8,1.5,0.414214,0.914214,1.0,-0.914214,1.0,-1.5,0.414214,-1.5,-0.414214,-0.914214,-1.0,0.914214,-1.0,1.5,-0.414214,1.5,0.414214,50.0*%
%ADD14ROTATEDOCTAGON14*%
G04 #@! TA.AperFunction,Conductor*
%ADD15C,0.01*%
G04 #@! TA.AperFunction,ComponentPad*
%AMROTATEDOBROUND16*1,1,1.27,-0.596705,-0.217183*1,1,1.27,0.596705,0.217183*20,1,1.27,-0.596705,-0.217183,0.596705,0.217183,0*%
%ADD16ROTATEDOBROUND16*%
%ADD17R,2.54X1.27*%
G04 #@! TA.AperFunction,SMDPad,CuDef*
%AMROTATEDOCTAGON18*4,1,8,1.0,0.207107,0.707107,0.5,-0.707107,0.5,-1.0,0.207107,-1.0,-0.207107,-0.707107,-0.5,0.707107,-0.5,1.0,-0.207107,1.0,0.207107,20.0*%
%ADD18ROTATEDOCTAGON18*%
%ADD19R,2.0X1.0*%
G04 #@! TA.AperFunction,ComponentPad*
%ADD20O,2.54X1.27*%
%AMROTATEDOCTAGON21*4,1,8,1.5,0.414214,0.914214,1.0,-0.914214,1.0,-1.5,0.414214,-1.5,-0.414214,-0.914214,-1.0,0.914214,-1.0,1.5,-0.414214,1.5,0.414214,70.0*%
%ADD21ROTATEDOCTAGON21*%
G04 #@! TA.AperFunction,SMDPad,CuDef*
%ADD22O,1.0X2.0*%
G04 #@! TA.AperFunction,Conductor*
%ADD23C,0.2*%
G04 #@! TA.AperFunction,NonConductor*
%ADD24C,0.2*%
G04 #@! TA.AperFunction,ViaPad*
%ADD25C,2.0*%
G04 #@! TA.AperFunction,Conductor*
%ADD26C,0.5*%
G04 #@! TD*
G04 --- APERTURE LIST END --- *
G04 --- BOARD BEGIN --- *
D10*
G04 #@! TO.N,N/C*
G04 #@! TO.C,D2*
G04 #@! TO.P,D2,4,4*
X60012659Y41970886D03*
D11*
G04 #@! TO.N,N3*
G04 #@! TO.P,D2,2,2*
X55613250Y39430886D03*
D12*
G04 #@! TO.N,N/C*
G04 #@! TO.P,D2,8,8*
X65092659Y33172068D03*
D13*
G04 #@! TO.N,N3*
G04 #@! TO.P,D2,1,1*
X53413546Y38160886D03*
D14*
G04 #@! TO.N,GND*
G04 #@! TO.P,D2,3,3*
X57812955Y40700886D03*
D15*
G04 #@! TD.P*
G04 #@! TA.AperFunction,Conductor*
G04 #@! TO.N,*
G36*
X59082955Y38501182D02*
X61622955Y34101773D01*
X58153250Y35031477D01*
X59082955Y38501182D01*
G37*
D16*
G04 #@! TD.AperFunction*
G04 #@! TO.N,N3*
G04 #@! TO.C,D1*
G04 #@! TO.P,D1,4,4*
X-620000Y39140000D03*
D17*
G04 #@! TO.N,N/C*
G04 #@! TO.P,D1,2,2*
X-620000Y34060000D03*
D18*
G04 #@! TO.N,FOO*
G04 #@! TO.P,D1,7,6*
X-10780000Y36600000D03*
D19*
G04 #@! TO.N,N/C*
G04 #@! TO.P,D1,5,5*
X-10780000Y31520000D03*
D20*
G04 #@! TO.N,FOO*
G04 #@! TO.P,D1,1,1*
X-620000Y31520000D03*
D21*
G04 #@! TO.N,VCC*
G04 #@! TO.P,D1,3,3*
X-620000Y36600000D03*
D22*
G04 #@! TO.N,FOO*
G04 #@! TO.P,D1,6,6*
X-10780000Y34060000D03*
D23*
G04 #@! TD.P*
G04 #@! TO.N,*
X-3160000Y31520000D02*
X-8240000Y31520000D01*
X-5700000Y34060000D01*
X-3160000Y31520000D01*
D24*
X-7683333Y38663333D02*
X-8016666Y38663333D01*
X-8016666Y38140000D02*
X-8016666Y39140000D01*
X-7539999Y39140000D01*
X-6949999Y38140000D02*
X-7044443Y38187778D01*
X-7092221Y38235556D01*
X-7139999Y38330000D01*
X-7139999Y38616667D01*
X-7092221Y38711111D01*
X-7044443Y38758889D01*
X-6949999Y38806667D01*
X-6806666Y38806667D01*
X-6711110Y38758889D01*
X-6663332Y38711111D01*
X-6616666Y38616667D01*
X-6616666Y38330000D01*
X-6663332Y38235556D01*
X-6711110Y38187778D01*
X-6806666Y38140000D01*
X-6949999Y38140000D01*
X-6026666Y38140000D02*
X-6121110Y38187778D01*
X-6168888Y38235556D01*
X-6216666Y38330000D01*
X-6216666Y38616667D01*
X-6168888Y38711111D01*
X-6121110Y38758889D01*
X-6026666Y38806667D01*
X-5883333Y38806667D01*
X-5787777Y38758889D01*
X-5739999Y38711111D01*
X-5693333Y38616667D01*
X-5693333Y38330000D01*
X-5739999Y38235556D01*
X-5787777Y38187778D01*
X-5883333Y38140000D01*
X-6026666Y38140000D01*
X-4960000Y38663333D02*
X-4816666Y38616667D01*
X-4770000Y38568889D01*
X-4722222Y38473333D01*
X-4722222Y38330000D01*
X-4770000Y38235556D01*
X-4816666Y38187778D01*
X-4912222Y38140000D01*
X-5293333Y38140000D01*
X-5293333Y39140000D01*
X-4960000Y39140000D01*
X-4864444Y39092222D01*
X-4816666Y39044444D01*
X-4770000Y38950000D01*
X-4770000Y38854444D01*
X-4816666Y38758889D01*
X-4864444Y38711111D01*
X-4960000Y38663333D01*
X-5293333Y38663333D01*
X-3845555Y38140000D02*
X-3845555Y38663333D01*
X-3893333Y38758889D01*
X-3988889Y38806667D01*
X-4178889Y38806667D01*
X-4274444Y38758889D01*
X-3845555Y38187778D02*
X-3941111Y38140000D01*
X-4178889Y38140000D01*
X-4274444Y38187778D01*
X-4322222Y38283333D01*
X-4322222Y38377778D01*
X-4274444Y38473333D01*
X-4178889Y38521111D01*
X-3941111Y38521111D01*
X-3845555Y38568889D01*
X-3445555Y38140000D02*
X-3445555Y38806667D01*
X-3445555Y38616667D02*
X-3397777Y38711111D01*
X-3349999Y38758889D01*
X-3255555Y38806667D01*
X-3159999Y38806667D01*
D25*
G04 #@! TD.C*
G04 #@! TO.N,GND*
X16000000Y46000000D03*
D26*
G04 #@! TO.N,N3*
X23839114Y38160886D02*
X23000000Y39000000D01*
X19140000Y39140000D02*
X22860000Y39140000D01*
X-620000Y39140000D02*
X19140000Y39140000D01*
X53413546Y38160886D02*
X23839114Y38160886D01*
X22860000Y39140000D02*
X23000000Y39000000D01*
D25*
G04 #@! TO.N,GND*
X20000000Y46000000D03*
X12000000Y46000000D03*
D15*
G04 #@! TA.AperFunction,Conductor*
G04 #@! TO.N,FOO*
G36*
X-56595993Y38430523D02*
X-56595991Y38427424D01*
X-56575628Y37155731D01*
X-56575531Y37152634D01*
X-56515771Y35882139D01*
X-56515577Y35879046D01*
X-56416483Y34611084D01*
X-56416194Y34607998D01*
X-56277853Y33343678D01*
X-56277468Y33340603D01*
X-56100015Y32081173D01*
X-56099535Y32078111D01*
X-55883143Y30824797D01*
X-55882569Y30821752D01*
X-55627448Y29575759D01*
X-55626779Y29572733D01*
X-55333160Y28335195D01*
X-55332398Y28332191D01*
X-55000589Y27104406D01*
X-54999734Y27101427D01*
X-54630025Y25884471D01*
X-54629078Y25881520D01*
X-54221848Y24676636D01*
X-54220811Y24673716D01*
X-53776425Y23481983D01*
X-53775297Y23479097D01*
X-53294232Y22301795D01*
X-53293016Y22298944D01*
X-52775646Y21136992D01*
X-52774341Y21134181D01*
X-52221251Y19988893D01*
X-52219861Y19986124D01*
X-51631553Y18858537D01*
X-51630077Y18855812D01*
X-51007083Y17746947D01*
X-51005523Y17744269D01*
X-50348489Y16655272D01*
X-50346847Y16652643D01*
X-49656384Y15584531D01*
X-49654662Y15581955D01*
X-48931422Y14535733D01*
X-48929620Y14533212D01*
X-48174312Y13509912D01*
X-48172433Y13507447D01*
X-47385778Y12508039D01*
X-47383824Y12505634D01*
X-46566611Y11531124D01*
X-46564583Y11528781D01*
X-45717498Y10579984D01*
X-45715399Y10577704D01*
X-44839358Y9655651D01*
X-44837189Y9653438D01*
X-43933017Y8758994D01*
X-43930780Y8756849D01*
X-42999308Y7890834D01*
X-42997006Y7888759D01*
X-42039141Y7052018D01*
X-42036776Y7050015D01*
X-41053428Y6243346D01*
X-41051001Y6241418D01*
X-40043194Y5465657D01*
X-40040710Y5463805D01*
X-39009252Y4719575D01*
X-39006711Y4717801D01*
X-37952744Y4005931D01*
X-37950149Y4004237D01*
X-36874644Y3325375D01*
X-36871998Y3323761D01*
X-35775929Y2678524D01*
X-35773234Y2676994D01*
X-34657751Y2066063D01*
X-34655011Y2064616D01*
X-33521051Y1488500D01*
X-33518266Y1487140D01*
X-32367074Y946474D01*
X-32364249Y945200D01*
X-31196865Y440471D01*
X-31194002Y439285D01*
X-30011465Y-29059D01*
X-30008566Y-30155D01*
X-28812140Y-461610D01*
X-28809209Y-462616D01*
X-27600011Y-856784D01*
X-27597050Y-857699D01*
X-26376112Y-1214238D01*
X-26373124Y-1215060D01*
X-25141854Y-1533562D01*
X-25138842Y-1534292D01*
X-23898198Y-1814509D01*
X-23895165Y-1815145D01*
X-22646473Y-2056778D01*
X-22643422Y-2057319D01*
X-22335153Y-2107115D01*
X-22335153Y15542725D01*
X-22344346Y15542990D01*
X-22536677Y15566426D01*
X-22545669Y15568377D01*
X-22730415Y15626754D01*
X-22738894Y15630324D01*
X-22909765Y15721652D01*
X-22917452Y15726725D01*
X-23068626Y15847890D01*
X-23075252Y15854290D01*
X-23201593Y16001176D01*
X-23206923Y16008675D01*
X-23304121Y16176273D01*
X-23307988Y16184634D01*
X-23372734Y16367238D01*
X-23374997Y16376161D01*
X-23405089Y16567562D01*
X-23405673Y16576740D01*
X-23400083Y16770401D01*
X-23398968Y16779551D01*
X-23357889Y16968884D01*
X-23355115Y16977665D01*
X-23279944Y17156230D01*
X-23275605Y17164348D01*
X-23168899Y17326065D01*
X-23163140Y17333251D01*
X-23028543Y17472599D01*
X-23021561Y17478604D01*
X-22863648Y17590851D01*
X-22855677Y17595473D01*
X-22679830Y17676790D01*
X-22671153Y17679867D01*
X-22480729Y17728155D01*
X-22477017Y17729173D01*
X-22373540Y17759696D01*
X-22349679Y17770287D01*
X-22267210Y17820696D01*
X-22246904Y17837101D01*
X-22180295Y17907133D01*
X-22164927Y17928236D01*
X-22118712Y18013125D01*
X-22109330Y18037484D01*
X-22086661Y18131437D01*
X-22083902Y18157396D01*
X-22086604Y18265271D01*
X-22086775Y18269117D01*
X-22092579Y18360333D01*
X-22092676Y18361709D01*
X-22099517Y18449988D01*
X-22099340Y18461726D01*
X-22099344Y18461902D01*
X-22099332Y18462459D01*
X-22099322Y18462606D01*
X-22098984Y18474346D01*
X-22088248Y18562446D01*
X-22088091Y18563816D01*
X-22078597Y18651823D01*
X-22076266Y18663331D01*
X-22076236Y18663517D01*
X-22076130Y18664024D01*
X-22076092Y18664169D01*
X-22073597Y18675669D01*
X-22046846Y18760326D01*
X-22046440Y18761644D01*
X-22020947Y18846371D01*
X-22016543Y18857252D01*
X-22016477Y18857435D01*
X-22016283Y18857905D01*
X-22016213Y18858054D01*
X-22011647Y18868900D01*
X-21969846Y18947107D01*
X-21969204Y18948329D01*
X-21927474Y19029063D01*
X-21925158Y19033078D01*
X-21244487Y20096269D01*
X-21230736Y20170235D01*
X-21298336Y20500582D01*
X-21299116Y20505762D01*
X-21332472Y20848097D01*
X-21332706Y20853317D01*
X-21330095Y21197269D01*
X-21329782Y21202475D01*
X-21291232Y21544274D01*
X-21290375Y21549430D01*
X-21216310Y21885320D01*
X-21214918Y21890361D01*
X-21106154Y22216656D01*
X-21104238Y22221535D01*
X-20961960Y22534679D01*
X-20959550Y22539322D01*
X-20785314Y22835886D01*
X-20782433Y22840248D01*
X-20578158Y23116966D01*
X-20574837Y23121004D01*
X-20342744Y23374868D01*
X-20339023Y23378532D01*
X-20081662Y23606748D01*
X-20077596Y23609989D01*
X-20004355Y23662356D01*
X-20004355Y42700381D01*
X-20221387Y42719369D01*
X-20229962Y42720880D01*
X-20440418Y42777272D01*
X-20448577Y42780243D01*
X-20646040Y42872320D01*
X-20653581Y42876674D01*
X-20832049Y43001638D01*
X-20838709Y43007227D01*
X-20992773Y43161291D01*
X-20998362Y43167951D01*
X-21123326Y43346419D01*
X-21127680Y43353960D01*
X-21219757Y43551423D01*
X-21222728Y43559582D01*
X-21279120Y43770038D01*
X-21280631Y43778613D01*
X-21299619Y43995645D01*
X-21299619Y44004355D01*
X-21280631Y44221387D01*
X-21279120Y44229962D01*
X-21222728Y44440418D01*
X-21219757Y44448577D01*
X-21127680Y44646040D01*
X-21123326Y44653581D01*
X-20998362Y44832049D01*
X-20992773Y44838709D01*
X-20838709Y44992773D01*
X-20832049Y44998362D01*
X-20653581Y45123326D01*
X-20646040Y45127680D01*
X-20448577Y45219757D01*
X-20440418Y45222728D01*
X-20229962Y45279120D01*
X-20221387Y45280631D01*
X-20004355Y45299619D01*
X-19995645Y45299619D01*
X-19778613Y45280631D01*
X-19770038Y45279120D01*
X-19559582Y45222728D01*
X-19551423Y45219757D01*
X-19353960Y45127680D01*
X-19346419Y45123326D01*
X-19167951Y44998362D01*
X-19161291Y44992773D01*
X-19007227Y44838709D01*
X-19001638Y44832049D01*
X-18876674Y44653581D01*
X-18872320Y44646040D01*
X-18780243Y44448577D01*
X-18777272Y44440418D01*
X-18720880Y44229962D01*
X-18719369Y44221387D01*
X-18700381Y44004355D01*
X-18700381Y43995645D01*
X-18719369Y43778613D01*
X-18720880Y43770038D01*
X-18777272Y43559582D01*
X-18780243Y43551423D01*
X-18872320Y43353960D01*
X-18876674Y43346419D01*
X-19001638Y43167951D01*
X-19007227Y43161291D01*
X-19161291Y43007227D01*
X-19167951Y43001638D01*
X-19346419Y42876674D01*
X-19353960Y42872320D01*
X-19551423Y42780243D01*
X-19559582Y42777272D01*
X-19770038Y42720880D01*
X-19778613Y42719369D01*
X-19995645Y42700381D01*
X-20004355Y42700381D01*
X-20004355Y23662356D01*
X-19797787Y23810054D01*
X-19793390Y23812862D01*
X-19495085Y23982083D01*
X-19488561Y23985183D01*
X-19307079Y24055835D01*
X-19298231Y24058368D01*
X-19107842Y24094282D01*
X-19098680Y24095147D01*
X-18904932Y24095466D01*
X-18895764Y24094632D01*
X-18705268Y24059346D01*
X-18696398Y24056839D01*
X-18515626Y23987150D01*
X-18507377Y23983059D01*
X-18342487Y23881340D01*
X-18335125Y23875799D01*
X-18191731Y23745510D01*
X-18185524Y23738724D01*
X-18068508Y23584300D01*
X-18063651Y23576485D01*
X-17977003Y23403189D01*
X-17973665Y23394612D01*
X-17920338Y23208357D01*
X-17918629Y23199300D01*
X-17900435Y23006420D01*
X-17900421Y22997204D01*
X-17917979Y22804261D01*
X-17919654Y22795216D01*
X-17972371Y22608770D01*
X-17975679Y22600187D01*
X-18061755Y22426608D01*
X-18066589Y22418772D01*
X-18183088Y22263972D01*
X-18189280Y22257156D01*
X-18332244Y22126395D01*
X-18339582Y22120835D01*
X-18508065Y22016130D01*
X-18669340Y21917048D01*
X-18683340Y21906664D01*
X-18818415Y21786887D01*
X-18830400Y21774229D01*
X-18942624Y21632815D01*
X-18952228Y21618268D01*
X-19038191Y21459513D01*
X-19045123Y21443521D01*
X-19102213Y21272254D01*
X-19106263Y21255299D01*
X-19132743Y21076726D01*
X-19133788Y21059327D01*
X-19128857Y20878857D01*
X-19126864Y20861540D01*
X-19090670Y20684671D01*
X-19085700Y20667964D01*
X-19016130Y20491935D01*
X-19016003Y20491611D01*
X-18995726Y20439525D01*
X-18992717Y20432583D01*
X-18970406Y20386031D01*
X-18967213Y20377405D01*
X-18959024Y20346885D01*
X-18955628Y20336522D01*
X-18944164Y20307075D01*
X-18941633Y20298234D01*
X-18932062Y20247499D01*
X-18930379Y20240123D01*
X-18917006Y20190278D01*
X-18915450Y20181200D01*
X-18913009Y20149704D01*
X-18911575Y20138894D01*
X-18905718Y20107844D01*
X-18904853Y20098678D01*
X-18904768Y20047052D01*
X-18904469Y20039492D01*
X-18900483Y19988043D01*
X-18900621Y19978827D01*
X-18904009Y19947428D01*
X-18904586Y19936535D01*
X-18904534Y19904935D01*
X-18905369Y19895757D01*
X-18914771Y19844997D01*
X-18915867Y19837510D01*
X-18921402Y19786207D01*
X-18923231Y19777180D01*
X-18932332Y19746932D01*
X-18934901Y19736331D01*
X-18940656Y19705259D01*
X-18943161Y19696398D01*
X-18961732Y19648225D01*
X-18964184Y19641067D01*
X-18979050Y19591660D01*
X-18982508Y19583119D01*
X-18997011Y19555061D01*
X-19001484Y19545110D01*
X-19012847Y19515632D01*
X-19016943Y19507372D01*
X-19044046Y19463438D01*
X-19047773Y19456852D01*
X-19072530Y19408955D01*
X-19074842Y19404948D01*
X-19871346Y18160829D01*
X-19887095Y18109441D01*
X-19890665Y17968361D01*
X-19891183Y17962338D01*
X-19937271Y17649203D01*
X-19938505Y17643311D01*
X-20022004Y17338002D01*
X-20023942Y17332295D01*
X-20143631Y17039281D01*
X-20146243Y17033850D01*
X-20300381Y16757395D01*
X-20303625Y16752324D01*
X-20489960Y16496467D01*
X-20493797Y16491817D01*
X-20709610Y16260290D01*
X-20713983Y16256133D01*
X-20956132Y16052306D01*
X-20960970Y16048709D01*
X-21225916Y15875559D01*
X-21231160Y15872567D01*
X-21515048Y15732615D01*
X-21520607Y15730280D01*
X-21819294Y15625568D01*
X-21825100Y15623918D01*
X-22133449Y15556143D01*
X-22141000Y15555079D01*
X-22335153Y15542725D01*
X-22335153Y-2107115D01*
X-21387842Y-2260141D01*
X-21384775Y-2260588D01*
X-20123541Y-2424402D01*
X-20120462Y-2424754D01*
X-18854639Y-2549421D01*
X-18851551Y-2549676D01*
X-17582665Y-2635045D01*
X-17579570Y-2635206D01*
X-17356487Y-2643282D01*
X-17356487Y17242393D01*
X-17549499Y17259191D01*
X-17558561Y17260832D01*
X-17745209Y17312813D01*
X-17753802Y17316087D01*
X-17927722Y17401480D01*
X-17935573Y17406281D01*
X-18090834Y17522173D01*
X-18097671Y17528336D01*
X-18228998Y17670788D01*
X-18234583Y17678098D01*
X-18337496Y17842253D01*
X-18341648Y17850477D01*
X-18412640Y18030733D01*
X-18415213Y18039588D01*
X-18451875Y18229826D01*
X-18452776Y18238987D01*
X-18453858Y18432728D01*
X-18453060Y18441900D01*
X-18418524Y18632535D01*
X-18416052Y18641413D01*
X-18346248Y18824629D01*
X-18344414Y18828845D01*
X-16550393Y22482734D01*
X-16548176Y22486769D01*
X-16445892Y22654043D01*
X-16440387Y22661418D01*
X-16310662Y22805324D01*
X-16303897Y22811561D01*
X-16149942Y22929180D01*
X-16142134Y22934075D01*
X-15969186Y23021402D01*
X-15960627Y23024773D01*
X-15863565Y23052976D01*
X-15863565Y27180255D01*
X-16112601Y27198066D01*
X-16119656Y27199080D01*
X-16363636Y27252155D01*
X-16370462Y27254160D01*
X-16604404Y27341415D01*
X-16610877Y27344371D01*
X-16830023Y27464035D01*
X-16836012Y27467884D01*
X-17035890Y27617510D01*
X-17041273Y27622175D01*
X-17217825Y27798727D01*
X-17222490Y27804110D01*
X-17372116Y28003988D01*
X-17375965Y28009977D01*
X-17495629Y28229123D01*
X-17498585Y28235596D01*
X-17585840Y28469538D01*
X-17587845Y28476364D01*
X-17640920Y28720344D01*
X-17641934Y28727399D01*
X-17659745Y28976435D01*
X-17659745Y28983565D01*
X-17641934Y29232601D01*
X-17640920Y29239656D01*
X-17587845Y29483636D01*
X-17585840Y29490462D01*
X-17498585Y29724404D01*
X-17495629Y29730877D01*
X-17375965Y29950023D01*
X-17372116Y29956012D01*
X-17222490Y30155890D01*
X-17217825Y30161273D01*
X-17041273Y30337825D01*
X-17035890Y30342490D01*
X-16836036Y30492098D01*
X-16836036Y42903189D01*
X-16845228Y42903881D01*
X-17036257Y42936199D01*
X-17045146Y42938564D01*
X-17226990Y43005437D01*
X-17235299Y43009398D01*
X-17402346Y43108895D01*
X-17408752Y43113427D01*
X-17638169Y43304413D01*
X-17642853Y43308854D01*
X-17846223Y43528354D01*
X-17850283Y43533348D01*
X-18023660Y43777237D01*
X-18027043Y43782714D01*
X-18167526Y44046913D01*
X-18170180Y44052792D01*
X-18275422Y44332881D01*
X-18277304Y44339080D01*
X-18345556Y44630389D01*
X-18346621Y44636764D01*
X-18376748Y44934468D01*
X-18376981Y44940897D01*
X-18368477Y45240011D01*
X-18367878Y45246429D01*
X-18320881Y45541941D01*
X-18319460Y45548225D01*
X-18234760Y45835210D01*
X-18232536Y45841271D01*
X-18111543Y46114937D01*
X-18108561Y46120652D01*
X-17953297Y46376435D01*
X-17949597Y46381727D01*
X-17762651Y46615361D01*
X-17758305Y46620124D01*
X-17542799Y46827706D01*
X-17537875Y46831870D01*
X-17297394Y47009943D01*
X-17291986Y47013430D01*
X-17095068Y47123087D01*
X-17095068Y52904534D01*
X-17104236Y52905368D01*
X-17294732Y52940654D01*
X-17303602Y52943161D01*
X-17484374Y53012850D01*
X-17492623Y53016941D01*
X-17657513Y53118660D01*
X-17664875Y53124201D01*
X-17808269Y53254490D01*
X-17814476Y53261276D01*
X-17931492Y53415700D01*
X-17936349Y53423515D01*
X-18022997Y53596811D01*
X-18026335Y53605388D01*
X-18079662Y53791643D01*
X-18081371Y53800700D01*
X-18099565Y53993580D01*
X-18099579Y54002796D01*
X-18082021Y54195739D01*
X-18080346Y54204784D01*
X-18027629Y54391230D01*
X-18024321Y54399813D01*
X-17938245Y54573392D01*
X-17933411Y54581228D01*
X-17816912Y54736028D01*
X-17810720Y54742844D01*
X-17667756Y54873605D01*
X-17660418Y54879165D01*
X-17491935Y54983870D01*
X-17330660Y55082952D01*
X-17316660Y55093336D01*
X-17181585Y55213113D01*
X-17169600Y55225771D01*
X-17057376Y55367185D01*
X-17047772Y55381732D01*
X-16961809Y55540487D01*
X-16954877Y55556479D01*
X-16897787Y55727746D01*
X-16893737Y55744701D01*
X-16867257Y55923274D01*
X-16866212Y55940673D01*
X-16871143Y56121143D01*
X-16873136Y56138460D01*
X-16909330Y56315329D01*
X-16914300Y56332036D01*
X-16983870Y56508065D01*
X-17004275Y56560480D01*
X-17007285Y56567423D01*
X-17029592Y56613967D01*
X-17032788Y56622601D01*
X-17040973Y56653107D01*
X-17044370Y56663472D01*
X-17055834Y56692920D01*
X-17058368Y56701768D01*
X-17067938Y56752504D01*
X-17069621Y56759883D01*
X-17082997Y56809733D01*
X-17084550Y56818797D01*
X-17086990Y56850289D01*
X-17088424Y56861101D01*
X-17094282Y56892157D01*
X-17095147Y56901320D01*
X-17095232Y56952950D01*
X-17095531Y56960510D01*
X-17099517Y57011959D01*
X-17099379Y57021176D01*
X-17095991Y57052576D01*
X-17095414Y57063468D01*
X-17095466Y57095065D01*
X-17094632Y57104235D01*
X-17085230Y57154996D01*
X-17084135Y57162482D01*
X-17078599Y57213796D01*
X-17076771Y57222820D01*
X-17067666Y57253080D01*
X-17065098Y57263680D01*
X-17059346Y57294732D01*
X-17056839Y57303602D01*
X-17038272Y57351764D01*
X-17035820Y57358922D01*
X-17020949Y57408346D01*
X-17017491Y57416888D01*
X-17002984Y57444955D01*
X-16998513Y57454900D01*
X-16987152Y57484370D01*
X-16983059Y57492625D01*
X-16955952Y57536565D01*
X-16952227Y57543149D01*
X-16927466Y57591052D01*
X-16925165Y57595042D01*
X-16128654Y58839171D01*
X-16112905Y58890559D01*
X-16109335Y59031639D01*
X-16108817Y59037662D01*
X-16062729Y59350797D01*
X-16061495Y59356689D01*
X-15977996Y59661998D01*
X-15976058Y59667705D01*
X-15856369Y59960719D01*
X-15853757Y59966150D01*
X-15699619Y60242605D01*
X-15696375Y60247676D01*
X-15510040Y60503533D01*
X-15506203Y60508183D01*
X-15290390Y60739710D01*
X-15286017Y60743867D01*
X-15043868Y60947694D01*
X-15039030Y60951291D01*
X-14774084Y61124441D01*
X-14768840Y61127433D01*
X-14484952Y61267385D01*
X-14479393Y61269720D01*
X-14180706Y61374432D01*
X-14174900Y61376082D01*
X-13866551Y61443857D01*
X-13859000Y61444921D01*
X-13664847Y61457275D01*
X-13655654Y61457010D01*
X-13463323Y61433574D01*
X-13454331Y61431623D01*
X-13269585Y61373246D01*
X-13261106Y61369676D01*
X-13090235Y61278348D01*
X-13082548Y61273275D01*
X-12931374Y61152110D01*
X-12924748Y61145710D01*
X-12798407Y60998824D01*
X-12793077Y60991325D01*
X-12695879Y60823727D01*
X-12692012Y60815366D01*
X-12627266Y60632762D01*
X-12625003Y60623839D01*
X-12594911Y60432438D01*
X-12594327Y60423260D01*
X-12599917Y60229599D01*
X-12601032Y60220449D01*
X-12642111Y60031116D01*
X-12644885Y60022335D01*
X-12720056Y59843770D01*
X-12724395Y59835652D01*
X-12831101Y59673935D01*
X-12836860Y59666749D01*
X-12971457Y59527401D01*
X-12978439Y59521396D01*
X-13136352Y59409149D01*
X-13144323Y59404527D01*
X-13320170Y59323210D01*
X-13328847Y59320133D01*
X-13519271Y59271845D01*
X-13522983Y59270827D01*
X-13626460Y59240304D01*
X-13650321Y59229713D01*
X-13732790Y59179304D01*
X-13753096Y59162899D01*
X-13819705Y59092867D01*
X-13835073Y59071764D01*
X-13881288Y58986875D01*
X-13890670Y58962516D01*
X-13913339Y58868563D01*
X-13916098Y58842604D01*
X-13913396Y58734729D01*
X-13913225Y58730883D01*
X-13907426Y58639748D01*
X-13907329Y58638373D01*
X-13900482Y58550013D01*
X-13900659Y58538255D01*
X-13900655Y58538075D01*
X-13900666Y58537562D01*
X-13900677Y58537403D01*
X-13901016Y58525655D01*
X-13911745Y58437610D01*
X-13911902Y58436240D01*
X-13921402Y58348179D01*
X-13923733Y58336673D01*
X-13923762Y58336496D01*
X-13923873Y58335967D01*
X-13923914Y58335808D01*
X-13926404Y58324328D01*
X-13953127Y58239756D01*
X-13953533Y58238440D01*
X-13979052Y58153626D01*
X-13983461Y58142736D01*
X-13983513Y58142591D01*
X-13983730Y58142065D01*
X-13983798Y58141921D01*
X-13988350Y58131105D01*
X-14030139Y58052921D01*
X-14030781Y58051700D01*
X-14072538Y57970914D01*
X-14074835Y57966932D01*
X-14755513Y56903731D01*
X-14769264Y56829765D01*
X-14701664Y56499418D01*
X-14700884Y56494238D01*
X-14667528Y56151903D01*
X-14667294Y56146683D01*
X-14669905Y55802731D01*
X-14670218Y55797525D01*
X-14708768Y55455726D01*
X-14709625Y55450570D01*
X-14783690Y55114680D01*
X-14785082Y55109639D01*
X-14893846Y54783344D01*
X-14895762Y54778465D01*
X-15038040Y54465321D01*
X-15040450Y54460678D01*
X-15214686Y54164114D01*
X-15217567Y54159752D01*
X-15421842Y53883034D01*
X-15425163Y53878996D01*
X-15657256Y53625132D01*
X-15660977Y53621468D01*
X-15918338Y53393252D01*
X-15922404Y53390011D01*
X-16202213Y53189946D01*
X-16206610Y53187138D01*
X-16504915Y53017917D01*
X-16511439Y53014817D01*
X-16692921Y52944165D01*
X-16701769Y52941632D01*
X-16892158Y52905718D01*
X-16901320Y52904853D01*
X-17095068Y52904534D01*
X-17095068Y47123087D01*
X-17030565Y47159007D01*
X-17024730Y47161779D01*
X-16746727Y47272436D01*
X-16740595Y47274428D01*
X-16450640Y47348321D01*
X-16444296Y47349508D01*
X-16147231Y47385403D01*
X-16140804Y47385761D01*
X-15841593Y47383058D01*
X-15835150Y47382583D01*
X-15538796Y47341328D01*
X-15532469Y47340026D01*
X-15243895Y47260906D01*
X-15237808Y47258805D01*
X-14961850Y47143144D01*
X-14956060Y47140264D01*
X-14697315Y46989990D01*
X-14691960Y46986397D01*
X-14454751Y46804021D01*
X-14449898Y46799764D01*
X-14238170Y46588317D01*
X-14233921Y46583487D01*
X-14051649Y46347061D01*
X-14047363Y46340495D01*
X-13954192Y46169840D01*
X-13950542Y46161382D01*
X-13890530Y45977170D01*
X-13888498Y45968185D01*
X-13863357Y45776089D01*
X-13863009Y45766881D01*
X-13873594Y45573428D01*
X-13874943Y45564321D01*
X-13920897Y45376105D01*
X-13923897Y45367399D01*
X-14003650Y45190835D01*
X-14008200Y45182827D01*
X-14119040Y45023921D01*
X-14124980Y45016890D01*
X-14263134Y44881054D01*
X-14270265Y44875234D01*
X-14431028Y44767098D01*
X-14439106Y44762688D01*
X-14616996Y44685934D01*
X-14625757Y44683080D01*
X-14814721Y44640321D01*
X-14823846Y44639127D01*
X-15017455Y44631816D01*
X-15026648Y44632319D01*
X-15218307Y44660710D01*
X-15227239Y44662891D01*
X-15410415Y44726016D01*
X-15418813Y44729809D01*
X-15587261Y44825511D01*
X-15594816Y44830781D01*
X-15742815Y44955808D01*
X-15749273Y44962376D01*
X-15870719Y45111174D01*
X-15879263Y45120393D01*
X-15910732Y45150332D01*
X-15947807Y45172674D01*
X-15973936Y45181454D01*
X-16016981Y45186034D01*
X-16044369Y45182949D01*
X-16085320Y45168906D01*
X-16108840Y45154533D01*
X-16140011Y45124508D01*
X-16155254Y45101544D01*
X-16170821Y45061148D01*
X-16174930Y45033892D01*
X-16171965Y44990705D01*
X-16164170Y44964267D01*
X-16143232Y44926381D01*
X-16114493Y44893814D01*
X-16105602Y44884932D01*
X-15961450Y44757991D01*
X-15955137Y44751301D01*
X-15835733Y44598713D01*
X-15830757Y44590979D01*
X-15741426Y44419054D01*
X-15737953Y44410528D01*
X-15681734Y44225115D01*
X-15679887Y44216100D01*
X-15658695Y44023516D01*
X-15658536Y44014311D01*
X-15673091Y43821118D01*
X-15674628Y43812035D01*
X-15724432Y43624812D01*
X-15727615Y43616158D01*
X-15810975Y43441270D01*
X-15815685Y43433363D01*
X-15929766Y43276766D01*
X-15935854Y43269853D01*
X-16076763Y43136887D01*
X-16084011Y43131215D01*
X-16246965Y43026398D01*
X-16255128Y43022157D01*
X-16434558Y42949072D01*
X-16443371Y42946399D01*
X-16633181Y42907526D01*
X-16642325Y42906521D01*
X-16836036Y42903189D01*
X-16836036Y30492098D01*
X-16836012Y30492116D01*
X-16830023Y30495965D01*
X-16610877Y30615629D01*
X-16604404Y30618585D01*
X-16370462Y30705840D01*
X-16363636Y30707845D01*
X-16119656Y30760920D01*
X-16112601Y30761934D01*
X-15863565Y30779745D01*
X-15856435Y30779745D01*
X-15607399Y30761934D01*
X-15600344Y30760920D01*
X-15356364Y30707845D01*
X-15349538Y30705840D01*
X-15115596Y30618585D01*
X-15109123Y30615629D01*
X-14889977Y30495965D01*
X-14883988Y30492116D01*
X-14684110Y30342490D01*
X-14678727Y30337825D01*
X-14502175Y30161273D01*
X-14497510Y30155890D01*
X-14347884Y29956012D01*
X-14344035Y29950023D01*
X-14224371Y29730877D01*
X-14221415Y29724404D01*
X-14134160Y29490462D01*
X-14132155Y29483636D01*
X-14079080Y29239656D01*
X-14078066Y29232601D01*
X-14060255Y28983565D01*
X-14060255Y28976435D01*
X-14078066Y28727399D01*
X-14079080Y28720344D01*
X-14132155Y28476364D01*
X-14134160Y28469538D01*
X-14221415Y28235596D01*
X-14224371Y28229123D01*
X-14344035Y28009977D01*
X-14347884Y28003988D01*
X-14497510Y27804110D01*
X-14502175Y27798727D01*
X-14678727Y27622175D01*
X-14684110Y27617510D01*
X-14883988Y27467884D01*
X-14889977Y27464035D01*
X-15109123Y27344371D01*
X-15115596Y27341415D01*
X-15349538Y27254160D01*
X-15356364Y27252155D01*
X-15600344Y27199080D01*
X-15607399Y27198066D01*
X-15856435Y27180255D01*
X-15863565Y27180255D01*
X-15863565Y23052976D01*
X-15774574Y23078834D01*
X-15765534Y23080576D01*
X-15572719Y23099531D01*
X-15563514Y23099582D01*
X-15370505Y23082783D01*
X-15361435Y23081140D01*
X-15174797Y23029163D01*
X-15166196Y23025886D01*
X-14992279Y22940495D01*
X-14984428Y22935694D01*
X-14829173Y22819808D01*
X-14822322Y22813632D01*
X-14691004Y22671188D01*
X-14685418Y22663876D01*
X-14582504Y22499721D01*
X-14578356Y22491505D01*
X-14507361Y22311243D01*
X-14504788Y22302388D01*
X-14468126Y22112150D01*
X-14467225Y22102989D01*
X-14466143Y21909248D01*
X-14466941Y21900075D01*
X-14501477Y21709437D01*
X-14503946Y21700568D01*
X-14573752Y21517345D01*
X-14575586Y21513129D01*
X-16369607Y17859240D01*
X-16371824Y17855205D01*
X-16474108Y17687931D01*
X-16479613Y17680556D01*
X-16609338Y17536650D01*
X-16616102Y17530413D01*
X-16770058Y17412795D01*
X-16777867Y17407899D01*
X-16950814Y17320573D01*
X-16959373Y17317202D01*
X-17145426Y17263140D01*
X-17154466Y17261398D01*
X-17347282Y17242444D01*
X-17356487Y17242393D01*
X-17356487Y-2643282D01*
X-16308477Y-2681222D01*
X-16305378Y-2681286D01*
X-15033539Y-2687893D01*
X-15030441Y-2687861D01*
X-13759008Y-2655054D01*
X-13755911Y-2654926D01*
X-12486118Y-2582738D01*
X-12483027Y-2582514D01*
X-11859196Y-2527611D01*
X-11859196Y18614239D01*
X-12158407Y18616942D01*
X-12164850Y18617417D01*
X-12461204Y18658672D01*
X-12467531Y18659974D01*
X-12756105Y18739094D01*
X-12762192Y18741195D01*
X-13038150Y18856856D01*
X-13043940Y18859736D01*
X-13302685Y19010010D01*
X-13308040Y19013603D01*
X-13545249Y19195979D01*
X-13550102Y19200236D01*
X-13761830Y19411683D01*
X-13766079Y19416513D01*
X-13948351Y19652939D01*
X-13952636Y19659505D01*
X-14045806Y19830159D01*
X-14049456Y19838618D01*
X-14109468Y20022829D01*
X-14111500Y20031814D01*
X-14136641Y20223910D01*
X-14136989Y20233118D01*
X-14126404Y20426571D01*
X-14125055Y20435678D01*
X-14079102Y20623895D01*
X-14076102Y20632600D01*
X-13996349Y20809164D01*
X-13991799Y20817172D01*
X-13880958Y20976078D01*
X-13875018Y20983109D01*
X-13736865Y21118945D01*
X-13729734Y21124765D01*
X-13568971Y21232901D01*
X-13560893Y21237311D01*
X-13383004Y21314065D01*
X-13374243Y21316919D01*
X-13185279Y21359679D01*
X-13176154Y21360873D01*
X-12982546Y21368183D01*
X-12973352Y21367680D01*
X-12781693Y21339289D01*
X-12772760Y21337108D01*
X-12589584Y21273984D01*
X-12581187Y21270191D01*
X-12412739Y21174488D01*
X-12405184Y21169218D01*
X-12257183Y21044189D01*
X-12250731Y21037627D01*
X-12129277Y20888821D01*
X-12120733Y20879603D01*
X-12089268Y20849668D01*
X-12052193Y20827326D01*
X-12026064Y20818546D01*
X-11983019Y20813966D01*
X-11955631Y20817051D01*
X-11914680Y20831094D01*
X-11891160Y20845467D01*
X-11859989Y20875492D01*
X-11844746Y20898456D01*
X-11829179Y20938852D01*
X-11825070Y20966108D01*
X-11828035Y21009295D01*
X-11835830Y21035733D01*
X-11856768Y21073619D01*
X-11885507Y21106186D01*
X-11894398Y21115068D01*
X-12038550Y21242009D01*
X-12044863Y21248699D01*
X-12164267Y21401287D01*
X-12169243Y21409021D01*
X-12258574Y21580946D01*
X-12262047Y21589472D01*
X-12318266Y21774885D01*
X-12320113Y21783900D01*
X-12341305Y21976484D01*
X-12341464Y21985689D01*
X-12326909Y22178882D01*
X-12325372Y22187965D01*
X-12275568Y22375188D01*
X-12272385Y22383842D01*
X-12189025Y22558730D01*
X-12184315Y22566637D01*
X-12136840Y22631805D01*
X-12136840Y36267449D01*
X-12155024Y36284522D01*
X-12165284Y36312711D01*
X-12167111Y36318980D01*
X-12187586Y36411335D01*
X-12188719Y36424285D01*
X-12184737Y36515508D01*
X-12182480Y36528306D01*
X-12154034Y36618527D01*
X-12151669Y36624608D01*
X-11979381Y36994081D01*
X-11976238Y36999810D01*
X-11925413Y37079589D01*
X-11917059Y37089545D01*
X-11849736Y37151235D01*
X-11839088Y37158690D01*
X-11755196Y37202362D01*
X-11749195Y37205002D01*
X-11243824Y37388942D01*
X-11238810Y37389100D01*
X-11220628Y37372029D01*
X-11091968Y37018541D01*
X-11615473Y36828001D01*
X-11790527Y36452597D01*
X-11770997Y36398939D01*
X-12131827Y36267607D01*
X-12136840Y36267449D01*
X-12136840Y22631805D01*
X-12070234Y22723234D01*
X-12064146Y22730147D01*
X-11923237Y22863113D01*
X-11915989Y22868785D01*
X-11776069Y22958785D01*
X-11776069Y30720000D01*
X-11783882Y30720615D01*
X-11864931Y30733452D01*
X-11879718Y30738256D01*
X-11949326Y30773723D01*
X-11961899Y30782858D01*
X-12017142Y30838101D01*
X-12026277Y30850674D01*
X-12061744Y30920282D01*
X-12066548Y30935069D01*
X-12079385Y31016118D01*
X-12080000Y31023931D01*
X-12080000Y32016069D01*
X-12079385Y32023882D01*
X-12066548Y32104931D01*
X-12061744Y32119718D01*
X-12026277Y32189326D01*
X-12017142Y32201899D01*
X-11961899Y32257142D01*
X-11949326Y32266277D01*
X-11879718Y32301744D01*
X-11864931Y32306548D01*
X-11783882Y32319385D01*
X-11776069Y32320000D01*
X-10942543Y32320000D01*
X-10942543Y32679483D01*
X-11052989Y32702959D01*
X-11062902Y32706180D01*
X-11225209Y32778444D01*
X-11234243Y32783660D01*
X-11377980Y32888091D01*
X-11385724Y32895064D01*
X-11504611Y33027101D01*
X-11510732Y33035526D01*
X-11599573Y33189403D01*
X-11603809Y33198918D01*
X-11658714Y33367898D01*
X-11660881Y33378090D01*
X-11679726Y33557391D01*
X-11680000Y33562622D01*
X-11680000Y33893982D01*
X-11678434Y33898747D01*
X-11663987Y33906046D01*
X-11663987Y34210005D01*
X-11668752Y34211571D01*
X-11680000Y34233833D01*
X-11680000Y34557378D01*
X-11679726Y34562609D01*
X-11660881Y34741910D01*
X-11658714Y34752102D01*
X-11603809Y34921082D01*
X-11599573Y34930597D01*
X-11510732Y35084474D01*
X-11504611Y35092899D01*
X-11385724Y35224936D01*
X-11377980Y35231909D01*
X-11266869Y35312636D01*
X-11230334Y35363284D01*
X-11230972Y35425730D01*
X-11268533Y35475621D01*
X-11321286Y35493441D01*
X-11336365Y35494099D01*
X-11349163Y35496356D01*
X-11439384Y35524802D01*
X-11445464Y35527167D01*
X-11814937Y35699455D01*
X-11820666Y35702598D01*
X-11900445Y35753423D01*
X-11910401Y35761777D01*
X-11972091Y35829100D01*
X-11979546Y35839748D01*
X-12023218Y35923640D01*
X-12025858Y35929641D01*
X-12038788Y35965166D01*
X-12038946Y35970180D01*
X-12021875Y35988362D01*
X-11668388Y36117021D01*
X-11648858Y36063363D01*
X-11273453Y35888309D01*
X-10749949Y36078849D01*
X-10618617Y35718019D01*
X-10618459Y35713005D01*
X-10635530Y35694823D01*
X-10893295Y35601004D01*
X-10942375Y35562389D01*
X-10958974Y35502186D01*
X-10935867Y35452851D01*
X-10930005Y35430364D01*
X-10930005Y35034432D01*
X-11030000Y34993013D01*
X-11133553Y34913553D01*
X-11213013Y34810000D01*
X-11262963Y34689410D01*
X-11280000Y34560000D01*
X-11280000Y34210005D01*
X-11663987Y34210005D01*
X-11663987Y33906046D01*
X-11656172Y33909995D01*
X-11280000Y33909995D01*
X-11280000Y33560000D01*
X-11262963Y33430590D01*
X-11213013Y33310000D01*
X-11133553Y33206447D01*
X-11030000Y33126987D01*
X-10930005Y33085568D01*
X-10930005Y32692831D01*
X-10934242Y32679941D01*
X-10934361Y32679856D01*
X-10942543Y32679483D01*
X-10942543Y32320000D01*
X-10614333Y32320000D01*
X-10614333Y32680147D01*
X-10627822Y32681611D01*
X-10627929Y32681710D01*
X-10629995Y32689636D01*
X-10629995Y33085568D01*
X-10530000Y33126987D01*
X-10426447Y33206447D01*
X-10346987Y33310000D01*
X-10297037Y33430590D01*
X-10280000Y33560000D01*
X-10280000Y33909995D01*
X-10280000Y34210005D01*
X-10280000Y34560000D01*
X-10297037Y34689410D01*
X-10346987Y34810000D01*
X-10426447Y34913553D01*
X-10530000Y34993013D01*
X-10629995Y35034432D01*
X-10629995Y35427169D01*
X-10625758Y35440059D01*
X-10625639Y35440144D01*
X-10617457Y35440517D01*
X-10507011Y35417041D01*
X-10497098Y35413820D01*
X-10334791Y35341556D01*
X-10325757Y35336340D01*
X-10321190Y35333021D01*
X-10321190Y35810900D01*
X-10339372Y35827971D01*
X-10468032Y36181459D01*
X-9944527Y36371999D01*
X-9891612Y36485475D01*
X-9891612Y37082979D01*
X-9911142Y37136637D01*
X-10286547Y37311691D01*
X-10810051Y37121151D01*
X-10941383Y37481981D01*
X-10941541Y37486995D01*
X-10924470Y37505177D01*
X-10426435Y37686447D01*
X-10420159Y37688276D01*
X-10327809Y37708750D01*
X-10314859Y37709883D01*
X-10223635Y37705901D01*
X-10210837Y37703644D01*
X-10120616Y37675198D01*
X-10114536Y37672833D01*
X-9745063Y37500545D01*
X-9739334Y37497402D01*
X-9659555Y37446577D01*
X-9649599Y37438223D01*
X-9587909Y37370900D01*
X-9580454Y37360252D01*
X-9536782Y37276360D01*
X-9534142Y37270359D01*
X-9521212Y37234834D01*
X-9521054Y37229820D01*
X-9538125Y37211638D01*
X-9891612Y37082979D01*
X-9891612Y36485475D01*
X-9769473Y36747403D01*
X-9789003Y36801061D01*
X-9428173Y36932393D01*
X-9423160Y36932551D01*
X-9404976Y36915478D01*
X-9394716Y36887289D01*
X-9392889Y36881020D01*
X-9372414Y36788665D01*
X-9371281Y36775715D01*
X-9375263Y36684492D01*
X-9377520Y36671694D01*
X-9405966Y36581473D01*
X-9408331Y36575392D01*
X-9580619Y36205919D01*
X-9583762Y36200190D01*
X-9634587Y36120411D01*
X-9642941Y36110455D01*
X-9710264Y36048765D01*
X-9720912Y36041310D01*
X-9804804Y35997638D01*
X-9810805Y35994998D01*
X-10316176Y35811058D01*
X-10321190Y35810900D01*
X-10321190Y35333021D01*
X-10182020Y35231909D01*
X-10174276Y35224936D01*
X-10055389Y35092899D01*
X-10049268Y35084474D01*
X-9960427Y34930597D01*
X-9956191Y34921082D01*
X-9901286Y34752102D01*
X-9899119Y34741910D01*
X-9880274Y34562609D01*
X-9880000Y34557378D01*
X-9880000Y34226018D01*
X-9881566Y34221253D01*
X-9903828Y34210005D01*
X-10280000Y34210005D01*
X-10280000Y33909995D01*
X-9896013Y33909995D01*
X-9891248Y33908429D01*
X-9880000Y33886167D01*
X-9880000Y33562622D01*
X-9880274Y33557391D01*
X-9899119Y33378090D01*
X-9901286Y33367898D01*
X-9956191Y33198918D01*
X-9960427Y33189403D01*
X-10049268Y33035526D01*
X-10055389Y33027101D01*
X-10174276Y32895064D01*
X-10182020Y32888091D01*
X-10325757Y32783660D01*
X-10334791Y32778444D01*
X-10497098Y32706180D01*
X-10507011Y32702959D01*
X-10614333Y32680147D01*
X-10614333Y32320000D01*
X-9783931Y32320000D01*
X-9776118Y32319385D01*
X-9695069Y32306548D01*
X-9680282Y32301744D01*
X-9610674Y32266277D01*
X-9598101Y32257142D01*
X-9542858Y32201899D01*
X-9533723Y32189326D01*
X-9498256Y32119718D01*
X-9493452Y32104931D01*
X-9480615Y32023882D01*
X-9480000Y32016069D01*
X-9480000Y31023931D01*
X-9480615Y31016118D01*
X-9493452Y30935069D01*
X-9498256Y30920282D01*
X-9533723Y30850674D01*
X-9542858Y30838101D01*
X-9598101Y30782858D01*
X-9610674Y30773723D01*
X-9680282Y30738256D01*
X-9695069Y30733452D01*
X-9776118Y30720615D01*
X-9783931Y30720000D01*
X-11776069Y30720000D01*
X-11776069Y22958785D01*
X-11753035Y22973602D01*
X-11744872Y22977843D01*
X-11565442Y23050928D01*
X-11556629Y23053601D01*
X-11366819Y23092474D01*
X-11357675Y23093479D01*
X-11163964Y23096811D01*
X-11154772Y23096119D01*
X-10963743Y23063801D01*
X-10954854Y23061436D01*
X-10773010Y22994563D01*
X-10764701Y22990602D01*
X-10597654Y22891105D01*
X-10591248Y22886573D01*
X-10361831Y22695587D01*
X-10357147Y22691146D01*
X-10153777Y22471646D01*
X-10149717Y22466652D01*
X-9976340Y22222763D01*
X-9972957Y22217286D01*
X-9832474Y21953087D01*
X-9829820Y21947208D01*
X-9724578Y21667119D01*
X-9722696Y21660920D01*
X-9654444Y21369611D01*
X-9653379Y21363236D01*
X-9623252Y21065532D01*
X-9623019Y21059103D01*
X-9631523Y20759989D01*
X-9632122Y20753571D01*
X-9679119Y20458059D01*
X-9680540Y20451775D01*
X-9765240Y20164790D01*
X-9767464Y20158729D01*
X-9888457Y19885063D01*
X-9891439Y19879348D01*
X-10046703Y19623565D01*
X-10050403Y19618273D01*
X-10237349Y19384639D01*
X-10241695Y19379876D01*
X-10457201Y19172294D01*
X-10462125Y19168130D01*
X-10702606Y18990057D01*
X-10708014Y18986570D01*
X-10969435Y18840993D01*
X-10975270Y18838221D01*
X-11253273Y18727564D01*
X-11259405Y18725572D01*
X-11549360Y18651679D01*
X-11555704Y18650492D01*
X-11852769Y18614597D01*
X-11859196Y18614239D01*
X-11859196Y-2527611D01*
X-11216017Y-2471007D01*
X-11212935Y-2470687D01*
X-9950118Y-2319989D01*
X-9947047Y-2319575D01*
X-8689354Y-2129797D01*
X-8686297Y-2129287D01*
X-8233298Y-2046500D01*
X-8233298Y21701606D01*
X-8251324Y21701745D01*
X-8341634Y21719168D01*
X-8356381Y21724537D01*
X-8416763Y21758140D01*
X-8422388Y21761786D01*
X-10956037Y23657035D01*
X-10962799Y23663132D01*
X-11027494Y23733174D01*
X-11037115Y23748421D01*
X-11070782Y23832697D01*
X-11074315Y23850377D01*
X-11075623Y23941123D01*
X-11072602Y23958891D01*
X-11041376Y24044106D01*
X-11032199Y24059623D01*
X-10973895Y24126516D01*
X-10956279Y24139389D01*
X-10829521Y24194219D01*
X-10816966Y24197786D01*
X-10525042Y24240547D01*
X-10513653Y24242898D01*
X-10244785Y24314942D01*
X-10233747Y24318600D01*
X-9975070Y24421364D01*
X-9964530Y24426279D01*
X-9719549Y24558372D01*
X-9709652Y24564477D01*
X-9481647Y24724128D01*
X-9472525Y24731340D01*
X-9264600Y24916377D01*
X-9256377Y24924600D01*
X-9071340Y25132525D01*
X-9064128Y25141647D01*
X-8904477Y25369652D01*
X-8898372Y25379549D01*
X-8766279Y25624530D01*
X-8761364Y25635070D01*
X-8658600Y25893747D01*
X-8654942Y25904785D01*
X-8582898Y26173653D01*
X-8580547Y26185042D01*
X-8537495Y26478952D01*
X-8535356Y26487813D01*
X-8504617Y26578066D01*
X-8495801Y26593787D01*
X-8437521Y26663837D01*
X-8424282Y26675019D01*
X-8348674Y26718899D01*
X-8341089Y26722487D01*
X-8236069Y26761739D01*
X-8236069Y31120000D01*
X-8243882Y31120615D01*
X-8263317Y31123693D01*
X-8278960Y31124924D01*
X-8294700Y31124924D01*
X-8310064Y31127358D01*
X-8325028Y31132220D01*
X-8340288Y31135884D01*
X-8355835Y31138346D01*
X-8370614Y31143148D01*
X-8384640Y31150295D01*
X-8399138Y31156300D01*
X-8414111Y31161165D01*
X-8427961Y31168222D01*
X-8440698Y31177476D01*
X-8454077Y31185675D01*
X-8468103Y31192821D01*
X-8480681Y31201960D01*
X-8491808Y31213087D01*
X-8503740Y31223278D01*
X-8516477Y31232532D01*
X-8527468Y31243523D01*
X-8536722Y31256260D01*
X-8546913Y31268192D01*
X-8558040Y31279319D01*
X-8567179Y31291897D01*
X-8574325Y31305923D01*
X-8582524Y31319302D01*
X-8591778Y31332039D01*
X-8598835Y31345889D01*
X-8603700Y31360862D01*
X-8609705Y31375360D01*
X-8616852Y31389386D01*
X-8621654Y31404165D01*
X-8624116Y31419712D01*
X-8627780Y31434972D01*
X-8632642Y31449936D01*
X-8635076Y31465300D01*
X-8635076Y31481040D01*
X-8636307Y31496683D01*
X-8638769Y31512228D01*
X-8638769Y31527774D01*
X-8636307Y31543319D01*
X-8635076Y31558961D01*
X-8635076Y31574700D01*
X-8632642Y31590064D01*
X-8627780Y31605028D01*
X-8624116Y31620288D01*
X-8621654Y31635835D01*
X-8616852Y31650614D01*
X-8609705Y31664640D01*
X-8603700Y31679138D01*
X-8598835Y31694111D01*
X-8591778Y31707961D01*
X-8582524Y31720698D01*
X-8574325Y31734077D01*
X-8567179Y31748103D01*
X-8558040Y31760681D01*
X-8546913Y31771808D01*
X-8536722Y31783740D01*
X-8525151Y31799667D01*
X-8520066Y31805620D01*
X-6946066Y33379620D01*
X-6946066Y37740000D01*
X-6953880Y37740615D01*
X-6972614Y37743582D01*
X-6988545Y37744813D01*
X-7003564Y37744770D01*
X-7018920Y37747156D01*
X-7034582Y37752195D01*
X-7049562Y37755769D01*
X-7065834Y37758346D01*
X-7080620Y37763150D01*
X-7094006Y37769971D01*
X-7108781Y37776066D01*
X-7126815Y37781868D01*
X-7134075Y37784850D01*
X-7221506Y37829080D01*
X-7229986Y37834243D01*
X-7276184Y37867808D01*
X-7276420Y37867979D01*
X-7322506Y37901258D01*
X-7330063Y37907712D01*
X-7372283Y37949932D01*
X-7378725Y37957475D01*
X-7411826Y38003313D01*
X-7411997Y38003548D01*
X-7445758Y38050015D01*
X-7451103Y38058795D01*
X-7498610Y38099330D01*
X-7560901Y38103776D01*
X-7613683Y38070399D01*
X-7631319Y38031240D01*
X-7632580Y38031650D01*
X-7639815Y38009383D01*
X-7689487Y37911896D01*
X-7698623Y37899322D01*
X-7775988Y37821957D01*
X-7788562Y37812821D01*
X-7886049Y37763149D01*
X-7900830Y37758346D01*
X-8008894Y37741231D01*
X-8024438Y37741231D01*
X-8132502Y37758346D01*
X-8147283Y37763149D01*
X-8244770Y37812821D01*
X-8257344Y37821957D01*
X-8334709Y37899322D01*
X-8343845Y37911896D01*
X-8393517Y38009383D01*
X-8398320Y38024164D01*
X-8416051Y38136118D01*
X-8416666Y38143931D01*
X-8416666Y39136069D01*
X-8416051Y39143882D01*
X-8398320Y39255836D01*
X-8393517Y39270617D01*
X-8343845Y39368104D01*
X-8334709Y39380678D01*
X-8257344Y39458043D01*
X-8244770Y39467179D01*
X-8147283Y39516851D01*
X-8132502Y39521654D01*
X-8020548Y39539385D01*
X-8012735Y39540000D01*
X-7543930Y39540000D01*
X-7536117Y39539385D01*
X-7424163Y39521654D01*
X-7409382Y39516851D01*
X-7311895Y39467179D01*
X-7299321Y39458043D01*
X-7221956Y39380678D01*
X-7212820Y39368104D01*
X-7163149Y39270620D01*
X-7159395Y39259064D01*
X-7122518Y39208665D01*
X-7033662Y39194768D01*
X-7018921Y39199511D01*
X-7003559Y39201898D01*
X-6988539Y39201855D01*
X-6972609Y39203086D01*
X-6953882Y39206052D01*
X-6946066Y39206667D01*
X-6810597Y39206667D01*
X-6802783Y39206052D01*
X-6785211Y39203269D01*
X-6768808Y39202041D01*
X-6754965Y39202146D01*
X-6739589Y39199830D01*
X-6722783Y39194510D01*
X-6708242Y39191078D01*
X-6690837Y39188322D01*
X-6676039Y39183514D01*
X-6663706Y39177230D01*
X-6648485Y39170992D01*
X-6631527Y39165624D01*
X-6624265Y39162680D01*
X-6535743Y39118419D01*
X-6525667Y39112349D01*
X-6525605Y39112452D01*
X-6480310Y39079543D01*
X-6479699Y39079103D01*
X-6474248Y39075205D01*
X-6414647Y39056557D01*
X-6357540Y39075474D01*
X-6353125Y39078662D01*
X-6352888Y39078833D01*
X-6306652Y39112425D01*
X-6298173Y39117587D01*
X-6210739Y39161818D01*
X-6203482Y39164800D01*
X-6185442Y39170604D01*
X-6170671Y39176697D01*
X-6157285Y39183517D01*
X-6142500Y39188321D01*
X-6126240Y39190896D01*
X-6111253Y39194471D01*
X-6095591Y39199510D01*
X-6080226Y39201898D01*
X-6065206Y39201855D01*
X-6049276Y39203086D01*
X-6030549Y39206052D01*
X-6022733Y39206667D01*
X-5887264Y39206667D01*
X-5879450Y39206052D01*
X-5861878Y39203269D01*
X-5845475Y39202041D01*
X-5831632Y39202146D01*
X-5816256Y39199830D01*
X-5799450Y39194510D01*
X-5784723Y39191048D01*
X-5784544Y39191020D01*
X-5722916Y39201117D01*
X-5673984Y39258919D01*
X-5670182Y39270621D01*
X-5620512Y39368104D01*
X-5611376Y39380678D01*
X-5534011Y39458043D01*
X-5521437Y39467179D01*
X-5423950Y39516851D01*
X-5409169Y39521654D01*
X-5297215Y39539385D01*
X-5289402Y39540000D01*
X-4963931Y39540000D01*
X-4956117Y39539385D01*
X-4938545Y39536602D01*
X-4922142Y39535374D01*
X-4908299Y39535479D01*
X-4892923Y39533163D01*
X-4876117Y39527843D01*
X-4861576Y39524411D01*
X-4844171Y39521655D01*
X-4829373Y39516847D01*
X-4817040Y39510563D01*
X-4801819Y39504325D01*
X-4784861Y39498957D01*
X-4777599Y39496013D01*
X-4689077Y39451752D01*
X-4679001Y39445682D01*
X-4678939Y39445785D01*
X-4633644Y39412876D01*
X-4633028Y39412432D01*
X-4587686Y39380013D01*
X-4587763Y39379923D01*
X-4578822Y39372286D01*
X-4536606Y39330070D01*
X-4528961Y39321117D01*
X-4528821Y39321237D01*
X-4527198Y39319312D01*
X-4496042Y39275300D01*
X-4495325Y39274299D01*
X-4463497Y39230491D01*
X-4462174Y39228301D01*
X-4462328Y39228209D01*
X-4454321Y39214771D01*
X-4407202Y39173787D01*
X-4338225Y39170626D01*
X-4337063Y39170994D01*
X-4321855Y39177226D01*
X-4309506Y39183518D01*
X-4294723Y39188321D01*
X-4277313Y39191078D01*
X-4262771Y39194511D01*
X-4245971Y39199830D01*
X-4230591Y39202146D01*
X-4216747Y39202041D01*
X-4200344Y39203269D01*
X-4182772Y39206052D01*
X-4174958Y39206667D01*
X-3992820Y39206667D01*
X-3985006Y39206052D01*
X-3967434Y39203269D01*
X-3951031Y39202041D01*
X-3937188Y39202146D01*
X-3921812Y39199830D01*
X-3905006Y39194510D01*
X-3890465Y39191078D01*
X-3873060Y39188322D01*
X-3858262Y39183514D01*
X-3845929Y39177230D01*
X-3830708Y39170992D01*
X-3813750Y39165624D01*
X-3806483Y39162678D01*
X-3756031Y39137452D01*
X-3665910Y39137793D01*
X-3576172Y39183517D01*
X-3561391Y39188320D01*
X-3453327Y39205435D01*
X-3437783Y39205435D01*
X-3373078Y39195187D01*
X-3332261Y39198340D01*
X-3332255Y39198302D01*
X-3331765Y39198378D01*
X-3326809Y39198761D01*
X-3324479Y39199511D01*
X-3309117Y39201898D01*
X-3294096Y39201855D01*
X-3278166Y39203086D01*
X-3259439Y39206052D01*
X-3251623Y39206667D01*
X-3163930Y39206667D01*
X-3156117Y39206052D01*
X-3044163Y39188321D01*
X-3029382Y39183518D01*
X-2931895Y39133846D01*
X-2919321Y39124710D01*
X-2841956Y39047345D01*
X-2832820Y39034771D01*
X-2783148Y38937284D01*
X-2778345Y38922503D01*
X-2761230Y38814439D01*
X-2761230Y38798895D01*
X-2778345Y38690831D01*
X-2783148Y38676050D01*
X-2832820Y38578563D01*
X-2841956Y38565989D01*
X-2919321Y38488624D01*
X-2931900Y38479485D01*
X-2990955Y38449394D01*
X-3034963Y38405085D01*
X-3045555Y38360295D01*
X-3045555Y38143931D01*
X-3046170Y38136118D01*
X-3063901Y38024164D01*
X-3068704Y38009383D01*
X-3118376Y37911896D01*
X-3127512Y37899322D01*
X-3204877Y37821957D01*
X-3217451Y37812821D01*
X-3314938Y37763149D01*
X-3329719Y37758346D01*
X-3437783Y37741231D01*
X-3453327Y37741231D01*
X-3561388Y37758346D01*
X-3576177Y37763151D01*
X-3600156Y37775369D01*
X-3690954Y37775369D01*
X-3714933Y37763151D01*
X-3729722Y37758346D01*
X-3837783Y37741231D01*
X-3853328Y37741231D01*
X-3866303Y37743286D01*
X-3881547Y37743347D01*
X-3881539Y37744461D01*
X-3903253Y37744626D01*
X-3919656Y37743398D01*
X-3937228Y37740615D01*
X-3945042Y37740000D01*
X-4174956Y37740000D01*
X-4182767Y37740615D01*
X-4200346Y37743399D01*
X-4216750Y37744627D01*
X-4230598Y37744522D01*
X-4245962Y37746836D01*
X-4262768Y37752156D01*
X-4277303Y37755587D01*
X-4294719Y37758345D01*
X-4309509Y37763151D01*
X-4321849Y37769439D01*
X-4337073Y37775677D01*
X-4354029Y37781044D01*
X-4361290Y37783987D01*
X-4449818Y37828251D01*
X-4459889Y37834317D01*
X-4459970Y37834182D01*
X-4464034Y37836672D01*
X-4486062Y37852933D01*
X-4545374Y37872479D01*
X-4605179Y37852683D01*
X-4624576Y37838238D01*
X-4624820Y37838110D01*
X-4631150Y37834213D01*
X-4631216Y37834322D01*
X-4641292Y37828251D01*
X-4729821Y37783987D01*
X-4737083Y37781043D01*
X-4754041Y37775675D01*
X-4769262Y37769437D01*
X-4781599Y37763151D01*
X-4796387Y37758346D01*
X-4813806Y37755587D01*
X-4828340Y37752156D01*
X-4845148Y37746836D01*
X-4860520Y37744521D01*
X-4874364Y37744626D01*
X-4890767Y37743398D01*
X-4908339Y37740615D01*
X-4916153Y37740000D01*
X-5289402Y37740000D01*
X-5297215Y37740615D01*
X-5409169Y37758346D01*
X-5423950Y37763149D01*
X-5521438Y37812822D01*
X-5521942Y37813188D01*
X-5522523Y37813375D01*
X-5528447Y37816393D01*
X-5528935Y37815434D01*
X-5581400Y37832286D01*
X-5625443Y37821731D01*
X-5700932Y37783987D01*
X-5708194Y37781043D01*
X-5725152Y37775675D01*
X-5740373Y37769437D01*
X-5752710Y37763151D01*
X-5767498Y37758346D01*
X-5784917Y37755587D01*
X-5799451Y37752156D01*
X-5816259Y37746836D01*
X-5831631Y37744521D01*
X-5845475Y37744626D01*
X-5861878Y37743398D01*
X-5879450Y37740615D01*
X-5887264Y37740000D01*
X-6022733Y37740000D01*
X-6030547Y37740615D01*
X-6049281Y37743582D01*
X-6065212Y37744813D01*
X-6080231Y37744770D01*
X-6095587Y37747156D01*
X-6111249Y37752195D01*
X-6126229Y37755769D01*
X-6142501Y37758346D01*
X-6157287Y37763150D01*
X-6170673Y37769971D01*
X-6185448Y37776066D01*
X-6203482Y37781868D01*
X-6210742Y37784850D01*
X-6298173Y37829080D01*
X-6306653Y37834243D01*
X-6352851Y37867808D01*
X-6353096Y37867985D01*
X-6357545Y37871197D01*
X-6417060Y37890114D01*
X-6474233Y37871471D01*
X-6479781Y37867505D01*
X-6480405Y37867055D01*
X-6525605Y37834215D01*
X-6525667Y37834318D01*
X-6535743Y37828248D01*
X-6624265Y37783987D01*
X-6631527Y37781043D01*
X-6648485Y37775675D01*
X-6663706Y37769437D01*
X-6676043Y37763151D01*
X-6690831Y37758346D01*
X-6708250Y37755587D01*
X-6722784Y37752156D01*
X-6739592Y37746836D01*
X-6754964Y37744521D01*
X-6768808Y37744626D01*
X-6785211Y37743398D01*
X-6802783Y37740615D01*
X-6810597Y37740000D01*
X-6946066Y37740000D01*
X-6946066Y33379620D01*
X-5985620Y34340066D01*
X-5979666Y34345151D01*
X-5887962Y34411778D01*
X-5874114Y34418834D01*
X-5770057Y34452645D01*
X-5754705Y34455076D01*
X-5645295Y34455076D01*
X-5629943Y34452645D01*
X-5525886Y34418834D01*
X-5512038Y34411778D01*
X-5420334Y34345151D01*
X-5414380Y34340066D01*
X-2879934Y31805620D01*
X-2874849Y31799667D01*
X-2863278Y31783740D01*
X-2853087Y31771808D01*
X-2841960Y31760681D01*
X-2832821Y31748103D01*
X-2825675Y31734077D01*
X-2817476Y31720698D01*
X-2808222Y31707961D01*
X-2801165Y31694111D01*
X-2796300Y31679138D01*
X-2790295Y31664640D01*
X-2783148Y31650614D01*
X-2778346Y31635835D01*
X-2775884Y31620288D01*
X-2772220Y31605028D01*
X-2767358Y31590064D01*
X-2764924Y31574700D01*
X-2764924Y31558961D01*
X-2763693Y31543319D01*
X-2761231Y31527774D01*
X-2761231Y31512226D01*
X-2763693Y31496681D01*
X-2764924Y31481039D01*
X-2764924Y31465300D01*
X-2767358Y31449936D01*
X-2772220Y31434972D01*
X-2775884Y31419712D01*
X-2778346Y31404165D01*
X-2783148Y31389386D01*
X-2790295Y31375360D01*
X-2796300Y31360862D01*
X-2801165Y31345889D01*
X-2808222Y31332039D01*
X-2817476Y31319302D01*
X-2825675Y31305923D01*
X-2832821Y31291897D01*
X-2841960Y31279319D01*
X-2853087Y31268192D01*
X-2863278Y31256260D01*
X-2872532Y31243523D01*
X-2883523Y31232532D01*
X-2896260Y31223278D01*
X-2908192Y31213087D01*
X-2919319Y31201960D01*
X-2931897Y31192821D01*
X-2945923Y31185675D01*
X-2959302Y31177476D01*
X-2972039Y31168222D01*
X-2985889Y31161165D01*
X-3000862Y31156300D01*
X-3015360Y31150295D01*
X-3029386Y31143148D01*
X-3044165Y31138346D01*
X-3059712Y31135884D01*
X-3074972Y31132220D01*
X-3089936Y31127358D01*
X-3105300Y31124924D01*
X-3121040Y31124924D01*
X-3136683Y31123693D01*
X-3156118Y31120615D01*
X-3163931Y31120000D01*
X-8236069Y31120000D01*
X-8236069Y26761739D01*
X-7989889Y26853751D01*
X-7987453Y26854591D01*
X-7960548Y26863102D01*
X-7958090Y26863810D01*
X-7592452Y26959130D01*
X-7589939Y26959716D01*
X-7562310Y26965423D01*
X-7559790Y26965876D01*
X-7186280Y27023225D01*
X-7183769Y27023545D01*
X-7155695Y27026391D01*
X-7153114Y27026586D01*
X-6775703Y27045353D01*
X-6773180Y27045414D01*
X-6744941Y27045367D01*
X-6742378Y27045297D01*
X-6365041Y27025286D01*
X-6362478Y27025083D01*
X-6334444Y27022148D01*
X-6331857Y27021810D01*
X-5958574Y26963235D01*
X-5956067Y26962776D01*
X-5928455Y26956978D01*
X-5925935Y26956381D01*
X-5560613Y26859857D01*
X-5558165Y26859142D01*
X-5531292Y26850544D01*
X-5528849Y26849692D01*
X-5175358Y26716241D01*
X-5172967Y26715268D01*
X-5147136Y26703970D01*
X-5144779Y26702867D01*
X-4806829Y26533891D01*
X-4804560Y26532683D01*
X-4779973Y26518769D01*
X-4777825Y26517480D01*
X-4458919Y26314725D01*
X-4456812Y26313308D01*
X-4433794Y26296958D01*
X-4431738Y26295417D01*
X-4135314Y26061066D01*
X-4133365Y26059441D01*
X-4112147Y26040819D01*
X-4110249Y26039065D01*
X-3839433Y25775595D01*
X-3837628Y25773747D01*
X-3818436Y25753056D01*
X-3816756Y25751149D01*
X-3574318Y25461253D01*
X-3572754Y25459282D01*
X-3555773Y25436717D01*
X-3554281Y25434626D01*
X-3342859Y25121452D01*
X-3341489Y25119307D01*
X-3326897Y25095101D01*
X-3325651Y25092907D01*
X-3147427Y24759695D01*
X-3146277Y24757407D01*
X-3134267Y24731883D01*
X-3133220Y24729501D01*
X-2990110Y24379841D01*
X-2989182Y24377398D01*
X-2979858Y24350799D01*
X-2979066Y24348339D01*
X-2873461Y23988971D01*
X-2871701Y23980034D01*
X-2861898Y23885191D01*
X-2863336Y23867223D01*
X-2886901Y23779580D01*
X-2894668Y23763314D01*
X-2947744Y23690261D01*
X-2961561Y23677373D01*
X-3050642Y23621676D01*
X-3059617Y23617248D01*
X-8130620Y21720612D01*
X-8139410Y21718213D01*
X-8233298Y21701606D01*
X-8233298Y-2046500D01*
X-7435192Y-1900646D01*
X-7432152Y-1900042D01*
X-6188678Y-1632731D01*
X-6185659Y-1632032D01*
X-4951116Y-1326330D01*
X-4948120Y-1325539D01*
X-3723586Y-981714D01*
X-3720615Y-980830D01*
X-2507347Y-599233D01*
X-2504406Y-598258D01*
X-1303554Y-179253D01*
X-1300644Y-178186D01*
X-1252550Y-159714D01*
X-1252550Y30485000D01*
X-1257443Y30485241D01*
X-1452025Y30504405D01*
X-1461622Y30506314D01*
X-1646370Y30562357D01*
X-1655415Y30566104D01*
X-1825679Y30657111D01*
X-1833813Y30662546D01*
X-1983058Y30785027D01*
X-1989973Y30791942D01*
X-2112454Y30941187D01*
X-2117889Y30949321D01*
X-2208896Y31119585D01*
X-2212643Y31128630D01*
X-2268686Y31313378D01*
X-2270595Y31322975D01*
X-2273656Y31354058D01*
X-2270703Y31367302D01*
X-2268330Y31369368D01*
X-2265227Y31369995D01*
X-2259213Y31369995D01*
X-2259213Y31670005D01*
X-2272103Y31674242D01*
X-2273924Y31676804D01*
X-2274245Y31679963D01*
X-2270595Y31717025D01*
X-2268686Y31726622D01*
X-2212643Y31911370D01*
X-2208896Y31920415D01*
X-2117889Y32090679D01*
X-2112454Y32098813D01*
X-1989973Y32248058D01*
X-1983058Y32254973D01*
X-1833813Y32377454D01*
X-1825679Y32382889D01*
X-1655415Y32473896D01*
X-1646370Y32477643D01*
X-1461622Y32533686D01*
X-1452025Y32535595D01*
X-1257443Y32554759D01*
X-1252550Y32555000D01*
X-786018Y32555000D01*
X-781253Y32553434D01*
X-770005Y32531172D01*
X-770005Y32155000D01*
X-1255000Y32155000D01*
X-1406965Y32136548D01*
X-1550099Y32082265D01*
X-1676083Y31995304D01*
X-1777595Y31880721D01*
X-1848735Y31745174D01*
X-1867263Y31670005D01*
X-2259213Y31670005D01*
X-2259213Y31369995D01*
X-1867263Y31369995D01*
X-1848735Y31294826D01*
X-1777595Y31159279D01*
X-1676083Y31044696D01*
X-1550099Y30957735D01*
X-1406965Y30903452D01*
X-1255000Y30885000D01*
X-770005Y30885000D01*
X-770005Y30501013D01*
X-771571Y30496248D01*
X-793833Y30485000D01*
X-1252550Y30485000D01*
X-1252550Y-159714D01*
X-453982Y147000D01*
X-453982Y30485000D01*
X-458747Y30486566D01*
X-469995Y30508828D01*
X-469995Y30885000D01*
X15000Y30885000D01*
X166965Y30903452D01*
X310099Y30957735D01*
X436083Y31044696D01*
X537595Y31159279D01*
X608735Y31294826D01*
X627263Y31369995D01*
X627263Y31670005D01*
X608735Y31745174D01*
X537595Y31880721D01*
X436083Y31995304D01*
X310099Y32082265D01*
X166965Y32136548D01*
X15000Y32155000D01*
X-469995Y32155000D01*
X-469995Y32538987D01*
X-468429Y32543752D01*
X-446167Y32555000D01*
X12550Y32555000D01*
X17443Y32554759D01*
X212025Y32535595D01*
X221622Y32533686D01*
X406370Y32477643D01*
X415415Y32473896D01*
X585679Y32382889D01*
X593813Y32377454D01*
X743058Y32254973D01*
X749973Y32248058D01*
X872454Y32098813D01*
X877889Y32090679D01*
X968896Y31920415D01*
X972643Y31911370D01*
X1028686Y31726622D01*
X1030595Y31717025D01*
X1033656Y31685942D01*
X1030703Y31672698D01*
X1028330Y31670632D01*
X1025227Y31670005D01*
X627263Y31670005D01*
X627263Y31369995D01*
X1019213Y31369995D01*
X1032103Y31365758D01*
X1033924Y31363196D01*
X1034245Y31360037D01*
X1030595Y31322975D01*
X1028686Y31313378D01*
X972643Y31128630D01*
X968896Y31119585D01*
X877889Y30949321D01*
X872454Y30941187D01*
X749973Y30791942D01*
X743058Y30785027D01*
X593813Y30662546D01*
X585679Y30657111D01*
X415415Y30566104D01*
X406370Y30562357D01*
X221622Y30506314D01*
X212025Y30504405D01*
X17443Y30485241D01*
X12550Y30485000D01*
X-453982Y30485000D01*
X-453982Y147000D01*
X-110471Y278937D01*
X-104542Y280800D01*
X-38266Y297175D01*
X-32142Y298289D01*
X28004572Y3614458D01*
X28004572Y20700000D01*
X27995502Y20700832D01*
X27901747Y20718166D01*
X27884908Y20724613D01*
X27807466Y20771932D01*
X27794049Y20783972D01*
X27739481Y20854769D01*
X27730579Y20873350D01*
X27701391Y20994240D01*
X27700000Y21005926D01*
X27700000Y32995428D01*
X27700832Y33004498D01*
X27717947Y33097070D01*
X27725656Y33115850D01*
X27793577Y33215944D01*
X27801061Y33224625D01*
X28140035Y33536673D01*
X28141584Y33538040D01*
X28158926Y33552729D01*
X28160528Y33554030D01*
X28527855Y33839933D01*
X28529506Y33841164D01*
X28547994Y33854364D01*
X28549731Y33855550D01*
X28939416Y34110144D01*
X28941112Y34111203D01*
X28960670Y34122856D01*
X28962486Y34123888D01*
X29371833Y34345415D01*
X29373652Y34346352D01*
X29394104Y34356351D01*
X29395977Y34357219D01*
X29822244Y34544197D01*
X29824107Y34544969D01*
X29845334Y34553252D01*
X29847242Y34553951D01*
X30287523Y34705100D01*
X30289459Y34705720D01*
X30311290Y34712220D01*
X30313231Y34712754D01*
X30764481Y34827026D01*
X30766487Y34827490D01*
X30788731Y34832154D01*
X30790779Y34832539D01*
X31249905Y34909153D01*
X31251917Y34909446D01*
X31274467Y34912257D01*
X31276583Y34912477D01*
X31384327Y34921404D01*
X31441842Y34945736D01*
X31473705Y34999445D01*
X31471852Y35049796D01*
X30724904Y37539622D01*
X30689179Y37590843D01*
X30629122Y37610886D01*
X23842384Y37610886D01*
X23835875Y37611312D01*
X23703255Y37628771D01*
X23690713Y37632132D01*
X23570168Y37682064D01*
X23558914Y37688562D01*
X23452801Y37769985D01*
X23447892Y37774290D01*
X22661471Y38560711D01*
X22590761Y38590000D01*
X537966Y38590000D01*
X477959Y38569994D01*
X465689Y38560790D01*
X457329Y38555716D01*
X298718Y38479637D01*
X294171Y38477724D01*
X147182Y38424225D01*
X98102Y38385610D01*
X81502Y38325407D01*
X103856Y38267096D01*
X147181Y38236289D01*
X381784Y38150900D01*
X387784Y38148260D01*
X448522Y38116642D01*
X459170Y38109186D01*
X507246Y38065133D01*
X515598Y38055178D01*
X552397Y37997417D01*
X555539Y37991690D01*
X902883Y37246808D01*
X905248Y37240728D01*
X925844Y37175405D01*
X928101Y37162605D01*
X930945Y37097463D01*
X929812Y37084513D01*
X914989Y37017650D01*
X913159Y37011374D01*
X290044Y35299380D01*
X287404Y35293380D01*
X255786Y35232642D01*
X248330Y35221994D01*
X204279Y35173921D01*
X201517Y35171603D01*
X200180Y35169448D01*
X199849Y35169086D01*
X199917Y35169023D01*
X168604Y35118530D01*
X173596Y35056280D01*
X214546Y35009131D01*
X265795Y34995000D01*
X646069Y34995000D01*
X653882Y34994385D01*
X734931Y34981548D01*
X749718Y34976744D01*
X819326Y34941277D01*
X831899Y34932142D01*
X887142Y34876899D01*
X896277Y34864326D01*
X931744Y34794718D01*
X936548Y34779931D01*
X949385Y34698882D01*
X950000Y34691069D01*
X950000Y33428931D01*
X949385Y33421118D01*
X936548Y33340069D01*
X931744Y33325282D01*
X896277Y33255674D01*
X887142Y33243101D01*
X831899Y33187858D01*
X819326Y33178723D01*
X749718Y33143256D01*
X734931Y33138452D01*
X653882Y33125615D01*
X646069Y33125000D01*
X-1886069Y33125000D01*
X-1893882Y33125615D01*
X-1974931Y33138452D01*
X-1989718Y33143256D01*
X-2059326Y33178723D01*
X-2071899Y33187858D01*
X-2127142Y33243101D01*
X-2136277Y33255674D01*
X-2171744Y33325282D01*
X-2176548Y33340069D01*
X-2189385Y33421118D01*
X-2190000Y33428931D01*
X-2190000Y34691069D01*
X-2189385Y34698882D01*
X-2176548Y34779931D01*
X-2171744Y34794718D01*
X-2136277Y34864326D01*
X-2127142Y34876899D01*
X-2071899Y34932142D01*
X-2059326Y34941277D01*
X-1989718Y34976744D01*
X-1974931Y34981548D01*
X-1893882Y34994385D01*
X-1886069Y34995000D01*
X-1842425Y34995000D01*
X-1783098Y35014500D01*
X-1746909Y35065395D01*
X-1758087Y35148728D01*
X-1792397Y35202583D01*
X-1795539Y35208310D01*
X-2142883Y35953192D01*
X-2145248Y35959272D01*
X-2165844Y36024595D01*
X-2168101Y36037395D01*
X-2170945Y36102537D01*
X-2169812Y36115487D01*
X-2154989Y36182350D01*
X-2153159Y36188626D01*
X-1530044Y37900620D01*
X-1527406Y37906615D01*
X-1519431Y37921936D01*
X-1509335Y37983564D01*
X-1537770Y38039165D01*
X-1574957Y38062445D01*
X-1607218Y38073790D01*
X-1616084Y38077925D01*
X-1765355Y38166291D01*
X-1773234Y38172068D01*
X-1902399Y38287859D01*
X-1909012Y38295076D01*
X-2013100Y38433835D01*
X-2018172Y38442194D01*
X-2093194Y38598602D01*
X-2096537Y38607786D01*
X-2139603Y38775823D01*
X-2141091Y38785489D01*
X-2150548Y38958693D01*
X-2150121Y38968469D01*
X-2125605Y39140187D01*
X-2123279Y39149691D01*
X-2065733Y39313331D01*
X-2061598Y39322197D01*
X-1973232Y39471468D01*
X-1967455Y39479347D01*
X-1851664Y39608512D01*
X-1844447Y39615125D01*
X-1705684Y39719216D01*
X-1697334Y39724283D01*
X-1538709Y39800368D01*
X-1534182Y39802272D01*
X-345404Y40234951D01*
X-340692Y40236408D01*
X-170290Y40280080D01*
X-160625Y40281568D01*
X12580Y40291025D01*
X22356Y40290598D01*
X194074Y40266082D01*
X203578Y40263756D01*
X367218Y40206210D01*
X376084Y40202075D01*
X525354Y40113710D01*
X533233Y40107933D01*
X662398Y39992142D01*
X669011Y39984925D01*
X773099Y39846166D01*
X778171Y39837807D01*
X821847Y39746751D01*
X865086Y39701693D01*
X912010Y39690000D01*
X3563513Y39690000D01*
X3563513Y42900419D01*
X3370501Y42917217D01*
X3361439Y42918858D01*
X3174791Y42970839D01*
X3166198Y42974113D01*
X2992278Y43059506D01*
X2984427Y43064307D01*
X2829166Y43180199D01*
X2822329Y43186362D01*
X2691002Y43328814D01*
X2685417Y43336124D01*
X2582504Y43500279D01*
X2578352Y43508503D01*
X2507360Y43688759D01*
X2504787Y43697614D01*
X2468125Y43887852D01*
X2467224Y43897013D01*
X2466142Y44090754D01*
X2466940Y44099926D01*
X2501476Y44290561D01*
X2503948Y44299439D01*
X2573752Y44482655D01*
X2575586Y44486871D01*
X4369607Y48140760D01*
X4371824Y48144795D01*
X4456435Y48283166D01*
X4456435Y57660255D01*
X4207399Y57678066D01*
X4200344Y57679080D01*
X3956364Y57732155D01*
X3949538Y57734160D01*
X3715596Y57821415D01*
X3709123Y57824371D01*
X3489977Y57944035D01*
X3483988Y57947884D01*
X3284110Y58097510D01*
X3278727Y58102175D01*
X3102175Y58278727D01*
X3097510Y58284110D01*
X2947884Y58483988D01*
X2944035Y58489977D01*
X2824371Y58709123D01*
X2821415Y58715596D01*
X2734160Y58949538D01*
X2732155Y58956364D01*
X2679080Y59200344D01*
X2678066Y59207399D01*
X2660255Y59456435D01*
X2660255Y59463565D01*
X2678066Y59712601D01*
X2679080Y59719656D01*
X2732155Y59963636D01*
X2734160Y59970462D01*
X2821415Y60204404D01*
X2824371Y60210877D01*
X2944035Y60430023D01*
X2947884Y60436012D01*
X3097510Y60635890D01*
X3102175Y60641273D01*
X3278727Y60817825D01*
X3284110Y60822490D01*
X3483988Y60972116D01*
X3489977Y60975965D01*
X3709123Y61095629D01*
X3715596Y61098585D01*
X3949538Y61185840D01*
X3956364Y61187845D01*
X4200344Y61240920D01*
X4207399Y61241934D01*
X4456435Y61259745D01*
X4463565Y61259745D01*
X4712601Y61241934D01*
X4719656Y61240920D01*
X4963636Y61187845D01*
X4970462Y61185840D01*
X5204404Y61098585D01*
X5210877Y61095629D01*
X5430023Y60975965D01*
X5436012Y60972116D01*
X5635890Y60822490D01*
X5641273Y60817825D01*
X5817825Y60641273D01*
X5822490Y60635890D01*
X5972116Y60436012D01*
X5975965Y60430023D01*
X6095629Y60210877D01*
X6098585Y60204404D01*
X6185840Y59970462D01*
X6187845Y59963636D01*
X6240920Y59719656D01*
X6241934Y59712601D01*
X6259745Y59463565D01*
X6259745Y59456435D01*
X6241934Y59207399D01*
X6240920Y59200344D01*
X6187845Y58956364D01*
X6185840Y58949538D01*
X6098585Y58715596D01*
X6095629Y58709123D01*
X5975965Y58489977D01*
X5972116Y58483988D01*
X5822490Y58284110D01*
X5817825Y58278727D01*
X5641273Y58102175D01*
X5635890Y58097510D01*
X5436012Y57947884D01*
X5430023Y57944035D01*
X5210877Y57824371D01*
X5204404Y57821415D01*
X4970462Y57734160D01*
X4963636Y57732155D01*
X4719656Y57679080D01*
X4712601Y57678066D01*
X4463565Y57660255D01*
X4456435Y57660255D01*
X4456435Y48283166D01*
X4474108Y48312069D01*
X4479613Y48319444D01*
X4609338Y48463350D01*
X4616102Y48469587D01*
X4770058Y48587205D01*
X4777867Y48592101D01*
X4950814Y48679427D01*
X4959373Y48682798D01*
X5145426Y48736860D01*
X5154466Y48738602D01*
X5347282Y48757556D01*
X5356487Y48757607D01*
X5549499Y48740809D01*
X5558561Y48739168D01*
X5745209Y48687187D01*
X5753802Y48683913D01*
X5927722Y48598520D01*
X5935573Y48593719D01*
X6090834Y48477827D01*
X6097671Y48471664D01*
X6228998Y48329212D01*
X6234583Y48321902D01*
X6337496Y48157747D01*
X6341648Y48149523D01*
X6412640Y47969267D01*
X6415213Y47960412D01*
X6451875Y47770174D01*
X6452776Y47761013D01*
X6453858Y47567272D01*
X6453060Y47558100D01*
X6418524Y47367465D01*
X6416052Y47358587D01*
X6346248Y47175371D01*
X6344414Y47171155D01*
X4550393Y43517266D01*
X4548176Y43513231D01*
X4445892Y43345957D01*
X4440387Y43338582D01*
X4310662Y43194676D01*
X4303898Y43188439D01*
X4149942Y43070821D01*
X4142133Y43065925D01*
X3969186Y42978599D01*
X3960627Y42975228D01*
X3774574Y42921166D01*
X3765534Y42919424D01*
X3572718Y42900470D01*
X3563513Y42900419D01*
X3563513Y39690000D01*
X11995645Y39690000D01*
X11995645Y44700381D01*
X11778613Y44719369D01*
X11770038Y44720880D01*
X11559582Y44777272D01*
X11551423Y44780243D01*
X11353960Y44872320D01*
X11346419Y44876674D01*
X11167951Y45001638D01*
X11161291Y45007227D01*
X11007227Y45161291D01*
X11001638Y45167951D01*
X10876674Y45346419D01*
X10872320Y45353960D01*
X10780243Y45551423D01*
X10777272Y45559582D01*
X10720880Y45770038D01*
X10719369Y45778613D01*
X10700381Y45995645D01*
X10700381Y46004355D01*
X10719369Y46221387D01*
X10720880Y46229962D01*
X10777272Y46440418D01*
X10780243Y46448577D01*
X10872320Y46646040D01*
X10876674Y46653581D01*
X11001638Y46832049D01*
X11007227Y46838709D01*
X11161291Y46992773D01*
X11167951Y46998362D01*
X11346419Y47123326D01*
X11353960Y47127680D01*
X11551423Y47219757D01*
X11559582Y47222728D01*
X11770038Y47279120D01*
X11778613Y47280631D01*
X11995645Y47299619D01*
X12004355Y47299619D01*
X12221387Y47280631D01*
X12229962Y47279120D01*
X12440418Y47222728D01*
X12448577Y47219757D01*
X12646040Y47127680D01*
X12653581Y47123326D01*
X12832049Y46998362D01*
X12838709Y46992773D01*
X12992773Y46838709D01*
X12998362Y46832049D01*
X13123326Y46653581D01*
X13127680Y46646040D01*
X13219757Y46448577D01*
X13222728Y46440418D01*
X13279120Y46229962D01*
X13280631Y46221387D01*
X13299619Y46004355D01*
X13299619Y45995645D01*
X13280631Y45778613D01*
X13279120Y45770038D01*
X13222728Y45559582D01*
X13219757Y45551423D01*
X13127680Y45353960D01*
X13123326Y45346419D01*
X12998362Y45167951D01*
X12992773Y45161291D01*
X12838709Y45007227D01*
X12832049Y45001638D01*
X12653581Y44876674D01*
X12646040Y44872320D01*
X12448577Y44780243D01*
X12440418Y44777272D01*
X12229962Y44720880D01*
X12221387Y44719369D01*
X12004355Y44700381D01*
X11995645Y44700381D01*
X11995645Y39690000D01*
X15995645Y39690000D01*
X15995645Y44700381D01*
X15778613Y44719369D01*
X15770038Y44720880D01*
X15559582Y44777272D01*
X15551423Y44780243D01*
X15353960Y44872320D01*
X15346419Y44876674D01*
X15167951Y45001638D01*
X15161291Y45007227D01*
X15007227Y45161291D01*
X15001638Y45167951D01*
X14876674Y45346419D01*
X14872320Y45353960D01*
X14780243Y45551423D01*
X14777272Y45559582D01*
X14720880Y45770038D01*
X14719369Y45778613D01*
X14700381Y45995645D01*
X14700381Y46004355D01*
X14719369Y46221387D01*
X14720880Y46229962D01*
X14777272Y46440418D01*
X14780243Y46448577D01*
X14872320Y46646040D01*
X14876674Y46653581D01*
X15001638Y46832049D01*
X15007227Y46838709D01*
X15161291Y46992773D01*
X15167951Y46998362D01*
X15346419Y47123326D01*
X15353960Y47127680D01*
X15551423Y47219757D01*
X15559582Y47222728D01*
X15770038Y47279120D01*
X15778613Y47280631D01*
X15995645Y47299619D01*
X16004355Y47299619D01*
X16221387Y47280631D01*
X16229962Y47279120D01*
X16440418Y47222728D01*
X16448577Y47219757D01*
X16646040Y47127680D01*
X16653581Y47123326D01*
X16832049Y46998362D01*
X16838709Y46992773D01*
X16992773Y46838709D01*
X16998362Y46832049D01*
X17123326Y46653581D01*
X17127680Y46646040D01*
X17219757Y46448577D01*
X17222728Y46440418D01*
X17279120Y46229962D01*
X17280631Y46221387D01*
X17299619Y46004355D01*
X17299619Y45995645D01*
X17280631Y45778613D01*
X17279120Y45770038D01*
X17222728Y45559582D01*
X17219757Y45551423D01*
X17127680Y45353960D01*
X17123326Y45346419D01*
X16998362Y45167951D01*
X16992773Y45161291D01*
X16838709Y45007227D01*
X16832049Y45001638D01*
X16653581Y44876674D01*
X16646040Y44872320D01*
X16448577Y44780243D01*
X16440418Y44777272D01*
X16229962Y44720880D01*
X16221387Y44719369D01*
X16004355Y44700381D01*
X15995645Y44700381D01*
X15995645Y39690000D01*
X19995645Y39690000D01*
X19995645Y44700381D01*
X19778613Y44719369D01*
X19770038Y44720880D01*
X19559582Y44777272D01*
X19551423Y44780243D01*
X19353960Y44872320D01*
X19346419Y44876674D01*
X19167951Y45001638D01*
X19161291Y45007227D01*
X19007227Y45161291D01*
X19001638Y45167951D01*
X18876674Y45346419D01*
X18872320Y45353960D01*
X18780243Y45551423D01*
X18777272Y45559582D01*
X18720880Y45770038D01*
X18719369Y45778613D01*
X18700381Y45995645D01*
X18700381Y46004355D01*
X18719369Y46221387D01*
X18720880Y46229962D01*
X18777272Y46440418D01*
X18780243Y46448577D01*
X18872320Y46646040D01*
X18876674Y46653581D01*
X19001638Y46832049D01*
X19007227Y46838709D01*
X19161291Y46992773D01*
X19167951Y46998362D01*
X19346419Y47123326D01*
X19353960Y47127680D01*
X19551423Y47219757D01*
X19559582Y47222728D01*
X19770038Y47279120D01*
X19778613Y47280631D01*
X19995645Y47299619D01*
X20004355Y47299619D01*
X20221387Y47280631D01*
X20229962Y47279120D01*
X20440418Y47222728D01*
X20448577Y47219757D01*
X20646040Y47127680D01*
X20653581Y47123326D01*
X20832049Y46998362D01*
X20838709Y46992773D01*
X20992773Y46838709D01*
X20998362Y46832049D01*
X21123326Y46653581D01*
X21127680Y46646040D01*
X21219757Y46448577D01*
X21222728Y46440418D01*
X21279120Y46229962D01*
X21280631Y46221387D01*
X21299619Y46004355D01*
X21299619Y45995645D01*
X21280631Y45778613D01*
X21279120Y45770038D01*
X21222728Y45559582D01*
X21219757Y45551423D01*
X21127680Y45353960D01*
X21123326Y45346419D01*
X20998362Y45167951D01*
X20992773Y45161291D01*
X20838709Y45007227D01*
X20832049Y45001638D01*
X20653581Y44876674D01*
X20646040Y44872320D01*
X20448577Y44780243D01*
X20440418Y44777272D01*
X20229962Y44720880D01*
X20221387Y44719369D01*
X20004355Y44700381D01*
X19995645Y44700381D01*
X19995645Y39690000D01*
X22856731Y39690000D01*
X22863240Y39689574D01*
X22995860Y39672115D01*
X23008402Y39668754D01*
X23128949Y39618821D01*
X23140200Y39612325D01*
X23184457Y39578365D01*
X23243490Y39533067D01*
X23247871Y39528638D01*
X23250552Y39527265D01*
X23388901Y39388916D01*
X23388917Y39388901D01*
X24037643Y38740175D01*
X24108353Y38710886D01*
X30239123Y38710886D01*
X30298450Y38730386D01*
X30334639Y38781281D01*
X30334905Y38839620D01*
X29729690Y40857003D01*
X29728500Y40861831D01*
X29718079Y40915458D01*
X29717372Y40920399D01*
X29714551Y40950843D01*
X29715023Y40963670D01*
X29738196Y41102070D01*
X29741925Y41114340D01*
X29763334Y41161744D01*
X29767154Y41168677D01*
X29815005Y41241238D01*
X29819883Y41247493D01*
X30058739Y41508158D01*
X30064346Y41514840D01*
X30305958Y41829714D01*
X30310962Y41836860D01*
X30524204Y42171582D01*
X30528566Y42179138D01*
X30711825Y42531175D01*
X30715512Y42539081D01*
X30867390Y42905749D01*
X30870374Y42913947D01*
X30989724Y43292475D01*
X30991982Y43300901D01*
X31077884Y43688382D01*
X31079398Y43696974D01*
X31131198Y44090434D01*
X31131959Y44099124D01*
X31149272Y44495638D01*
X31149272Y44504362D01*
X31131959Y44900876D01*
X31131198Y44909566D01*
X31079398Y45303026D01*
X31077884Y45311618D01*
X30991982Y45699099D01*
X30989724Y45707525D01*
X30870374Y46086053D01*
X30867390Y46094251D01*
X30715512Y46460919D01*
X30711825Y46468825D01*
X30528566Y46820862D01*
X30524204Y46828418D01*
X30310962Y47163140D01*
X30305958Y47170286D01*
X30064346Y47485160D01*
X30058739Y47491842D01*
X29810362Y47762898D01*
X29804456Y47770782D01*
X29748572Y47863158D01*
X29744336Y47872036D01*
X29721542Y47935195D01*
X29719129Y47944749D01*
X29703142Y48051514D01*
X29702652Y48061350D01*
X29719353Y48401309D01*
X29719424Y48402468D01*
X29720421Y48415974D01*
X29720526Y48417193D01*
X29721363Y48425692D01*
X29721505Y48426973D01*
X29723151Y48440319D01*
X29723320Y48441561D01*
X29779297Y48818926D01*
X29779495Y48820155D01*
X29781800Y48833435D01*
X29782022Y48834628D01*
X29783711Y48843121D01*
X29783945Y48844226D01*
X29786913Y48857439D01*
X29787193Y48858617D01*
X29879888Y49228676D01*
X29880200Y49229858D01*
X29883794Y49242847D01*
X29884145Y49244059D01*
X29886622Y49252225D01*
X29887007Y49253441D01*
X29891251Y49266286D01*
X29891619Y49267357D01*
X30020164Y49626617D01*
X30020575Y49627725D01*
X30025434Y49640321D01*
X30025911Y49641513D01*
X30029208Y49649473D01*
X30029647Y49650498D01*
X30035123Y49662851D01*
X30035663Y49664031D01*
X30198754Y50008855D01*
X30199282Y50009938D01*
X30205374Y50022039D01*
X30205917Y50023086D01*
X30209994Y50030713D01*
X30210538Y50031702D01*
X30217222Y50043503D01*
X30217835Y50044555D01*
X30413941Y50371736D01*
X30414644Y50372877D01*
X30421831Y50384226D01*
X30422486Y50385233D01*
X30427292Y50392425D01*
X30427961Y50393400D01*
X30435752Y50404463D01*
X30436436Y50405409D01*
X30663688Y50711822D01*
X30664457Y50712833D01*
X30672772Y50723488D01*
X30673503Y50724401D01*
X30679004Y50731104D01*
X30679737Y50731975D01*
X30688604Y50742254D01*
X30689369Y50743119D01*
X30945545Y51025765D01*
X30946439Y51026728D01*
X30955713Y51036469D01*
X30956574Y51037351D01*
X30962649Y51043426D01*
X30963531Y51044287D01*
X30973272Y51053561D01*
X30974235Y51054455D01*
X31256881Y51310631D01*
X31257746Y51311396D01*
X31268025Y51320263D01*
X31268896Y51320996D01*
X31275599Y51326497D01*
X31276512Y51327228D01*
X31287167Y51335543D01*
X31288178Y51336312D01*
X31594591Y51563564D01*
X31595537Y51564248D01*
X31606600Y51572039D01*
X31607575Y51572708D01*
X31614767Y51577514D01*
X31615774Y51578169D01*
X31627123Y51585356D01*
X31628264Y51586059D01*
X31955445Y51782165D01*
X31956497Y51782778D01*
X31968298Y51789462D01*
X31969287Y51790006D01*
X31976914Y51794083D01*
X31977961Y51794626D01*
X31990062Y51800718D01*
X31991145Y51801246D01*
X32335969Y51964337D01*
X32337149Y51964877D01*
X32349502Y51970353D01*
X32350527Y51970792D01*
X32358487Y51974089D01*
X32359679Y51974566D01*
X32372275Y51979425D01*
X32373383Y51979836D01*
X32732643Y52108381D01*
X32733714Y52108749D01*
X32746559Y52112993D01*
X32747775Y52113378D01*
X32755941Y52115855D01*
X32757153Y52116206D01*
X32770142Y52119800D01*
X32771324Y52120112D01*
X33141383Y52212807D01*
X33142561Y52213087D01*
X33155774Y52216055D01*
X33156879Y52216289D01*
X33165372Y52217978D01*
X33166565Y52218200D01*
X33179845Y52220505D01*
X33181074Y52220703D01*
X33558439Y52276680D01*
X33559681Y52276849D01*
X33573027Y52278495D01*
X33574308Y52278637D01*
X33582807Y52279474D01*
X33584026Y52279579D01*
X33597532Y52280576D01*
X33598691Y52280647D01*
X33979780Y52299369D01*
X33980982Y52299413D01*
X33994445Y52299743D01*
X33995744Y52299759D01*
X34004256Y52299759D01*
X34005555Y52299743D01*
X34019018Y52299413D01*
X34020220Y52299369D01*
X34401309Y52280647D01*
X34402468Y52280576D01*
X34415974Y52279579D01*
X34417193Y52279474D01*
X34425692Y52278637D01*
X34426973Y52278495D01*
X34440319Y52276849D01*
X34441561Y52276680D01*
X34818926Y52220703D01*
X34820155Y52220505D01*
X34833435Y52218200D01*
X34834628Y52217978D01*
X34843121Y52216289D01*
X34844226Y52216055D01*
X34857439Y52213087D01*
X34858617Y52212807D01*
X35228676Y52120112D01*
X35229858Y52119800D01*
X35242847Y52116206D01*
X35244059Y52115855D01*
X35252225Y52113378D01*
X35253441Y52112993D01*
X35266286Y52108749D01*
X35267357Y52108381D01*
X35626617Y51979836D01*
X35627725Y51979425D01*
X35640321Y51974566D01*
X35641513Y51974089D01*
X35649473Y51970792D01*
X35650498Y51970353D01*
X35662851Y51964877D01*
X35664031Y51964337D01*
X36008855Y51801246D01*
X36009938Y51800718D01*
X36022039Y51794626D01*
X36023086Y51794083D01*
X36030713Y51790006D01*
X36031702Y51789462D01*
X36043503Y51782778D01*
X36044555Y51782165D01*
X36371736Y51586059D01*
X36372877Y51585356D01*
X36384226Y51578169D01*
X36385233Y51577514D01*
X36392425Y51572708D01*
X36393400Y51572039D01*
X36404463Y51564248D01*
X36405409Y51563564D01*
X36711822Y51336312D01*
X36712833Y51335543D01*
X36723488Y51327228D01*
X36724401Y51326497D01*
X36731104Y51320996D01*
X36731975Y51320263D01*
X36742254Y51311396D01*
X36743119Y51310631D01*
X37025765Y51054455D01*
X37026728Y51053561D01*
X37036469Y51044287D01*
X37037351Y51043426D01*
X37043426Y51037351D01*
X37044287Y51036469D01*
X37053561Y51026728D01*
X37054455Y51025765D01*
X37310631Y50743119D01*
X37311396Y50742254D01*
X37320263Y50731975D01*
X37320996Y50731104D01*
X37326497Y50724401D01*
X37327228Y50723488D01*
X37335543Y50712833D01*
X37336312Y50711822D01*
X37563564Y50405409D01*
X37564248Y50404463D01*
X37572039Y50393400D01*
X37572708Y50392425D01*
X37577514Y50385233D01*
X37578169Y50384226D01*
X37585356Y50372877D01*
X37586059Y50371736D01*
X37782165Y50044555D01*
X37782778Y50043503D01*
X37789462Y50031702D01*
X37790006Y50030713D01*
X37794083Y50023086D01*
X37794626Y50022039D01*
X37800718Y50009938D01*
X37801246Y50008855D01*
X37964337Y49664031D01*
X37964877Y49662851D01*
X37970353Y49650498D01*
X37970792Y49649473D01*
X37974089Y49641513D01*
X37974566Y49640321D01*
X37979425Y49627725D01*
X37979836Y49626617D01*
X38108381Y49267357D01*
X38108749Y49266286D01*
X38112993Y49253441D01*
X38113378Y49252225D01*
X38115855Y49244059D01*
X38116206Y49242847D01*
X38119800Y49229858D01*
X38120112Y49228676D01*
X38212807Y48858617D01*
X38213087Y48857439D01*
X38216055Y48844226D01*
X38216289Y48843121D01*
X38217978Y48834628D01*
X38218200Y48833435D01*
X38220505Y48820155D01*
X38220703Y48818926D01*
X38276680Y48441561D01*
X38276849Y48440319D01*
X38278495Y48426973D01*
X38278637Y48425692D01*
X38279474Y48417193D01*
X38279579Y48415974D01*
X38280576Y48402468D01*
X38280647Y48401309D01*
X38299505Y48017441D01*
X38299530Y48016870D01*
X38299781Y48010025D01*
X38299797Y48009504D01*
X38299901Y48005255D01*
X38299915Y48004446D01*
X38299995Y47997927D01*
X38300000Y47997191D01*
X38300000Y38810885D01*
X38319500Y38751558D01*
X38399999Y38710886D01*
X52068122Y38710886D01*
X52127449Y38730386D01*
X52166785Y38794596D01*
X52192104Y38947958D01*
X52194635Y38957405D01*
X52255741Y39119757D01*
X52260065Y39128525D01*
X52351662Y39275825D01*
X52357621Y39283592D01*
X52476202Y39410199D01*
X52483551Y39416643D01*
X52624553Y39517684D01*
X52633024Y39522575D01*
X52791021Y39594163D01*
X52800285Y39597308D01*
X52969220Y39636697D01*
X52978917Y39637974D01*
X53152283Y39643649D01*
X53162050Y39643009D01*
X53333192Y39614754D01*
X53342639Y39612223D01*
X53504991Y39551117D01*
X53513759Y39546793D01*
X53661059Y39455196D01*
X53668826Y39449237D01*
X53795433Y39330656D01*
X53801877Y39323307D01*
X53904354Y39180302D01*
X53907002Y39176196D01*
X54539553Y38080584D01*
X54541797Y38076216D01*
X54614397Y37915985D01*
X54617542Y37906721D01*
X54656931Y37737786D01*
X54658208Y37728089D01*
X54663883Y37554723D01*
X54663243Y37544956D01*
X54634988Y37373814D01*
X54632457Y37364367D01*
X54571351Y37202015D01*
X54567027Y37193247D01*
X54475430Y37045947D01*
X54469471Y37038180D01*
X54350890Y36911573D01*
X54343541Y36905129D01*
X54202539Y36804088D01*
X54194068Y36799197D01*
X54036071Y36727609D01*
X54026807Y36724464D01*
X53857872Y36685075D01*
X53848175Y36683798D01*
X53674809Y36678123D01*
X53665042Y36678763D01*
X53493900Y36707018D01*
X53484453Y36709549D01*
X53322101Y36770655D01*
X53313333Y36774979D01*
X53166033Y36866576D01*
X53158266Y36872535D01*
X53031659Y36991116D01*
X53025215Y36998465D01*
X52922738Y37141470D01*
X52920090Y37145576D01*
X52680310Y37560887D01*
X52633759Y37602515D01*
X52593708Y37610886D01*
X38399999Y37610886D01*
X38340672Y37591386D01*
X38300000Y37510887D01*
X38300000Y31105852D01*
X38298644Y31094307D01*
X38269121Y30970406D01*
X38265124Y30959487D01*
X38229461Y30888901D01*
X38223797Y30880119D01*
X38154891Y30794509D01*
X38140076Y30782112D01*
X38057020Y30736696D01*
X38048657Y30733071D01*
X37997445Y30716238D01*
X37989760Y30714373D01*
X37903924Y30700628D01*
X37896029Y30700000D01*
X37323114Y30700000D01*
X37263787Y30680500D01*
X37227598Y30629605D01*
X37228660Y30567164D01*
X37249020Y30532846D01*
X37380662Y30387601D01*
X37387601Y30380662D01*
X37649333Y30143442D01*
X37656919Y30137216D01*
X37940646Y29926790D01*
X37948805Y29921338D01*
X38251783Y29739739D01*
X38260438Y29735113D01*
X38579768Y29584081D01*
X38588835Y29580325D01*
X38921435Y29461320D01*
X38930825Y29458472D01*
X39273463Y29372645D01*
X39283088Y29370730D01*
X39632507Y29318898D01*
X39642273Y29317936D01*
X40010161Y29299863D01*
X40019164Y29298589D01*
X40111967Y29276673D01*
X40128466Y29269408D01*
X40203490Y29218348D01*
X40216304Y29205661D01*
X40267685Y29131763D01*
X40275433Y29113935D01*
X40298879Y29005201D01*
X40300000Y28994681D01*
X40300000Y21004572D01*
X40299168Y20995502D01*
X40281834Y20901747D01*
X40275387Y20884908D01*
X40228068Y20807466D01*
X40216028Y20794049D01*
X40145231Y20739481D01*
X40126650Y20730579D01*
X40005760Y20701391D01*
X39994074Y20700000D01*
X28004572Y20700000D01*
X28004572Y3614458D01*
X47995645Y5978994D01*
X47995645Y18700381D01*
X47778613Y18719369D01*
X47770038Y18720880D01*
X47559582Y18777272D01*
X47551423Y18780243D01*
X47353960Y18872320D01*
X47346419Y18876674D01*
X47167951Y19001638D01*
X47161291Y19007227D01*
X47007227Y19161291D01*
X47001638Y19167951D01*
X46876674Y19346419D01*
X46872320Y19353960D01*
X46780243Y19551423D01*
X46777272Y19559582D01*
X46720880Y19770038D01*
X46719369Y19778613D01*
X46700381Y19995645D01*
X46700381Y20004355D01*
X46719369Y20221387D01*
X46720880Y20229962D01*
X46777272Y20440418D01*
X46780243Y20448577D01*
X46872320Y20646040D01*
X46876674Y20653581D01*
X47001638Y20832049D01*
X47007227Y20838709D01*
X47161291Y20992773D01*
X47167951Y20998362D01*
X47346419Y21123326D01*
X47353960Y21127680D01*
X47551423Y21219757D01*
X47559582Y21222728D01*
X47770038Y21279120D01*
X47778613Y21280631D01*
X47995645Y21299619D01*
X48004355Y21299619D01*
X48221387Y21280631D01*
X48229962Y21279120D01*
X48440418Y21222728D01*
X48448577Y21219757D01*
X48646040Y21127680D01*
X48653581Y21123326D01*
X48832049Y20998362D01*
X48838709Y20992773D01*
X48992773Y20838709D01*
X48998362Y20832049D01*
X49123326Y20653581D01*
X49127680Y20646040D01*
X49219757Y20448577D01*
X49222728Y20440418D01*
X49279120Y20229962D01*
X49280631Y20221387D01*
X49299619Y20004355D01*
X49299619Y19995645D01*
X49280631Y19778613D01*
X49279120Y19770038D01*
X49222728Y19559582D01*
X49219757Y19551423D01*
X49127680Y19353960D01*
X49123326Y19346419D01*
X48998362Y19167951D01*
X48992773Y19161291D01*
X48838709Y19007227D01*
X48832049Y19001638D01*
X48653581Y18876674D01*
X48646040Y18872320D01*
X48448577Y18780243D01*
X48440418Y18777272D01*
X48229962Y18720880D01*
X48221387Y18719369D01*
X48004355Y18700381D01*
X47995645Y18700381D01*
X47995645Y5978994D01*
X51919467Y6443101D01*
X51919467Y25255834D01*
X51782750Y25275400D01*
X51770193Y25278923D01*
X48864991Y26524236D01*
X48856984Y26528573D01*
X48777643Y26581443D01*
X48764703Y26594005D01*
X48711461Y26669002D01*
X48704515Y26683067D01*
X48684087Y26749081D01*
X48682537Y26755616D01*
X47789296Y32097188D01*
X47788619Y32106277D01*
X47790253Y32201606D01*
X47793834Y32219278D01*
X47827731Y32303459D01*
X47837394Y32318682D01*
X47898845Y32384850D01*
X47914098Y32395983D01*
X48009218Y32440606D01*
X48018656Y32443926D01*
X48382218Y32532040D01*
X48384770Y32532590D01*
X48412475Y32537816D01*
X48415021Y32538229D01*
X48789445Y32589130D01*
X48791986Y32589408D01*
X48820105Y32591770D01*
X48822667Y32591919D01*
X49200304Y32604178D01*
X49202916Y32604195D01*
X49231121Y32603663D01*
X49233650Y32603551D01*
X49610593Y32577039D01*
X49613178Y32576790D01*
X49641157Y32573372D01*
X49643719Y32572992D01*
X50015936Y32507993D01*
X50018445Y32507488D01*
X50045981Y32501208D01*
X50048420Y32500586D01*
X50412081Y32397763D01*
X50414495Y32397013D01*
X50441227Y32387949D01*
X50443634Y32387063D01*
X50794803Y32247528D01*
X50797159Y32246521D01*
X50822815Y32234769D01*
X50825104Y32233649D01*
X51160132Y32058853D01*
X51162365Y32057614D01*
X51186674Y32043299D01*
X51188876Y32041924D01*
X51504179Y31833744D01*
X51506288Y31832273D01*
X51529024Y31815525D01*
X51531039Y31813959D01*
X51823379Y31574535D01*
X51825311Y31572868D01*
X51846201Y31553886D01*
X51848054Y31552113D01*
X52114318Y31283987D01*
X52116069Y31282131D01*
X52134881Y31261135D01*
X52136579Y31259139D01*
X52373946Y30965156D01*
X52375493Y30963137D01*
X52392093Y30940267D01*
X52393521Y30938190D01*
X52599535Y30621389D01*
X52600858Y30619236D01*
X52615024Y30594795D01*
X52616250Y30592548D01*
X52788693Y30256335D01*
X52789806Y30254022D01*
X52801394Y30228250D01*
X52802359Y30225947D01*
X52939462Y29873772D01*
X52940319Y29871390D01*
X52949198Y29844593D01*
X52949939Y29842147D01*
X53050216Y29477806D01*
X53050825Y29475350D01*
X53056915Y29447756D01*
X53057395Y29445281D01*
X53119261Y29075833D01*
X53119940Y29066745D01*
X53118327Y28971414D01*
X53114749Y28953742D01*
X53080733Y28869206D01*
X53071561Y28854514D01*
X53013021Y28789570D01*
X53006911Y28783842D01*
X52773600Y28599364D01*
X52764913Y28591633D01*
X52568099Y28394819D01*
X52560368Y28386132D01*
X52387734Y28167800D01*
X52381064Y28158274D01*
X52234942Y27921374D01*
X52229423Y27911139D01*
X52111792Y27658880D01*
X52107499Y27648072D01*
X52019951Y27383865D01*
X52016941Y27372633D01*
X51960655Y27100040D01*
X51958970Y27088534D01*
X51934712Y26811270D01*
X51934373Y26799645D01*
X51942470Y26521409D01*
X51943484Y26509825D01*
X51983821Y26234441D01*
X51986172Y26223052D01*
X52058214Y25954188D01*
X52061872Y25943150D01*
X52171547Y25667082D01*
X52174125Y25658339D01*
X52192630Y25564810D01*
X52192855Y25546784D01*
X52177471Y25457345D01*
X52171235Y25440426D01*
X52124887Y25362399D01*
X52113018Y25348833D01*
X52041836Y25292538D01*
X52025898Y25284112D01*
X51941219Y25257592D01*
X51919467Y25255834D01*
X51919467Y6443101D01*
X55674822Y6887283D01*
X55674822Y37715589D01*
X55659367Y37717213D01*
X55583903Y37737433D01*
X55569704Y37743755D01*
X55504186Y37786303D01*
X55492629Y37796709D01*
X55440990Y37860479D01*
X55436553Y37866934D01*
X54170481Y40059834D01*
X54167107Y40066909D01*
X54137700Y40143516D01*
X54134467Y40158726D01*
X54130379Y40236740D01*
X54132003Y40252195D01*
X54152223Y40327659D01*
X54158545Y40341858D01*
X54201093Y40407376D01*
X54211499Y40418933D01*
X54275269Y40470572D01*
X54281724Y40475009D01*
X55374772Y41106081D01*
X55381847Y41109455D01*
X55458454Y41138862D01*
X55473664Y41142095D01*
X55551678Y41146183D01*
X55567133Y41144559D01*
X55642597Y41124339D01*
X55656796Y41118017D01*
X55722314Y41075469D01*
X55733871Y41065063D01*
X55785510Y41001293D01*
X55789951Y40994832D01*
X55980086Y40665508D01*
X55995645Y40651594D01*
X55995645Y71700381D01*
X55778613Y71719369D01*
X55770038Y71720880D01*
X55559582Y71777272D01*
X55551423Y71780243D01*
X55353960Y71872320D01*
X55346419Y71876674D01*
X55167951Y72001638D01*
X55161291Y72007227D01*
X55007227Y72161291D01*
X55001638Y72167951D01*
X54876674Y72346419D01*
X54872320Y72353960D01*
X54780243Y72551423D01*
X54777272Y72559582D01*
X54720880Y72770038D01*
X54719369Y72778613D01*
X54700381Y72995645D01*
X54700381Y73004355D01*
X54719369Y73221387D01*
X54720880Y73229962D01*
X54777272Y73440418D01*
X54780243Y73448577D01*
X54872320Y73646040D01*
X54876674Y73653581D01*
X55001638Y73832049D01*
X55007227Y73838709D01*
X55161291Y73992773D01*
X55167951Y73998362D01*
X55346419Y74123326D01*
X55353960Y74127680D01*
X55551423Y74219757D01*
X55559582Y74222728D01*
X55770038Y74279120D01*
X55778613Y74280631D01*
X55995645Y74299619D01*
X56004355Y74299619D01*
X56221387Y74280631D01*
X56229962Y74279120D01*
X56440418Y74222728D01*
X56448577Y74219757D01*
X56646040Y74127680D01*
X56653581Y74123326D01*
X56832049Y73998362D01*
X56838709Y73992773D01*
X56992773Y73838709D01*
X56998362Y73832049D01*
X57123326Y73653581D01*
X57127680Y73646040D01*
X57219757Y73448577D01*
X57222728Y73440418D01*
X57279120Y73229962D01*
X57280631Y73221387D01*
X57299619Y73004355D01*
X57299619Y72995645D01*
X57280631Y72778613D01*
X57279120Y72770038D01*
X57222728Y72559582D01*
X57219757Y72551423D01*
X57127680Y72353960D01*
X57123326Y72346419D01*
X56998362Y72167951D01*
X56992773Y72161291D01*
X56838709Y72007227D01*
X56832049Y72001638D01*
X56653581Y71876674D01*
X56646040Y71872320D01*
X56448577Y71780243D01*
X56440418Y71777272D01*
X56229962Y71720880D01*
X56221387Y71719369D01*
X56004355Y71700381D01*
X55995645Y71700381D01*
X55995645Y40651594D01*
X56026637Y40623879D01*
X56088808Y40617985D01*
X56142352Y40650126D01*
X56165167Y40698139D01*
X56165792Y40701685D01*
X56185402Y40763880D01*
X56190895Y40775659D01*
X56227690Y40833414D01*
X56231557Y40838690D01*
X57402635Y42234326D01*
X57407163Y42239056D01*
X57457651Y42285320D01*
X57468297Y42292775D01*
X57526138Y42322885D01*
X57538344Y42327328D01*
X57605220Y42342154D01*
X57611671Y42343146D01*
X58430418Y42414777D01*
X58436952Y42414920D01*
X58505375Y42411933D01*
X58518175Y42409676D01*
X58580365Y42390068D01*
X58592144Y42384575D01*
X58649899Y42347780D01*
X58655175Y42343913D01*
X58846431Y42183430D01*
X58904413Y42160233D01*
X58964850Y42175959D01*
X59004172Y42224474D01*
X59009189Y42277399D01*
X58982022Y42431469D01*
X58981411Y42436316D01*
X58967990Y42611742D01*
X58968204Y42621511D01*
X58988967Y42793728D01*
X58991086Y42803283D01*
X59045050Y42968142D01*
X59048985Y42977084D01*
X59134079Y43128256D01*
X59139682Y43136258D01*
X59252631Y43267922D01*
X59259691Y43274681D01*
X59396149Y43381774D01*
X59404403Y43387032D01*
X59559132Y43465445D01*
X59568244Y43468989D01*
X59735304Y43515712D01*
X59744928Y43517409D01*
X59917896Y43530642D01*
X59927665Y43530428D01*
X60099882Y43509665D01*
X60109437Y43507546D01*
X60274296Y43453582D01*
X60283238Y43449647D01*
X60434410Y43364553D01*
X60442412Y43358950D01*
X60574076Y43246001D01*
X60580835Y43238941D01*
X60687928Y43102483D01*
X60693186Y43094229D01*
X60771599Y42939500D01*
X60775143Y42930388D01*
X60822527Y42760964D01*
X60823615Y42756181D01*
X61043296Y41510303D01*
X61043907Y41505456D01*
X61057328Y41330030D01*
X61057114Y41320261D01*
X61036351Y41148044D01*
X61034232Y41138489D01*
X60980268Y40973630D01*
X60976333Y40964688D01*
X60891239Y40813516D01*
X60885636Y40805514D01*
X60772687Y40673850D01*
X60765627Y40667091D01*
X60629169Y40559998D01*
X60620915Y40554740D01*
X60466186Y40476327D01*
X60457074Y40472783D01*
X60290014Y40426060D01*
X60280390Y40424363D01*
X60107422Y40411130D01*
X60097653Y40411344D01*
X59925436Y40432107D01*
X59915881Y40434226D01*
X59751022Y40488190D01*
X59742080Y40492125D01*
X59590908Y40577219D01*
X59582906Y40582821D01*
X59556947Y40605091D01*
X59499222Y40628919D01*
X59438617Y40613854D01*
X59407499Y40582922D01*
X59398220Y40568357D01*
X59394353Y40563082D01*
X58223275Y39167446D01*
X58218747Y39162716D01*
X58168259Y39116452D01*
X58157613Y39108997D01*
X58099772Y39078887D01*
X58087566Y39074444D01*
X58020690Y39059618D01*
X58014239Y39058626D01*
X57195492Y38986995D01*
X57188958Y38986852D01*
X57125162Y38989637D01*
X57065040Y38972743D01*
X57026666Y38923475D01*
X57034198Y38839734D01*
X57056016Y38801944D01*
X57059393Y38794863D01*
X57088800Y38718256D01*
X57092033Y38703046D01*
X57096121Y38625032D01*
X57094497Y38609577D01*
X57074277Y38534113D01*
X57067955Y38519914D01*
X57025407Y38454396D01*
X57015001Y38442839D01*
X56951231Y38391200D01*
X56944776Y38386763D01*
X55851728Y37755691D01*
X55844653Y37752317D01*
X55768046Y37722910D01*
X55752836Y37719677D01*
X55674822Y37715589D01*
X55674822Y6887283D01*
X58830276Y7260509D01*
X58830276Y21892914D01*
X58581240Y21910725D01*
X58574185Y21911739D01*
X58330205Y21964814D01*
X58323379Y21966819D01*
X58089437Y22054074D01*
X58082964Y22057030D01*
X57863818Y22176694D01*
X57857829Y22180543D01*
X57657951Y22330169D01*
X57652568Y22334834D01*
X57476016Y22511386D01*
X57471351Y22516769D01*
X57321725Y22716647D01*
X57317876Y22722636D01*
X57198212Y22941782D01*
X57195256Y22948255D01*
X57108001Y23182197D01*
X57105996Y23189023D01*
X57052921Y23433003D01*
X57051907Y23440058D01*
X57034096Y23689094D01*
X57034096Y23696224D01*
X57051907Y23945260D01*
X57052921Y23952315D01*
X57105996Y24196295D01*
X57108001Y24203121D01*
X57195256Y24437063D01*
X57198212Y24443536D01*
X57317876Y24662682D01*
X57321725Y24668671D01*
X57471351Y24868549D01*
X57476016Y24873932D01*
X57652568Y25050484D01*
X57657951Y25055149D01*
X57857829Y25204775D01*
X57863818Y25208624D01*
X58082964Y25328288D01*
X58089437Y25331244D01*
X58323379Y25418499D01*
X58330205Y25420504D01*
X58574185Y25473579D01*
X58581240Y25474593D01*
X58830276Y25492404D01*
X58837406Y25492404D01*
X59086442Y25474593D01*
X59093497Y25473579D01*
X59337477Y25420504D01*
X59344303Y25418499D01*
X59578245Y25331244D01*
X59584718Y25328288D01*
X59803864Y25208624D01*
X59809853Y25204775D01*
X60009731Y25055149D01*
X60015114Y25050484D01*
X60191666Y24873932D01*
X60196331Y24868549D01*
X60345957Y24668671D01*
X60349806Y24662682D01*
X60469470Y24443536D01*
X60472426Y24437063D01*
X60559681Y24203121D01*
X60561686Y24196295D01*
X60614761Y23952315D01*
X60615775Y23945260D01*
X60633586Y23696224D01*
X60633586Y23689094D01*
X60615775Y23440058D01*
X60614761Y23433003D01*
X60561686Y23189023D01*
X60559681Y23182197D01*
X60472426Y22948255D01*
X60469470Y22941782D01*
X60349806Y22722636D01*
X60345957Y22716647D01*
X60196331Y22516769D01*
X60191666Y22511386D01*
X60015114Y22334834D01*
X60009731Y22330169D01*
X59809853Y22180543D01*
X59803864Y22176694D01*
X59584718Y22057030D01*
X59578245Y22054074D01*
X59344303Y21966819D01*
X59337477Y21964814D01*
X59093497Y21911739D01*
X59086442Y21910725D01*
X58837406Y21892914D01*
X58830276Y21892914D01*
X58830276Y7260509D01*
X61644919Y7593423D01*
X61644919Y33804113D01*
X61549873Y33811634D01*
X61540891Y33813179D01*
X58081329Y34740165D01*
X58070397Y34744535D01*
X57961185Y34804015D01*
X57945541Y34817423D01*
X57891279Y34888457D01*
X57883122Y34904533D01*
X57857458Y34991586D01*
X57855590Y35009513D01*
X57863111Y35104559D01*
X57864656Y35113541D01*
X58791468Y38572452D01*
X58796490Y38584539D01*
X58866110Y38704525D01*
X58881007Y38720543D01*
X58954304Y38770502D01*
X58970799Y38777778D01*
X59059109Y38798697D01*
X59077115Y38799594D01*
X59167063Y38787555D01*
X59184204Y38781953D01*
X59263901Y38738548D01*
X59277902Y38727191D01*
X59339794Y38654662D01*
X59345050Y38647221D01*
X61879461Y34257493D01*
X61884459Y34245387D01*
X61920073Y34111320D01*
X61920865Y34089460D01*
X61904363Y34002306D01*
X61897843Y33985495D01*
X61850193Y33908261D01*
X61838093Y33894893D01*
X61765975Y33839802D01*
X61749899Y33831645D01*
X61662846Y33805981D01*
X61644919Y33804113D01*
X61644919Y7593423D01*
X62187523Y7657601D01*
X62187523Y46924476D01*
X61993903Y46931525D01*
X61984772Y46932707D01*
X61795752Y46975211D01*
X61786985Y46978054D01*
X61608997Y47054565D01*
X61600911Y47058965D01*
X61439999Y47166888D01*
X61432865Y47172695D01*
X61294529Y47308342D01*
X61288574Y47315371D01*
X61177520Y47474126D01*
X61172965Y47482118D01*
X61092968Y47658584D01*
X61089958Y47667282D01*
X61043750Y47855442D01*
X61042390Y47864541D01*
X61031543Y48057981D01*
X61031878Y48067185D01*
X61056761Y48259326D01*
X61058780Y48268306D01*
X61118545Y48452602D01*
X61122179Y48461057D01*
X61215896Y48633266D01*
X61218286Y48637212D01*
X63485637Y52017826D01*
X63488372Y52021521D01*
X63612142Y52173584D01*
X63618585Y52180155D01*
X63766424Y52305390D01*
X63773955Y52310659D01*
X63942287Y52406596D01*
X63950675Y52410399D01*
X64133769Y52473771D01*
X64142694Y52475962D01*
X64334322Y52504614D01*
X64343505Y52505129D01*
X64537126Y52498081D01*
X64546255Y52496899D01*
X64735280Y52454393D01*
X64744036Y52451554D01*
X64922036Y52375038D01*
X64930116Y52370641D01*
X65091029Y52262718D01*
X65098163Y52256911D01*
X65236499Y52121264D01*
X65242454Y52114235D01*
X65353507Y51955483D01*
X65358067Y51947482D01*
X65438058Y51771027D01*
X65441072Y51762316D01*
X65487277Y51574170D01*
X65488639Y51565066D01*
X65499486Y51371626D01*
X65499151Y51362422D01*
X65474268Y51170276D01*
X65472252Y51161309D01*
X65412485Y50977003D01*
X65408849Y50968545D01*
X65315132Y50796338D01*
X65312742Y50792392D01*
X63045391Y47411778D01*
X63042656Y47408083D01*
X62918886Y47256021D01*
X62912443Y47249450D01*
X62764604Y47124214D01*
X62757073Y47118945D01*
X62588741Y47023009D01*
X62580353Y47019206D01*
X62397259Y46955834D01*
X62388334Y46953643D01*
X62196706Y46924991D01*
X62187523Y46924476D01*
X62187523Y7657601D01*
X65042750Y7995317D01*
X65042750Y31852724D01*
X65029800Y31853857D01*
X64966135Y31867971D01*
X64953929Y31872414D01*
X64893180Y31904038D01*
X64887590Y31907430D01*
X64553653Y32141255D01*
X64548556Y32145346D01*
X64498061Y32191616D01*
X64489709Y32201571D01*
X64454673Y32256565D01*
X64449180Y32268344D01*
X64428584Y32333667D01*
X64427033Y32340004D01*
X64182594Y33726289D01*
X64181882Y33732786D01*
X64178895Y33801205D01*
X64180028Y33814155D01*
X64194142Y33877820D01*
X64198585Y33890026D01*
X64230209Y33950775D01*
X64233601Y33956365D01*
X64467426Y34290302D01*
X64471517Y34295399D01*
X64517787Y34345894D01*
X64527742Y34354246D01*
X64582736Y34389282D01*
X64594515Y34394775D01*
X64659838Y34415371D01*
X64666175Y34416922D01*
X65067652Y34487713D01*
X65074149Y34488425D01*
X65142568Y34491412D01*
X65155518Y34490279D01*
X65219183Y34476165D01*
X65231389Y34471722D01*
X65292138Y34440098D01*
X65297728Y34436706D01*
X65631665Y34202881D01*
X65636762Y34198790D01*
X65687257Y34152520D01*
X65695609Y34142565D01*
X65730645Y34087571D01*
X65736138Y34075792D01*
X65756734Y34010469D01*
X65758285Y34004132D01*
X66002724Y32617847D01*
X66003436Y32611350D01*
X66006423Y32542931D01*
X66005290Y32529981D01*
X65991176Y32466316D01*
X65986733Y32454110D01*
X65955109Y32393361D01*
X65951717Y32387771D01*
X65717892Y32053834D01*
X65713801Y32048737D01*
X65667531Y31998242D01*
X65657576Y31989890D01*
X65602582Y31954854D01*
X65590803Y31949361D01*
X65525480Y31928765D01*
X65519143Y31927214D01*
X65117666Y31856423D01*
X65111169Y31855711D01*
X65042750Y31852724D01*
X65042750Y7995317D01*
X72736901Y8905379D01*
X72736901Y29217303D01*
X72730446Y29217495D01*
X72432560Y29245697D01*
X72426190Y29246719D01*
X72134424Y29313091D01*
X72128233Y29314927D01*
X71848123Y29418116D01*
X71840997Y29421396D01*
X71671306Y29516315D01*
X71663719Y29521533D01*
X71514889Y29645573D01*
X71508394Y29652092D01*
X71384889Y29801369D01*
X71379695Y29808982D01*
X71285725Y29978409D01*
X71282024Y29986832D01*
X71220784Y30170648D01*
X71218693Y30179608D01*
X71192270Y30371553D01*
X71191863Y30380737D01*
X71201160Y30574270D01*
X71202448Y30583379D01*
X71247145Y30771893D01*
X71250090Y30780627D01*
X71328664Y30957714D01*
X71333160Y30965753D01*
X71442941Y31125395D01*
X71448832Y31132463D01*
X71586078Y31269216D01*
X71593172Y31275085D01*
X71753210Y31384290D01*
X71761257Y31388753D01*
X71938637Y31466692D01*
X71947369Y31469601D01*
X72136047Y31513619D01*
X72145171Y31514874D01*
X72338717Y31523474D01*
X72347920Y31523032D01*
X72539756Y31495919D01*
X72548712Y31493796D01*
X72730718Y31432428D01*
X72742856Y31429169D01*
X72785429Y31420564D01*
X72828711Y31421375D01*
X72855504Y31427844D01*
X72894385Y31446870D01*
X72915934Y31464056D01*
X72943132Y31497730D01*
X72955399Y31522412D01*
X72965818Y31564429D01*
X72966504Y31591985D01*
X72958191Y31634464D01*
X72947169Y31659726D01*
X72921679Y31694716D01*
X72901011Y31712954D01*
X72863126Y31733891D01*
X72821466Y31746174D01*
X72809210Y31748964D01*
X72619615Y31779743D01*
X72610711Y31782048D01*
X72428427Y31847707D01*
X72420090Y31851613D01*
X72252977Y31949647D01*
X72245500Y31955018D01*
X72099250Y32082087D01*
X72092883Y32088746D01*
X71972475Y32240520D01*
X71967438Y32248237D01*
X71876965Y32419560D01*
X71873437Y32428060D01*
X71815984Y32613094D01*
X71814078Y32622093D01*
X71791604Y32814529D01*
X71791384Y32823745D01*
X71804651Y33017025D01*
X71806127Y33026117D01*
X71854686Y33213673D01*
X71857806Y33222337D01*
X71940006Y33397788D01*
X71944660Y33405721D01*
X72057692Y33563071D01*
X72063736Y33570028D01*
X72203759Y33703931D01*
X72210970Y33709651D01*
X72373214Y33815546D01*
X72381355Y33819845D01*
X72560295Y33894125D01*
X72569090Y33896856D01*
X72758628Y33936989D01*
X72767773Y33938057D01*
X72962160Y33942696D01*
X72969976Y33942269D01*
X73265855Y33902630D01*
X73272194Y33901359D01*
X73561152Y33823727D01*
X73567267Y33821653D01*
X73843824Y33707408D01*
X73849610Y33704568D01*
X74109125Y33555625D01*
X74114506Y33552055D01*
X74352650Y33370900D01*
X74357528Y33366665D01*
X74570327Y33156321D01*
X74574613Y33151499D01*
X74758525Y32915466D01*
X74762151Y32910134D01*
X74914092Y32652371D01*
X74917009Y32646600D01*
X75034449Y32371403D01*
X75036596Y32365309D01*
X75066730Y32258124D01*
X75066730Y54730550D01*
X74817694Y54748361D01*
X74810639Y54749375D01*
X74566659Y54802450D01*
X74559833Y54804455D01*
X74325891Y54891710D01*
X74319418Y54894666D01*
X74100272Y55014330D01*
X74094283Y55018179D01*
X73894405Y55167805D01*
X73889022Y55172470D01*
X73712470Y55349022D01*
X73707805Y55354405D01*
X73558179Y55554283D01*
X73554330Y55560272D01*
X73434666Y55779418D01*
X73431710Y55785891D01*
X73344455Y56019833D01*
X73342450Y56026659D01*
X73289375Y56270639D01*
X73288361Y56277694D01*
X73270550Y56526730D01*
X73270550Y56533860D01*
X73288361Y56782896D01*
X73289375Y56789951D01*
X73342450Y57033931D01*
X73344455Y57040757D01*
X73431710Y57274699D01*
X73434666Y57281172D01*
X73554330Y57500318D01*
X73558179Y57506307D01*
X73707805Y57706185D01*
X73712470Y57711568D01*
X73889022Y57888120D01*
X73894405Y57892785D01*
X74094283Y58042411D01*
X74100272Y58046260D01*
X74319418Y58165924D01*
X74325891Y58168880D01*
X74559833Y58256135D01*
X74566659Y58258140D01*
X74810639Y58311215D01*
X74817694Y58312229D01*
X75066730Y58330040D01*
X75073860Y58330040D01*
X75322896Y58312229D01*
X75329951Y58311215D01*
X75573931Y58258140D01*
X75580757Y58256135D01*
X75814699Y58168880D01*
X75821172Y58165924D01*
X76040318Y58046260D01*
X76046307Y58042411D01*
X76246185Y57892785D01*
X76251568Y57888120D01*
X76428120Y57711568D01*
X76432785Y57706185D01*
X76582411Y57506307D01*
X76586260Y57500318D01*
X76705924Y57281172D01*
X76708880Y57274699D01*
X76796135Y57040757D01*
X76798140Y57033931D01*
X76851215Y56789951D01*
X76852229Y56782896D01*
X76870040Y56533860D01*
X76870040Y56526730D01*
X76852229Y56277694D01*
X76851215Y56270639D01*
X76798140Y56026659D01*
X76796135Y56019833D01*
X76708880Y55785891D01*
X76705924Y55779418D01*
X76586260Y55560272D01*
X76582411Y55554283D01*
X76432785Y55354405D01*
X76428120Y55349022D01*
X76251568Y55172470D01*
X76246185Y55167805D01*
X76046307Y55018179D01*
X76040318Y55014330D01*
X75821172Y54894666D01*
X75814699Y54891710D01*
X75580757Y54804455D01*
X75573931Y54802450D01*
X75329951Y54749375D01*
X75322896Y54748361D01*
X75073860Y54730550D01*
X75066730Y54730550D01*
X75066730Y32258124D01*
X75117580Y32077255D01*
X75118919Y32070954D01*
X75162090Y31774855D01*
X75162606Y31768432D01*
X75167243Y31469245D01*
X75166926Y31462799D01*
X75132953Y31165518D01*
X75131807Y31159164D01*
X75059795Y30868757D01*
X75057831Y30862579D01*
X74948981Y30583886D01*
X74946247Y30578032D01*
X74802363Y30315675D01*
X74798903Y30310233D01*
X74622398Y30068619D01*
X74618261Y30063662D01*
X74412083Y29846824D01*
X74407336Y29842438D01*
X74174923Y29653991D01*
X74169660Y29650260D01*
X73914886Y29493345D01*
X73909187Y29490324D01*
X73636304Y29367564D01*
X73630262Y29365303D01*
X73343829Y29278747D01*
X73337553Y29277286D01*
X73042364Y29228384D01*
X73035927Y29227741D01*
X72736901Y29217303D01*
X72736901Y8905379D01*
X81040722Y9887551D01*
X81040722Y34116246D01*
X81031529Y34116544D01*
X80839285Y34140671D01*
X80830297Y34142655D01*
X80645766Y34201693D01*
X80637294Y34205296D01*
X80466755Y34297236D01*
X80459089Y34302334D01*
X80308348Y34424044D01*
X80301746Y34430467D01*
X80175934Y34577806D01*
X80170631Y34585325D01*
X80074033Y34753274D01*
X80070198Y34761647D01*
X80006107Y34944485D01*
X80003878Y34953408D01*
X79974323Y35145901D01*
X79973745Y35153109D01*
X79971142Y35496047D01*
X79971376Y35501269D01*
X80004731Y35843606D01*
X80005510Y35848777D01*
X80074468Y36185756D01*
X80075780Y36190804D01*
X80179584Y36518730D01*
X80181423Y36523633D01*
X80318929Y36838898D01*
X80321268Y36843576D01*
X80490985Y37142755D01*
X80493793Y37147152D01*
X80693859Y37426961D01*
X80697100Y37431027D01*
X80925316Y37688388D01*
X80928981Y37692109D01*
X81182843Y37924202D01*
X81186881Y37927523D01*
X81463607Y38131803D01*
X81467951Y38134672D01*
X81764532Y38308919D01*
X81769165Y38311323D01*
X82082312Y38453603D01*
X82087191Y38455519D01*
X82407075Y38562146D01*
X82464256Y38611037D01*
X83044672Y39732112D01*
X83046987Y39736119D01*
X83096095Y39812712D01*
X83096831Y39813878D01*
X83143611Y39889104D01*
X83150710Y39898467D01*
X83150808Y39898608D01*
X83151128Y39899023D01*
X83151239Y39899155D01*
X83158469Y39908422D01*
X83219186Y39972956D01*
X83220123Y39973966D01*
X83279971Y40039359D01*
X83288676Y40047264D01*
X83288803Y40047388D01*
X83289191Y40047737D01*
X83289323Y40047844D01*
X83298131Y40055624D01*
X83369680Y40107908D01*
X83370788Y40108729D01*
X83441639Y40162017D01*
X83451643Y40168185D01*
X83451772Y40168272D01*
X83452220Y40168544D01*
X83452386Y40168634D01*
X83462462Y40174656D01*
X83542380Y40212894D01*
X83543618Y40213497D01*
X83625478Y40254059D01*
X83628895Y40255834D01*
X83723664Y40307429D01*
X83744766Y40322797D01*
X83814797Y40389405D01*
X83831202Y40409711D01*
X83881611Y40492180D01*
X83892202Y40516040D01*
X83919547Y40608741D01*
X83923602Y40634530D01*
X83926022Y40731158D01*
X83923263Y40757117D01*
X83897962Y40861978D01*
X83896988Y40865702D01*
X83843590Y41054774D01*
X83841918Y41063818D01*
X83824416Y41256769D01*
X83824434Y41265984D01*
X83842686Y41458864D01*
X83844394Y41467907D01*
X83897779Y41654158D01*
X83901117Y41662724D01*
X83987819Y41836000D01*
X83992678Y41843814D01*
X84109736Y41998199D01*
X84115953Y42004993D01*
X84259386Y42135237D01*
X84266741Y42140769D01*
X84431658Y42242439D01*
X84439923Y42246534D01*
X84620703Y42316164D01*
X84629576Y42318671D01*
X84820089Y42353901D01*
X84829251Y42354732D01*
X85022998Y42354355D01*
X85032167Y42353487D01*
X85222534Y42317517D01*
X85231392Y42314979D01*
X85411912Y42244641D01*
X85420152Y42240518D01*
X85584674Y42138208D01*
X85592009Y42132646D01*
X85734938Y42001838D01*
X85741121Y41995028D01*
X85857580Y41840187D01*
X85862412Y41832349D01*
X85948787Y41658037D01*
X85951643Y41650960D01*
X86047124Y41350032D01*
X86048594Y41344200D01*
X86107255Y41033159D01*
X86108013Y41027174D01*
X86128753Y40711353D01*
X86128785Y40705303D01*
X86111306Y40389284D01*
X86110611Y40383300D01*
X86055164Y40071668D01*
X86053753Y40065815D01*
X85961153Y39763159D01*
X85959037Y39757492D01*
X85830632Y39468205D01*
X85827856Y39462848D01*
X85665515Y39191145D01*
X85662112Y39186161D01*
X85468203Y38936003D01*
X85464227Y38931469D01*
X85241577Y38706508D01*
X85237084Y38702486D01*
X84988936Y38505999D01*
X84984007Y38502559D01*
X84863597Y38428917D01*
X84826969Y38389584D01*
X84147778Y37077723D01*
X84145479Y37073744D01*
X84116371Y37028344D01*
X84112532Y37021826D01*
X84088028Y36976375D01*
X84082929Y36968709D01*
X84063081Y36944126D01*
X84056703Y36935280D01*
X84039650Y36908683D01*
X84033984Y36901421D01*
X83998621Y36863833D01*
X83993650Y36858132D01*
X83961220Y36817968D01*
X83954791Y36811360D01*
X83930761Y36790841D01*
X83922864Y36783317D01*
X83901221Y36760313D01*
X83894323Y36754220D01*
X83852660Y36723775D01*
X83846725Y36719083D01*
X83807465Y36685560D01*
X83799938Y36680250D01*
X83772542Y36664493D01*
X83763399Y36658548D01*
X83737897Y36639912D01*
X83729995Y36635190D01*
X83683442Y36612916D01*
X83676745Y36609394D01*
X83631991Y36583653D01*
X83623622Y36579820D01*
X83593792Y36569364D01*
X83583710Y36565199D01*
X83555217Y36551566D01*
X83546587Y36548378D01*
X83496736Y36535038D01*
X83489505Y36532807D01*
X83440781Y36515727D01*
X83431850Y36513496D01*
X83400605Y36508699D01*
X83389931Y36506458D01*
X83359424Y36498294D01*
X83350352Y36496746D01*
X83298909Y36492795D01*
X83291390Y36491931D01*
X83235964Y36483420D01*
X83235681Y36483378D01*
X83235681Y36483377D01*
X83048548Y36455628D01*
X83031593Y36451578D01*
X82860327Y36394488D01*
X82844335Y36387556D01*
X82685580Y36301593D01*
X82671033Y36291989D01*
X82529618Y36179765D01*
X82516960Y36167780D01*
X82397184Y36032706D01*
X82386800Y36018706D01*
X82292296Y35864882D01*
X82284501Y35849291D01*
X82218148Y35681401D01*
X82213178Y35664694D01*
X82176984Y35487825D01*
X82174991Y35470508D01*
X82169821Y35281297D01*
X82163385Y35083043D01*
X82162236Y35073889D01*
X82120481Y34884718D01*
X82117670Y34875932D01*
X82041862Y34697649D01*
X82037488Y34689535D01*
X81930211Y34528216D01*
X81924420Y34521044D01*
X81789326Y34382183D01*
X81782319Y34376200D01*
X81624002Y34264521D01*
X81616024Y34259932D01*
X81439879Y34179244D01*
X81431195Y34176200D01*
X81243219Y34129251D01*
X81234120Y34127854D01*
X81040722Y34116246D01*
X81040722Y9887551D01*
X92598479Y11254599D01*
X92655105Y11280933D01*
X92686665Y11357576D01*
X92557394Y14877443D01*
X92557383Y14877765D01*
X92557382Y14877765D01*
X92557289Y14880726D01*
X92454403Y18770645D01*
X92454337Y18773724D01*
X92454332Y18774010D01*
X92391396Y22664239D01*
X92391389Y22664753D01*
X92391358Y22667575D01*
X92391357Y22667764D01*
X92368361Y26558793D01*
X92368359Y26561608D01*
X92368360Y26562097D01*
X92385311Y30452959D01*
X92385312Y30453116D01*
X92385340Y30456088D01*
X92385341Y30456196D01*
X92442238Y34346787D01*
X92442247Y34347306D01*
X92442299Y34349954D01*
X92442300Y34349954D01*
X92442308Y34350342D01*
X92539139Y38239898D01*
X92539153Y38240396D01*
X92539152Y38240396D01*
X92539232Y38243061D01*
X92539246Y38243507D01*
X92541000Y38293364D01*
X92534596Y38332254D01*
X73606155Y88380335D01*
X73559076Y88433514D01*
X35296000Y108505948D01*
X35234405Y108516240D01*
X35178714Y108487982D01*
X35153395Y108444866D01*
X25289715Y73921986D01*
X25286420Y73913484D01*
X25243999Y73828104D01*
X25233172Y73813681D01*
X25166399Y73752218D01*
X25151139Y73742626D01*
X25066006Y73708785D01*
X25049985Y73705326D01*
X24973254Y73701724D01*
X24965850Y73701927D01*
X-23965244Y78694895D01*
X-23997527Y78692932D01*
X-25179929Y78424591D01*
X-25182940Y78423859D01*
X-26413996Y78104060D01*
X-26416983Y78103234D01*
X-27637483Y77745459D01*
X-27640443Y77744541D01*
X-28849284Y77349112D01*
X-28852214Y77348103D01*
X-30048166Y76915428D01*
X-30051064Y76914329D01*
X-31233089Y76444779D01*
X-31235951Y76443590D01*
X-32402851Y75937643D01*
X-32405674Y75936367D01*
X-33556350Y75394498D01*
X-33559133Y75393134D01*
X-34692434Y74815884D01*
X-34695174Y74814435D01*
X-35810066Y74202334D01*
X-35812759Y74200800D01*
X-36908129Y73554457D01*
X-36910773Y73552841D01*
X-37985603Y72872857D01*
X-37988196Y72871160D01*
X-39041444Y72158194D01*
X-39043983Y72156417D01*
X-40074601Y71411180D01*
X-40077084Y71409326D01*
X-41084177Y70632463D01*
X-41086601Y70630532D01*
X-42069088Y69822874D01*
X-42071451Y69820869D01*
X-43028431Y68983165D01*
X-43030731Y68981088D01*
X-43961314Y68114112D01*
X-43963549Y68111965D01*
X-44866847Y67216542D01*
X-44869013Y67214326D01*
X-45744072Y66291407D01*
X-45746170Y66289126D01*
X-46592265Y65339474D01*
X-46594290Y65337128D01*
X-47410514Y64361756D01*
X-47412466Y64359349D01*
X-48198108Y63359113D01*
X-48199984Y63356646D01*
X-48954211Y62332604D01*
X-48956010Y62330081D01*
X-49678187Y61283094D01*
X-49679907Y61280516D01*
X-50369272Y60211693D01*
X-50370911Y60209063D01*
X-51026817Y59119404D01*
X-51028374Y59116724D01*
X-51650224Y58007219D01*
X-51651697Y58004493D01*
X-52238850Y56876288D01*
X-52240238Y56873517D01*
X-52792162Y55727634D01*
X-52793463Y55724821D01*
X-53309595Y54562429D01*
X-53310809Y54559578D01*
X-53790691Y53381714D01*
X-53791816Y53378826D01*
X-54234975Y52186639D01*
X-54236009Y52183718D01*
X-54641991Y50978434D01*
X-54642935Y50975482D01*
X-55011391Y49758145D01*
X-55012243Y49755166D01*
X-55342797Y48527010D01*
X-55343556Y48524005D01*
X-55635901Y47286164D01*
X-55636566Y47283137D01*
X-55890404Y46036878D01*
X-55890975Y46033832D01*
X-56106067Y44780350D01*
X-56106544Y44777288D01*
X-56282706Y43517632D01*
X-56283088Y43514557D01*
X-56420126Y42250132D01*
X-56420412Y42247046D01*
X-56518206Y40978919D01*
X-56518396Y40975826D01*
X-56576845Y39705334D01*
X-56576940Y39702236D01*
X-56595993Y38430523D01*
G37*
G04 #@! TO.N,N3*
G36*
X30002048Y48041690D02*
X30028200Y47969225D01*
X30290249Y47683249D01*
X30293058Y47679901D01*
X30553270Y47340787D01*
X30555768Y47337219D01*
X30785427Y46976726D01*
X30787620Y46972927D01*
X30984987Y46593791D01*
X30986829Y46589840D01*
X31150405Y46194932D01*
X31151897Y46190831D01*
X31280434Y45783165D01*
X31281560Y45778967D01*
X31374078Y45361642D01*
X31374834Y45357355D01*
X31430628Y44933558D01*
X31431007Y44929220D01*
X31449652Y44502176D01*
X31449652Y44497824D01*
X31431007Y44070780D01*
X31430628Y44066442D01*
X31374834Y43642645D01*
X31374078Y43638358D01*
X31281560Y43221033D01*
X31280434Y43216835D01*
X31151897Y42809169D01*
X31150405Y42805068D01*
X30986829Y42410160D01*
X30984987Y42406209D01*
X30787620Y42027073D01*
X30785427Y42023274D01*
X30555768Y41662781D01*
X30553270Y41659213D01*
X30293058Y41320099D01*
X30290249Y41316751D01*
X30038378Y41041882D01*
X30012674Y40984968D01*
X30016323Y40945589D01*
X31793014Y35023286D01*
X31828739Y34972065D01*
X31888796Y34952022D01*
X32232734Y34952022D01*
X32234791Y34951980D01*
X32257541Y34951038D01*
X32259565Y34950912D01*
X32723421Y34912476D01*
X32725533Y34912257D01*
X32748083Y34909446D01*
X32750095Y34909153D01*
X33209221Y34832539D01*
X33211269Y34832154D01*
X33233513Y34827490D01*
X33235519Y34827026D01*
X33686769Y34712754D01*
X33688710Y34712220D01*
X33710541Y34705720D01*
X33712477Y34705100D01*
X34152758Y34553951D01*
X34154666Y34553252D01*
X34175893Y34544969D01*
X34177756Y34544197D01*
X34604023Y34357219D01*
X34605896Y34356351D01*
X34626348Y34346352D01*
X34628167Y34345415D01*
X35037514Y34123888D01*
X35039330Y34122856D01*
X35058888Y34111203D01*
X35060584Y34110144D01*
X35450269Y33855550D01*
X35452006Y33854364D01*
X35470494Y33841164D01*
X35472145Y33839933D01*
X35839472Y33554030D01*
X35841074Y33552729D01*
X35858416Y33538040D01*
X35859965Y33536673D01*
X36199817Y33223816D01*
X36205930Y33217059D01*
X36262819Y33141272D01*
X36271132Y33124039D01*
X36298339Y33019705D01*
X36299892Y33009577D01*
X36317936Y32642273D01*
X36318898Y32632507D01*
X36370730Y32283088D01*
X36372645Y32273463D01*
X36458472Y31930825D01*
X36461320Y31921435D01*
X36580325Y31588835D01*
X36584081Y31579768D01*
X36735113Y31260438D01*
X36739739Y31251783D01*
X36861530Y31048589D01*
X36908756Y31007727D01*
X36947302Y31000000D01*
X37900001Y31000000D01*
X37959328Y31019500D01*
X38000000Y31099999D01*
X38000000Y47997536D01*
X37999880Y48002443D01*
X37980980Y48387164D01*
X37980018Y48396930D01*
X37923861Y48775506D01*
X37921946Y48785131D01*
X37828954Y49156376D01*
X37826106Y49165766D01*
X37697175Y49526106D01*
X37693419Y49535173D01*
X37529786Y49881144D01*
X37525160Y49889799D01*
X37328402Y50218070D01*
X37322950Y50226229D01*
X37094967Y50533629D01*
X37088741Y50541215D01*
X36831726Y50824787D01*
X36824787Y50831726D01*
X36541215Y51088741D01*
X36533629Y51094967D01*
X36226229Y51322950D01*
X36218070Y51328402D01*
X35889799Y51525160D01*
X35881144Y51529786D01*
X35535173Y51693419D01*
X35526106Y51697175D01*
X35165766Y51826106D01*
X35156376Y51828954D01*
X34785131Y51921946D01*
X34775506Y51923861D01*
X34396930Y51980018D01*
X34387164Y51980980D01*
X34004907Y51999759D01*
X33995093Y51999759D01*
X33612836Y51980980D01*
X33603070Y51980018D01*
X33224494Y51923861D01*
X33214869Y51921946D01*
X32843624Y51828954D01*
X32834234Y51826106D01*
X32473894Y51697175D01*
X32464827Y51693419D01*
X32118856Y51529786D01*
X32110201Y51525160D01*
X31781930Y51328402D01*
X31773771Y51322950D01*
X31466371Y51094967D01*
X31458785Y51088741D01*
X31175213Y50831726D01*
X31168274Y50824787D01*
X30911259Y50541215D01*
X30905033Y50533629D01*
X30677050Y50226229D01*
X30671598Y50218070D01*
X30474840Y49889799D01*
X30470214Y49881144D01*
X30306581Y49535173D01*
X30302825Y49526106D01*
X30173894Y49165766D01*
X30171046Y49156376D01*
X30078054Y48785131D01*
X30076139Y48775506D01*
X30019982Y48396930D01*
X30019020Y48387164D01*
X30002048Y48041690D01*
G37*
G04 --- BOARD END --- *

M02*
