G04 --- HEADER BEGIN --- *
G04 #@! TF.GenerationSoftware,LibrePCB,LibrePCB,0.1.2*
G04 #@! TF.CreationDate,2019-01-02T03:04:05*
G04 #@! TF.ProjectId,test_project,7c04f9d5-7366-4c4b-9e17-852ed57b3966,v1*
G04 #@! TF.Part,Single*
G04 #@! TF.SameCoordinates*
G04 #@! TF.FileFunction,Copper,L1,Top*
G04 #@! TF.FilePolarity,Positive*
%FSLAX66Y66*%
%MOMM*%
G01*
G75*
G04 --- HEADER END --- *
G04 --- APERTURE LIST BEGIN --- *
G04 #@! TA.AperFunction,ComponentPad*
%AMROTATEDOBROUND10*1,1,1.27,0.110267,-0.625353*1,1,1.27,-0.110267,0.625353*20,1,1.27,0.110267,-0.625353,-0.110267,0.625353,0*%
%ADD10ROTATEDOBROUND10*%
%AMROTATEDRECT11*20,1,1.27,-1.27,0.0,1.27,0.0,120.0*%
%ADD11ROTATEDRECT11*%
G04 #@! TA.AperFunction,SMDPad,CuDef*
%AMROTATEDOCTAGON12*4,1,8,1.0,0.207107,0.707107,0.5,-0.707107,0.5,-1.0,0.207107,-1.0,-0.207107,-0.707107,-0.5,0.707107,-0.5,1.0,-0.207107,1.0,0.207107,100.0*%
%ADD12ROTATEDOCTAGON12*%
G04 #@! TA.AperFunction,ComponentPad*
%AMROTATEDOBROUND13*1,1,1.27,0.3175,-0.549926*1,1,1.27,-0.3175,0.549926*20,1,1.27,0.3175,-0.549926,-0.3175,0.549926,0*%
%ADD13ROTATEDOBROUND13*%
%AMROTATEDOCTAGON14*4,1,8,1.5,0.414214,0.914214,1.0,-0.914214,1.0,-1.5,0.414214,-1.5,-0.414214,-0.914214,-1.0,0.914214,-1.0,1.5,-0.414214,1.5,0.414214,50.0*%
%ADD14ROTATEDOCTAGON14*%
G04 #@! TA.AperFunction,Conductor*
%ADD15C,0.0*%
%ADD16C,0.01*%
G04 #@! TA.AperFunction,ComponentPad*
%AMROTATEDOBROUND17*1,1,1.27,-0.596705,-0.217183*1,1,1.27,0.596705,0.217183*20,1,1.27,-0.596705,-0.217183,0.596705,0.217183,0*%
%ADD17ROTATEDOBROUND17*%
%ADD18R,2.54X1.27*%
G04 #@! TA.AperFunction,SMDPad,CuDef*
%AMROTATEDOCTAGON19*4,1,8,1.0,0.207107,0.707107,0.5,-0.707107,0.5,-1.0,0.207107,-1.0,-0.207107,-0.707107,-0.5,0.707107,-0.5,1.0,-0.207107,1.0,0.207107,20.0*%
%ADD19ROTATEDOCTAGON19*%
%ADD20R,2.0X1.0*%
G04 #@! TA.AperFunction,ComponentPad*
%ADD21O,2.54X1.27*%
%AMROTATEDOCTAGON22*4,1,8,1.5,0.414214,0.914214,1.0,-0.914214,1.0,-1.5,0.414214,-1.5,-0.414214,-0.914214,-1.0,0.914214,-1.0,1.5,-0.414214,1.5,0.414214,70.0*%
%ADD22ROTATEDOCTAGON22*%
G04 #@! TA.AperFunction,SMDPad,CuDef*
%ADD23O,1.0X2.0*%
G04 #@! TA.AperFunction,Conductor*
%ADD24C,0.2*%
G04 #@! TA.AperFunction,NonConductor*
%ADD25C,0.2*%
G04 #@! TA.AperFunction,ViaPad*
%ADD26R,2.0X2.0*%
G04 #@! TA.AperFunction,Conductor*
%ADD27C,0.5*%
G04 #@! TA.AperFunction,ViaPad*
%AMROTATEDOCTAGON28*4,1,8,1.0,0.414214,0.414214,1.0,-0.414214,1.0,-1.0,0.414214,-1.0,-0.414214,-0.414214,-1.0,0.414214,-1.0,1.0,-0.414214,1.0,0.414214,0.0*%
%ADD28ROTATEDOCTAGON28*%
%ADD29C,2.0*%
G04 #@! TD*
G04 --- APERTURE LIST END --- *
G04 --- BOARD BEGIN --- *
D10*
G04 #@! TO.N,N/C*
G04 #@! TO.C,D2*
G04 #@! TO.P,D2,4,4*
X60012659Y41970886D03*
D11*
G04 #@! TO.N,N3*
G04 #@! TO.P,D2,2,2*
X55613250Y39430886D03*
D12*
G04 #@! TO.N,N/C*
G04 #@! TO.P,D2,8,8*
X65092659Y33172068D03*
D13*
G04 #@! TO.N,N3*
G04 #@! TO.P,D2,1,1*
X53413546Y38160886D03*
D14*
G04 #@! TO.N,GND*
G04 #@! TO.P,D2,3,3*
X57812955Y40700886D03*
D15*
G04 #@! TD.P*
G04 #@! TO.N,*
X59082955Y38501182D02*
X61622955Y34101773D01*
X58153250Y35031477D01*
X59082955Y38501182D01*
D16*
G04 #@! TA.AperFunction,Conductor*
G36*
X59082955Y38501182D02*
X61622955Y34101773D01*
X58153250Y35031477D01*
X59082955Y38501182D01*
G37*
D17*
G04 #@! TD.AperFunction*
G04 #@! TO.N,N3*
G04 #@! TO.C,D1*
G04 #@! TO.P,D1,4,4*
X-620000Y39140000D03*
D18*
G04 #@! TO.N,N/C*
G04 #@! TO.P,D1,2,2*
X-620000Y34060000D03*
D19*
G04 #@! TO.N,FOO*
G04 #@! TO.P,D1,7,6*
X-10780000Y36600000D03*
D20*
G04 #@! TO.N,N/C*
G04 #@! TO.P,D1,5,5*
X-10780000Y31520000D03*
D21*
G04 #@! TO.N,FOO*
G04 #@! TO.P,D1,1,1*
X-620000Y31520000D03*
D22*
G04 #@! TO.N,VCC*
G04 #@! TO.P,D1,3,3*
X-620000Y36600000D03*
D23*
G04 #@! TO.N,FOO*
G04 #@! TO.P,D1,6,6*
X-10780000Y34060000D03*
D24*
G04 #@! TD.P*
G04 #@! TO.N,*
X-3160000Y31520000D02*
X-8240000Y31520000D01*
X-5700000Y34060000D01*
X-3160000Y31520000D01*
D25*
X-7683333Y38663333D02*
X-8016666Y38663333D01*
X-8016666Y38140000D02*
X-8016666Y39140000D01*
X-7539999Y39140000D01*
X-6949999Y38140000D02*
X-7044443Y38187778D01*
X-7092221Y38235556D01*
X-7139999Y38330000D01*
X-7139999Y38616667D01*
X-7092221Y38711111D01*
X-7044443Y38758889D01*
X-6949999Y38806667D01*
X-6806666Y38806667D01*
X-6711110Y38758889D01*
X-6663332Y38711111D01*
X-6616666Y38616667D01*
X-6616666Y38330000D01*
X-6663332Y38235556D01*
X-6711110Y38187778D01*
X-6806666Y38140000D01*
X-6949999Y38140000D01*
X-6026666Y38140000D02*
X-6121110Y38187778D01*
X-6168888Y38235556D01*
X-6216666Y38330000D01*
X-6216666Y38616667D01*
X-6168888Y38711111D01*
X-6121110Y38758889D01*
X-6026666Y38806667D01*
X-5883333Y38806667D01*
X-5787777Y38758889D01*
X-5739999Y38711111D01*
X-5693333Y38616667D01*
X-5693333Y38330000D01*
X-5739999Y38235556D01*
X-5787777Y38187778D01*
X-5883333Y38140000D01*
X-6026666Y38140000D01*
X-4960000Y38663333D02*
X-4816666Y38616667D01*
X-4770000Y38568889D01*
X-4722222Y38473333D01*
X-4722222Y38330000D01*
X-4770000Y38235556D01*
X-4816666Y38187778D01*
X-4912222Y38140000D01*
X-5293333Y38140000D01*
X-5293333Y39140000D01*
X-4960000Y39140000D01*
X-4864444Y39092222D01*
X-4816666Y39044444D01*
X-4770000Y38950000D01*
X-4770000Y38854444D01*
X-4816666Y38758889D01*
X-4864444Y38711111D01*
X-4960000Y38663333D01*
X-5293333Y38663333D01*
X-3845555Y38140000D02*
X-3845555Y38663333D01*
X-3893333Y38758889D01*
X-3988889Y38806667D01*
X-4178889Y38806667D01*
X-4274444Y38758889D01*
X-3845555Y38187778D02*
X-3941111Y38140000D01*
X-4178889Y38140000D01*
X-4274444Y38187778D01*
X-4322222Y38283333D01*
X-4322222Y38377778D01*
X-4274444Y38473333D01*
X-4178889Y38521111D01*
X-3941111Y38521111D01*
X-3845555Y38568889D01*
X-3445555Y38140000D02*
X-3445555Y38806667D01*
X-3445555Y38616667D02*
X-3397777Y38711111D01*
X-3349999Y38758889D01*
X-3255555Y38806667D01*
X-3159999Y38806667D01*
D26*
G04 #@! TD.C*
G04 #@! TO.N,GND*
X16000000Y46000000D03*
D27*
G04 #@! TO.N,N3*
X23839114Y38160886D02*
X23000000Y39000000D01*
X19140000Y39140000D02*
X22860000Y39140000D01*
X-620000Y39140000D02*
X19140000Y39140000D01*
X53413546Y38160886D02*
X23839114Y38160886D01*
X22860000Y39140000D02*
X23000000Y39000000D01*
D28*
G04 #@! TO.N,GND*
X20000000Y46000000D03*
D29*
X12000000Y46000000D03*
D16*
G04 #@! TA.AperFunction,Conductor*
G04 #@! TO.N,FOO*
G36*
X-15030441Y-2687861D02*
X-13759008Y-2655054D01*
X-13755911Y-2654926D01*
X-12486118Y-2582738D01*
X-12483027Y-2582514D01*
X-12063987Y-2545635D01*
X-12063987Y30720000D01*
X-12068752Y30721566D01*
X-12080000Y30743828D01*
X-12080000Y32303987D01*
X-12078434Y32308752D01*
X-12056172Y32320000D01*
X-9496013Y32320000D01*
X-9491248Y32318434D01*
X-9480000Y32296172D01*
X-9480000Y30736013D01*
X-9481566Y30731248D01*
X-9503828Y30720000D01*
X-12063987Y30720000D01*
X-12063987Y-2545635D01*
X-11216017Y-2471007D01*
X-11212935Y-2470687D01*
X-9950118Y-2319989D01*
X-9947047Y-2319575D01*
X-8689354Y-2129797D01*
X-8686297Y-2129287D01*
X-8233296Y-2046500D01*
X-8233296Y21701606D01*
X-8251328Y21701746D01*
X-8341630Y21719167D01*
X-8356382Y21724538D01*
X-8416770Y21758144D01*
X-8422381Y21761781D01*
X-10956037Y23657035D01*
X-10962799Y23663132D01*
X-11027494Y23733174D01*
X-11037115Y23748421D01*
X-11070782Y23832698D01*
X-11074315Y23850376D01*
X-11075623Y23941123D01*
X-11072602Y23958891D01*
X-11041375Y24044108D01*
X-11032201Y24059621D01*
X-10973896Y24126515D01*
X-10956279Y24139389D01*
X-10829517Y24194220D01*
X-10816969Y24197786D01*
X-10525042Y24240547D01*
X-10513653Y24242899D01*
X-10244785Y24314943D01*
X-10233747Y24318600D01*
X-9975070Y24421364D01*
X-9964530Y24426279D01*
X-9719553Y24558370D01*
X-9709655Y24564475D01*
X-9481647Y24724128D01*
X-9472526Y24731340D01*
X-9264601Y24916377D01*
X-9256377Y24924601D01*
X-9071340Y25132526D01*
X-9064128Y25141647D01*
X-8904475Y25369655D01*
X-8898370Y25379553D01*
X-8766279Y25624530D01*
X-8761364Y25635070D01*
X-8658600Y25893747D01*
X-8654943Y25904785D01*
X-8582899Y26173653D01*
X-8580547Y26185042D01*
X-8537495Y26478952D01*
X-8535356Y26487813D01*
X-8504618Y26578063D01*
X-8495799Y26593789D01*
X-8437520Y26663838D01*
X-8424286Y26675017D01*
X-8348674Y26718899D01*
X-8341089Y26722487D01*
X-7989878Y26853756D01*
X-7987459Y26854590D01*
X-7960558Y26863099D01*
X-7958080Y26863813D01*
X-7592452Y26959130D01*
X-7589939Y26959716D01*
X-7562310Y26965423D01*
X-7559790Y26965876D01*
X-7186280Y27023225D01*
X-7183769Y27023545D01*
X-7155662Y27026394D01*
X-7153149Y27026584D01*
X-6775702Y27045353D01*
X-6773181Y27045414D01*
X-6744941Y27045367D01*
X-6742378Y27045297D01*
X-6365041Y27025286D01*
X-6362478Y27025083D01*
X-6334444Y27022148D01*
X-6331857Y27021810D01*
X-5958589Y26963238D01*
X-5956055Y26962773D01*
X-5928455Y26956978D01*
X-5925930Y26956380D01*
X-5560613Y26859857D01*
X-5558165Y26859142D01*
X-5531292Y26850544D01*
X-5528849Y26849692D01*
X-5175358Y26716241D01*
X-5172967Y26715268D01*
X-5147103Y26703956D01*
X-5144811Y26702882D01*
X-4806837Y26533895D01*
X-4804537Y26532670D01*
X-4780004Y26518786D01*
X-4777804Y26517466D01*
X-4458925Y26314729D01*
X-4456797Y26313298D01*
X-4433815Y26296973D01*
X-4431739Y26295417D01*
X-4135308Y26061061D01*
X-4133362Y26059439D01*
X-4112135Y26040809D01*
X-4110270Y26039086D01*
X-3839433Y25775595D01*
X-3837628Y25773747D01*
X-3818436Y25753056D01*
X-3816739Y25751128D01*
X-3574338Y25461278D01*
X-3572744Y25459269D01*
X-3555772Y25436716D01*
X-3554289Y25434636D01*
X-3342872Y25121472D01*
X-3341463Y25119264D01*
X-3326930Y25095155D01*
X-3325629Y25092867D01*
X-3147433Y24759707D01*
X-3146275Y24757402D01*
X-3134260Y24731868D01*
X-3133226Y24729516D01*
X-2990105Y24379829D01*
X-2989187Y24377411D01*
X-2979860Y24350804D01*
X-2979063Y24348328D01*
X-2873461Y23988971D01*
X-2871701Y23980034D01*
X-2861898Y23885191D01*
X-2863336Y23867223D01*
X-2886900Y23779582D01*
X-2894668Y23763313D01*
X-2947746Y23690259D01*
X-2961561Y23677373D01*
X-3050640Y23621677D01*
X-3059614Y23617249D01*
X-8130615Y21720614D01*
X-8139417Y21718212D01*
X-8233296Y21701606D01*
X-8233296Y-2046500D01*
X-7435161Y-1900640D01*
X-7432121Y-1900035D01*
X-6188708Y-1632737D01*
X-6185689Y-1632039D01*
X-4951124Y-1326332D01*
X-4948127Y-1325541D01*
X-3723577Y-981711D01*
X-3720607Y-980827D01*
X-2507318Y-599224D01*
X-2504377Y-598248D01*
X-1303583Y-179263D01*
X-1300673Y-178197D01*
X-110475Y278935D01*
X-104537Y280802D01*
X-38266Y297175D01*
X-32142Y298289D01*
X28004572Y3614459D01*
X28004572Y20700000D01*
X27995502Y20700832D01*
X27901747Y20718166D01*
X27884907Y20724613D01*
X27807469Y20771930D01*
X27794048Y20783973D01*
X27739480Y20854770D01*
X27730579Y20873349D01*
X27701391Y20994240D01*
X27700000Y21005926D01*
X27700000Y32995428D01*
X27700832Y33004498D01*
X27717947Y33097070D01*
X27725657Y33115852D01*
X27793574Y33215939D01*
X27801064Y33224627D01*
X28140013Y33536652D01*
X28141606Y33538059D01*
X28158902Y33552709D01*
X28160552Y33554049D01*
X28527853Y33839931D01*
X28529513Y33841168D01*
X28548004Y33854371D01*
X28549704Y33855533D01*
X28939405Y34110137D01*
X28941152Y34111226D01*
X28960646Y34122842D01*
X28962481Y34123885D01*
X29371816Y34345406D01*
X29373698Y34346375D01*
X29394083Y34356341D01*
X29395969Y34357215D01*
X29822247Y34544198D01*
X29824132Y34544979D01*
X29845299Y34553238D01*
X29847256Y34553956D01*
X30287523Y34705100D01*
X30289459Y34705720D01*
X30311252Y34712208D01*
X30313263Y34712762D01*
X30764496Y34827030D01*
X30766477Y34827488D01*
X30788731Y34832154D01*
X30790779Y34832539D01*
X31249905Y34909153D01*
X31251917Y34909446D01*
X31274467Y34912257D01*
X31276579Y34912476D01*
X31384327Y34921404D01*
X31441841Y34945736D01*
X31473705Y34999445D01*
X31471852Y35049797D01*
X30724905Y37539621D01*
X30689179Y37590843D01*
X30629122Y37610886D01*
X23842384Y37610886D01*
X23835875Y37611312D01*
X23703255Y37628771D01*
X23690713Y37632132D01*
X23570166Y37682065D01*
X23558915Y37688561D01*
X23452804Y37769983D01*
X23447893Y37774289D01*
X22661471Y38560711D01*
X22590760Y38590000D01*
X537967Y38590000D01*
X477959Y38569994D01*
X465691Y38560791D01*
X457324Y38555714D01*
X298718Y38479637D01*
X294177Y38477727D01*
X147184Y38424226D01*
X98104Y38385611D01*
X81504Y38325408D01*
X103857Y38267096D01*
X147184Y38236288D01*
X482948Y38114079D01*
X510046Y38089248D01*
X948375Y37149252D01*
X949978Y37112532D01*
X253223Y35198216D01*
X220550Y35162559D01*
X194846Y35105644D01*
X207921Y35044578D01*
X254675Y35003176D01*
X294278Y34995000D01*
X933987Y34995000D01*
X938752Y34993434D01*
X950000Y34971172D01*
X950000Y33141013D01*
X948434Y33136248D01*
X926172Y33125000D01*
X-2173987Y33125000D01*
X-2178752Y33126566D01*
X-2190000Y33148828D01*
X-2190000Y34978987D01*
X-2188434Y34983752D01*
X-2166172Y34995000D01*
X-1853039Y34995000D01*
X-1793712Y35014500D01*
X-1757522Y35065395D01*
X-1762408Y35137262D01*
X-2188375Y36050748D01*
X-2189978Y36087468D01*
X-1517502Y37935080D01*
X-1515535Y37997499D01*
X-1578296Y38063619D01*
X-1607218Y38073790D01*
X-1616081Y38077923D01*
X-1765352Y38166289D01*
X-1773240Y38172073D01*
X-1902401Y38287861D01*
X-1909008Y38295071D01*
X-2013098Y38433833D01*
X-2018175Y38442199D01*
X-2093193Y38598599D01*
X-2096538Y38607789D01*
X-2139603Y38775822D01*
X-2141091Y38785490D01*
X-2150548Y38958693D01*
X-2150121Y38968469D01*
X-2125605Y39140187D01*
X-2123279Y39149691D01*
X-2065733Y39313331D01*
X-2061600Y39322194D01*
X-1973234Y39471465D01*
X-1967450Y39479353D01*
X-1851662Y39608514D01*
X-1844452Y39615121D01*
X-1705684Y39719216D01*
X-1697334Y39724283D01*
X-1538699Y39800372D01*
X-1534188Y39802269D01*
X-345401Y40234952D01*
X-340697Y40236407D01*
X-170289Y40280080D01*
X-160626Y40281568D01*
X12580Y40291025D01*
X22356Y40290598D01*
X194074Y40266082D01*
X203578Y40263756D01*
X367218Y40206210D01*
X376084Y40202075D01*
X525350Y40113712D01*
X533237Y40107929D01*
X662400Y39992140D01*
X669007Y39984930D01*
X773097Y39846168D01*
X778174Y39837802D01*
X821847Y39746752D01*
X865087Y39701693D01*
X912011Y39690000D01*
X4456435Y39690000D01*
X4456435Y57660255D01*
X4207399Y57678066D01*
X4200344Y57679080D01*
X3956364Y57732155D01*
X3949538Y57734160D01*
X3715602Y57821413D01*
X3709118Y57824374D01*
X3489983Y57944032D01*
X3483986Y57947886D01*
X3284110Y58097510D01*
X3278727Y58102175D01*
X3102175Y58278727D01*
X3097510Y58284110D01*
X2947886Y58483986D01*
X2944032Y58489983D01*
X2824374Y58709118D01*
X2821413Y58715602D01*
X2734160Y58949538D01*
X2732155Y58956364D01*
X2679080Y59200344D01*
X2678066Y59207399D01*
X2660255Y59456435D01*
X2660255Y59463565D01*
X2678066Y59712601D01*
X2679080Y59719656D01*
X2732155Y59963636D01*
X2734160Y59970462D01*
X2821413Y60204398D01*
X2824374Y60210882D01*
X2944032Y60430017D01*
X2947886Y60436014D01*
X3097510Y60635890D01*
X3102175Y60641273D01*
X3278727Y60817825D01*
X3284110Y60822490D01*
X3483986Y60972114D01*
X3489983Y60975968D01*
X3709118Y61095626D01*
X3715602Y61098587D01*
X3949538Y61185840D01*
X3956364Y61187845D01*
X4200344Y61240920D01*
X4207399Y61241934D01*
X4456435Y61259745D01*
X4463565Y61259745D01*
X4712601Y61241934D01*
X4719656Y61240920D01*
X4963636Y61187845D01*
X4970462Y61185840D01*
X5204398Y61098587D01*
X5210882Y61095626D01*
X5430017Y60975968D01*
X5436014Y60972114D01*
X5635890Y60822490D01*
X5641273Y60817825D01*
X5817825Y60641273D01*
X5822490Y60635890D01*
X5972114Y60436014D01*
X5975968Y60430017D01*
X6095626Y60210882D01*
X6098587Y60204398D01*
X6185840Y59970462D01*
X6187845Y59963636D01*
X6240920Y59719656D01*
X6241934Y59712601D01*
X6259745Y59463565D01*
X6259745Y59456435D01*
X6241934Y59207399D01*
X6240920Y59200344D01*
X6187845Y58956364D01*
X6185840Y58949538D01*
X6098587Y58715602D01*
X6095626Y58709118D01*
X5975968Y58489983D01*
X5972114Y58483986D01*
X5822490Y58284110D01*
X5817825Y58278727D01*
X5641273Y58102175D01*
X5635890Y58097510D01*
X5436014Y57947886D01*
X5430017Y57944032D01*
X5210882Y57824374D01*
X5204398Y57821413D01*
X4970462Y57734160D01*
X4963636Y57732155D01*
X4719656Y57679080D01*
X4712601Y57678066D01*
X4463565Y57660255D01*
X4456435Y57660255D01*
X4456435Y39690000D01*
X11995645Y39690000D01*
X11995645Y44700381D01*
X11778613Y44719369D01*
X11770038Y44720880D01*
X11559588Y44777271D01*
X11551419Y44780244D01*
X11353955Y44872323D01*
X11346424Y44876671D01*
X11167951Y45001638D01*
X11161291Y45007227D01*
X11007227Y45161291D01*
X11001638Y45167951D01*
X10876671Y45346424D01*
X10872323Y45353955D01*
X10780244Y45551419D01*
X10777271Y45559588D01*
X10720880Y45770038D01*
X10719369Y45778613D01*
X10700381Y45995645D01*
X10700381Y46004355D01*
X10719369Y46221387D01*
X10720880Y46229962D01*
X10777271Y46440412D01*
X10780244Y46448581D01*
X10872323Y46646045D01*
X10876671Y46653576D01*
X11001638Y46832049D01*
X11007227Y46838709D01*
X11161291Y46992773D01*
X11167951Y46998362D01*
X11346424Y47123329D01*
X11353955Y47127677D01*
X11551419Y47219756D01*
X11559588Y47222729D01*
X11770038Y47279120D01*
X11778613Y47280631D01*
X11995645Y47299619D01*
X12004355Y47299619D01*
X12221387Y47280631D01*
X12229962Y47279120D01*
X12440412Y47222729D01*
X12448581Y47219756D01*
X12646045Y47127677D01*
X12653576Y47123329D01*
X12832049Y46998362D01*
X12838709Y46992773D01*
X12992773Y46838709D01*
X12998362Y46832049D01*
X13123329Y46653576D01*
X13127677Y46646045D01*
X13219756Y46448581D01*
X13222729Y46440412D01*
X13279120Y46229962D01*
X13280631Y46221387D01*
X13299619Y46004355D01*
X13299619Y45995645D01*
X13280631Y45778613D01*
X13279120Y45770038D01*
X13222729Y45559588D01*
X13219756Y45551419D01*
X13127677Y45353955D01*
X13123329Y45346424D01*
X12998362Y45167951D01*
X12992773Y45161291D01*
X12838709Y45007227D01*
X12832049Y45001638D01*
X12653576Y44876671D01*
X12646045Y44872323D01*
X12448581Y44780244D01*
X12440412Y44777271D01*
X12229962Y44720880D01*
X12221387Y44719369D01*
X12004355Y44700381D01*
X11995645Y44700381D01*
X11995645Y39690000D01*
X14716013Y39690000D01*
X14716013Y44700000D01*
X14711248Y44701566D01*
X14700000Y44723828D01*
X14700000Y47283987D01*
X14701566Y47288752D01*
X14723828Y47300000D01*
X17283987Y47300000D01*
X17288752Y47298434D01*
X17300000Y47276172D01*
X17300000Y44716013D01*
X17298434Y44711248D01*
X17276172Y44700000D01*
X14716013Y44700000D01*
X14716013Y39690000D01*
X19481413Y39690000D01*
X19481413Y44700000D01*
X19447458Y44714064D01*
X18714064Y45447458D01*
X18700000Y45481413D01*
X18700000Y46518587D01*
X18714064Y46552542D01*
X19447458Y47285936D01*
X19481413Y47300000D01*
X20518587Y47300000D01*
X20552542Y47285936D01*
X21285936Y46552542D01*
X21300000Y46518587D01*
X21300000Y45481413D01*
X21285936Y45447458D01*
X20552542Y44714064D01*
X20518587Y44700000D01*
X19481413Y44700000D01*
X19481413Y39690000D01*
X22856731Y39690000D01*
X22863240Y39689574D01*
X22995860Y39672115D01*
X23008402Y39668754D01*
X23128949Y39618821D01*
X23140200Y39612325D01*
X23184457Y39578365D01*
X23243488Y39533069D01*
X23247867Y39528641D01*
X23250551Y39527266D01*
X23388901Y39388916D01*
X23388916Y39388902D01*
X24037643Y38740175D01*
X24108354Y38710886D01*
X30239121Y38710886D01*
X30298448Y38730386D01*
X30334638Y38781281D01*
X30334904Y38839621D01*
X29729688Y40857009D01*
X29728501Y40861822D01*
X29718078Y40915465D01*
X29717373Y40920393D01*
X29714551Y40950843D01*
X29715023Y40963670D01*
X29738196Y41102068D01*
X29741925Y41114339D01*
X29763332Y41161738D01*
X29767158Y41168681D01*
X29815009Y41241244D01*
X29819877Y41247487D01*
X30058753Y41508173D01*
X30064360Y41514856D01*
X30305955Y41829709D01*
X30310959Y41836855D01*
X30524206Y42171588D01*
X30528568Y42179143D01*
X30711825Y42531174D01*
X30715512Y42539081D01*
X30867392Y42905753D01*
X30870376Y42913950D01*
X30989719Y43292455D01*
X30991977Y43300882D01*
X31077884Y43688384D01*
X31079398Y43696975D01*
X31131198Y44090433D01*
X31131959Y44099124D01*
X31149272Y44495638D01*
X31149272Y44504362D01*
X31131959Y44900876D01*
X31131198Y44909567D01*
X31079398Y45303025D01*
X31077884Y45311616D01*
X30991977Y45699118D01*
X30989719Y45707545D01*
X30870376Y46086050D01*
X30867392Y46094247D01*
X30715512Y46460919D01*
X30711825Y46468826D01*
X30528568Y46820857D01*
X30524206Y46828412D01*
X30310959Y47163145D01*
X30305955Y47170291D01*
X30064359Y47485144D01*
X30058752Y47491827D01*
X29810356Y47762904D01*
X29804459Y47770777D01*
X29748572Y47863160D01*
X29744336Y47872038D01*
X29721540Y47935205D01*
X29719130Y47944743D01*
X29703142Y48051516D01*
X29702652Y48061351D01*
X29719353Y48401309D01*
X29719424Y48402468D01*
X29720421Y48415974D01*
X29720526Y48417193D01*
X29721363Y48425692D01*
X29721505Y48426973D01*
X29723151Y48440319D01*
X29723320Y48441561D01*
X29779297Y48818927D01*
X29779494Y48820148D01*
X29781802Y48833450D01*
X29782019Y48834614D01*
X29783703Y48843079D01*
X29783957Y48844276D01*
X29786913Y48857439D01*
X29787193Y48858617D01*
X29879885Y49228664D01*
X29880205Y49229876D01*
X29883792Y49242840D01*
X29884156Y49244095D01*
X29886636Y49252271D01*
X29887000Y49253418D01*
X29891254Y49266296D01*
X29891633Y49267397D01*
X30020140Y49626549D01*
X30020588Y49627755D01*
X30025437Y49640327D01*
X30025897Y49641478D01*
X30029185Y49649415D01*
X30029656Y49650515D01*
X30035131Y49662865D01*
X30035651Y49664001D01*
X30198742Y50008829D01*
X30199307Y50009985D01*
X30205374Y50022040D01*
X30205913Y50023078D01*
X30209980Y50030687D01*
X30210559Y50031740D01*
X30217227Y50043510D01*
X30217833Y50044550D01*
X30413960Y50371768D01*
X30414606Y50372816D01*
X30421817Y50384205D01*
X30422481Y50385226D01*
X30427277Y50392405D01*
X30427943Y50393374D01*
X30435749Y50404458D01*
X30436433Y50405405D01*
X30663718Y50711863D01*
X30664427Y50712795D01*
X30672783Y50723502D01*
X30673527Y50724431D01*
X30678932Y50731017D01*
X30679793Y50732040D01*
X30688588Y50742236D01*
X30689366Y50743115D01*
X30945583Y51025807D01*
X30946401Y51026688D01*
X30955753Y51036510D01*
X30956534Y51037311D01*
X30962689Y51043466D01*
X30963490Y51044247D01*
X30973312Y51053599D01*
X30974193Y51054417D01*
X31256885Y51310634D01*
X31257764Y51311412D01*
X31267960Y51320207D01*
X31268983Y51321068D01*
X31275569Y51326473D01*
X31276498Y51327217D01*
X31287205Y51335573D01*
X31288137Y51336282D01*
X31594595Y51563567D01*
X31595542Y51564251D01*
X31606626Y51572057D01*
X31607595Y51572723D01*
X31614774Y51577519D01*
X31615795Y51578183D01*
X31627184Y51585394D01*
X31628232Y51586040D01*
X31955450Y51782167D01*
X31956490Y51782773D01*
X31968260Y51789441D01*
X31969313Y51790020D01*
X31976922Y51794087D01*
X31977960Y51794626D01*
X31990015Y51800693D01*
X31991171Y51801258D01*
X32335999Y51964349D01*
X32337135Y51964869D01*
X32349485Y51970344D01*
X32350585Y51970815D01*
X32358522Y51974103D01*
X32359673Y51974563D01*
X32372245Y51979412D01*
X32373451Y51979860D01*
X32732603Y52108367D01*
X32733704Y52108746D01*
X32746582Y52113000D01*
X32747729Y52113364D01*
X32755905Y52115844D01*
X32757160Y52116208D01*
X32770124Y52119795D01*
X32771336Y52120115D01*
X33141383Y52212807D01*
X33142561Y52213087D01*
X33155724Y52216043D01*
X33156921Y52216297D01*
X33165386Y52217981D01*
X33166550Y52218198D01*
X33179852Y52220506D01*
X33181073Y52220703D01*
X33558439Y52276680D01*
X33559681Y52276849D01*
X33573027Y52278495D01*
X33574308Y52278637D01*
X33582807Y52279474D01*
X33584026Y52279579D01*
X33597532Y52280576D01*
X33598691Y52280647D01*
X33979777Y52299369D01*
X33980985Y52299413D01*
X33994445Y52299743D01*
X33995744Y52299759D01*
X34004256Y52299759D01*
X34005555Y52299743D01*
X34019015Y52299413D01*
X34020223Y52299369D01*
X34401309Y52280647D01*
X34402468Y52280576D01*
X34415974Y52279579D01*
X34417193Y52279474D01*
X34425692Y52278637D01*
X34426973Y52278495D01*
X34440319Y52276849D01*
X34441561Y52276680D01*
X34818927Y52220703D01*
X34820148Y52220506D01*
X34833450Y52218198D01*
X34834614Y52217981D01*
X34843079Y52216297D01*
X34844276Y52216043D01*
X34857439Y52213087D01*
X34858617Y52212807D01*
X35228664Y52120115D01*
X35229876Y52119795D01*
X35242840Y52116208D01*
X35244095Y52115844D01*
X35252271Y52113364D01*
X35253418Y52113000D01*
X35266296Y52108746D01*
X35267397Y52108367D01*
X35626549Y51979860D01*
X35627755Y51979412D01*
X35640327Y51974563D01*
X35641478Y51974103D01*
X35649415Y51970815D01*
X35650515Y51970344D01*
X35662865Y51964869D01*
X35664001Y51964349D01*
X36008829Y51801258D01*
X36009985Y51800693D01*
X36022040Y51794626D01*
X36023078Y51794087D01*
X36030687Y51790020D01*
X36031740Y51789441D01*
X36043510Y51782773D01*
X36044550Y51782167D01*
X36371768Y51586040D01*
X36372816Y51585394D01*
X36384205Y51578183D01*
X36385226Y51577519D01*
X36392405Y51572723D01*
X36393374Y51572057D01*
X36404458Y51564251D01*
X36405405Y51563567D01*
X36711863Y51336282D01*
X36712795Y51335573D01*
X36723502Y51327217D01*
X36724431Y51326473D01*
X36731017Y51321068D01*
X36732040Y51320207D01*
X36742236Y51311412D01*
X36743115Y51310634D01*
X37025807Y51054417D01*
X37026688Y51053599D01*
X37036510Y51044247D01*
X37037311Y51043466D01*
X37043466Y51037311D01*
X37044247Y51036510D01*
X37053599Y51026688D01*
X37054417Y51025807D01*
X37310634Y50743115D01*
X37311412Y50742236D01*
X37320207Y50732040D01*
X37321068Y50731017D01*
X37326473Y50724431D01*
X37327217Y50723502D01*
X37335573Y50712795D01*
X37336282Y50711863D01*
X37563567Y50405405D01*
X37564251Y50404458D01*
X37572057Y50393374D01*
X37572723Y50392405D01*
X37577519Y50385226D01*
X37578183Y50384205D01*
X37585394Y50372816D01*
X37586040Y50371768D01*
X37782167Y50044550D01*
X37782773Y50043510D01*
X37789441Y50031740D01*
X37790020Y50030687D01*
X37794087Y50023078D01*
X37794626Y50022040D01*
X37800693Y50009985D01*
X37801258Y50008829D01*
X37964349Y49664001D01*
X37964869Y49662865D01*
X37970344Y49650515D01*
X37970815Y49649415D01*
X37974103Y49641478D01*
X37974563Y49640327D01*
X37979412Y49627755D01*
X37979860Y49626549D01*
X38108367Y49267397D01*
X38108746Y49266296D01*
X38113000Y49253418D01*
X38113364Y49252271D01*
X38115844Y49244095D01*
X38116208Y49242840D01*
X38119795Y49229876D01*
X38120115Y49228664D01*
X38212807Y48858617D01*
X38213087Y48857439D01*
X38216043Y48844276D01*
X38216297Y48843079D01*
X38217981Y48834614D01*
X38218198Y48833450D01*
X38220506Y48820148D01*
X38220703Y48818927D01*
X38276680Y48441561D01*
X38276849Y48440319D01*
X38278495Y48426973D01*
X38278637Y48425692D01*
X38279474Y48417193D01*
X38279579Y48415974D01*
X38280576Y48402468D01*
X38280647Y48401309D01*
X38299505Y48017441D01*
X38299530Y48016870D01*
X38299781Y48010025D01*
X38299797Y48009504D01*
X38299901Y48005255D01*
X38299915Y48004446D01*
X38299995Y47997927D01*
X38300000Y47997191D01*
X38300000Y38810886D01*
X38319500Y38751559D01*
X38400000Y38710886D01*
X52068122Y38710886D01*
X52127449Y38730386D01*
X52166786Y38794597D01*
X52192105Y38947955D01*
X52194637Y38957408D01*
X52255741Y39119759D01*
X52260063Y39128522D01*
X52351666Y39275830D01*
X52357622Y39283593D01*
X52476195Y39410191D01*
X52483557Y39416648D01*
X52624549Y39517682D01*
X52633023Y39522575D01*
X52791026Y39594165D01*
X52800281Y39597307D01*
X52969220Y39636697D01*
X52978917Y39637974D01*
X53152283Y39643649D01*
X53162050Y39643009D01*
X53333188Y39614754D01*
X53342641Y39612222D01*
X53504992Y39551118D01*
X53513755Y39546796D01*
X53661063Y39455193D01*
X53668826Y39449237D01*
X53795424Y39330664D01*
X53801881Y39323302D01*
X53904351Y39180306D01*
X53907001Y39176197D01*
X54539558Y38080576D01*
X54541790Y38076229D01*
X54614399Y37915979D01*
X54617541Y37906725D01*
X54656931Y37737786D01*
X54658208Y37728089D01*
X54663883Y37554723D01*
X54663243Y37544956D01*
X54634988Y37373817D01*
X54632456Y37364365D01*
X54571351Y37202014D01*
X54567029Y37193250D01*
X54475426Y37045942D01*
X54469470Y37038179D01*
X54350897Y36911581D01*
X54343535Y36905124D01*
X54202543Y36804090D01*
X54194069Y36799197D01*
X54036066Y36727607D01*
X54026811Y36724465D01*
X53857872Y36685075D01*
X53848175Y36683798D01*
X53674809Y36678123D01*
X53665042Y36678763D01*
X53493903Y36707018D01*
X53484451Y36709550D01*
X53322100Y36770655D01*
X53313336Y36774977D01*
X53166028Y36866580D01*
X53158265Y36872536D01*
X53031667Y36991109D01*
X53025210Y36998471D01*
X52922740Y37141467D01*
X52920090Y37145576D01*
X52680311Y37560886D01*
X52633759Y37602515D01*
X52593708Y37610886D01*
X38400000Y37610886D01*
X38340673Y37591386D01*
X38300000Y37510886D01*
X38300000Y31105853D01*
X38298644Y31094308D01*
X38269120Y30970404D01*
X38265122Y30959485D01*
X38229462Y30888905D01*
X38223793Y30880115D01*
X38154891Y30794511D01*
X38140072Y30782111D01*
X38057019Y30736696D01*
X38048656Y30733071D01*
X37997444Y30716238D01*
X37989759Y30714373D01*
X37903923Y30700628D01*
X37896028Y30700000D01*
X37323116Y30700000D01*
X37263789Y30680500D01*
X37227599Y30629605D01*
X37228661Y30567164D01*
X37249021Y30532844D01*
X37380662Y30387601D01*
X37387601Y30380662D01*
X37649333Y30143442D01*
X37656919Y30137216D01*
X37940646Y29926790D01*
X37948805Y29921338D01*
X38251787Y29739736D01*
X38260443Y29735110D01*
X38579776Y29584077D01*
X38588842Y29580321D01*
X38921425Y29461322D01*
X38930816Y29458474D01*
X39273463Y29372645D01*
X39283088Y29370730D01*
X39632507Y29318898D01*
X39642273Y29317936D01*
X40010159Y29299863D01*
X40019166Y29298589D01*
X40111964Y29276673D01*
X40128467Y29269407D01*
X40203493Y29218346D01*
X40216302Y29205664D01*
X40267685Y29131764D01*
X40275434Y29113933D01*
X40298879Y29005201D01*
X40300000Y28994681D01*
X40300000Y21004572D01*
X40299168Y20995502D01*
X40281834Y20901747D01*
X40275387Y20884907D01*
X40228070Y20807469D01*
X40216027Y20794048D01*
X40145230Y20739480D01*
X40126651Y20730579D01*
X40005760Y20701391D01*
X39994074Y20700000D01*
X28004572Y20700000D01*
X28004572Y3614459D01*
X47995645Y5978995D01*
X47995645Y18700381D01*
X47778613Y18719369D01*
X47770038Y18720880D01*
X47559588Y18777271D01*
X47551419Y18780244D01*
X47353955Y18872323D01*
X47346424Y18876671D01*
X47167951Y19001638D01*
X47161291Y19007227D01*
X47007227Y19161291D01*
X47001638Y19167951D01*
X46876671Y19346424D01*
X46872323Y19353955D01*
X46780244Y19551419D01*
X46777271Y19559588D01*
X46720880Y19770038D01*
X46719369Y19778613D01*
X46700381Y19995645D01*
X46700381Y20004355D01*
X46719369Y20221387D01*
X46720880Y20229962D01*
X46777271Y20440412D01*
X46780244Y20448581D01*
X46872323Y20646045D01*
X46876671Y20653576D01*
X47001638Y20832049D01*
X47007227Y20838709D01*
X47161291Y20992773D01*
X47167951Y20998362D01*
X47346424Y21123329D01*
X47353955Y21127677D01*
X47551419Y21219756D01*
X47559588Y21222729D01*
X47770038Y21279120D01*
X47778613Y21280631D01*
X47995645Y21299619D01*
X48004355Y21299619D01*
X48221387Y21280631D01*
X48229962Y21279120D01*
X48440412Y21222729D01*
X48448581Y21219756D01*
X48646045Y21127677D01*
X48653576Y21123329D01*
X48832049Y20998362D01*
X48838709Y20992773D01*
X48992773Y20838709D01*
X48998362Y20832049D01*
X49123329Y20653576D01*
X49127677Y20646045D01*
X49219756Y20448581D01*
X49222729Y20440412D01*
X49279120Y20229962D01*
X49280631Y20221387D01*
X49299619Y20004355D01*
X49299619Y19995645D01*
X49280631Y19778613D01*
X49279120Y19770038D01*
X49222729Y19559588D01*
X49219756Y19551419D01*
X49127677Y19353955D01*
X49123329Y19346424D01*
X48998362Y19167951D01*
X48992773Y19161291D01*
X48838709Y19007227D01*
X48832049Y19001638D01*
X48653576Y18876671D01*
X48646045Y18872323D01*
X48448581Y18780244D01*
X48440412Y18777271D01*
X48229962Y18720880D01*
X48221387Y18719369D01*
X48004355Y18700381D01*
X47995645Y18700381D01*
X47995645Y5978995D01*
X51919467Y6443102D01*
X51919467Y25255834D01*
X51782753Y25275400D01*
X51770191Y25278924D01*
X48864989Y26524237D01*
X48856988Y26528570D01*
X48777640Y26581444D01*
X48764704Y26594004D01*
X48711466Y26668996D01*
X48704513Y26683073D01*
X48684087Y26749081D01*
X48682537Y26755616D01*
X47789296Y32097188D01*
X47788619Y32106277D01*
X47790253Y32201608D01*
X47793834Y32219276D01*
X47827732Y32303463D01*
X47837393Y32318681D01*
X47898842Y32384847D01*
X47914102Y32395985D01*
X48009221Y32440608D01*
X48018650Y32443924D01*
X48382256Y32532049D01*
X48384735Y32532584D01*
X48412475Y32537816D01*
X48415021Y32538229D01*
X48789441Y32589129D01*
X48791990Y32589409D01*
X48820103Y32591770D01*
X48822668Y32591919D01*
X49200304Y32604178D01*
X49202916Y32604195D01*
X49231121Y32603663D01*
X49233650Y32603551D01*
X49610602Y32577038D01*
X49613168Y32576791D01*
X49641144Y32573374D01*
X49643735Y32572989D01*
X50015923Y32507995D01*
X50018454Y32507486D01*
X50045978Y32501209D01*
X50048428Y32500584D01*
X50412068Y32397767D01*
X50414502Y32397010D01*
X50441247Y32387942D01*
X50443638Y32387062D01*
X50794775Y32247539D01*
X50797162Y32246519D01*
X50822829Y32234762D01*
X50825098Y32233652D01*
X51160133Y32058853D01*
X51162356Y32057619D01*
X51186674Y32043299D01*
X51188876Y32041924D01*
X51504186Y31833740D01*
X51506291Y31832271D01*
X51529030Y31815521D01*
X51531034Y31813963D01*
X51823378Y31574535D01*
X51825302Y31572876D01*
X51846221Y31553868D01*
X51848035Y31552132D01*
X52114318Y31283987D01*
X52116069Y31282131D01*
X52134918Y31261094D01*
X52136545Y31259182D01*
X52373955Y30965145D01*
X52375491Y30963139D01*
X52392080Y30940285D01*
X52393533Y30938172D01*
X52599523Y30621407D01*
X52600877Y30619203D01*
X52615015Y30594809D01*
X52616250Y30592548D01*
X52788700Y30256321D01*
X52789807Y30254020D01*
X52801373Y30228297D01*
X52802378Y30225900D01*
X52939445Y29873814D01*
X52940327Y29871364D01*
X52949194Y29844603D01*
X52949942Y29842136D01*
X53050216Y29477806D01*
X53050825Y29475350D01*
X53056909Y29447783D01*
X53057399Y29445257D01*
X53119261Y29075832D01*
X53119940Y29066746D01*
X53118327Y28971414D01*
X53114749Y28953742D01*
X53080734Y28869210D01*
X53071560Y28854512D01*
X53013024Y28789573D01*
X53006905Y28783837D01*
X52773604Y28599367D01*
X52764916Y28591636D01*
X52568096Y28394816D01*
X52560365Y28386128D01*
X52387737Y28167803D01*
X52381067Y28158278D01*
X52234940Y27921371D01*
X52229421Y27911135D01*
X52111792Y27658880D01*
X52107499Y27648072D01*
X52019951Y27383865D01*
X52016941Y27372633D01*
X51960655Y27100040D01*
X51958970Y27088534D01*
X51934712Y26811270D01*
X51934373Y26799645D01*
X51942470Y26521409D01*
X51943484Y26509825D01*
X51983821Y26234443D01*
X51986172Y26223054D01*
X52058214Y25954189D01*
X52061872Y25943150D01*
X52171549Y25667077D01*
X52174124Y25658343D01*
X52192630Y25564810D01*
X52192855Y25546784D01*
X52177470Y25457338D01*
X52171238Y25440433D01*
X52124887Y25362399D01*
X52113018Y25348833D01*
X52041832Y25292535D01*
X52025901Y25284113D01*
X51941219Y25257592D01*
X51919467Y25255834D01*
X51919467Y6443102D01*
X55597474Y6878135D01*
X55597474Y37610707D01*
X55576602Y37624362D01*
X54026522Y40309180D01*
X54025496Y40314088D01*
X54039151Y40334960D01*
X55624118Y41250040D01*
X55629026Y41251066D01*
X55649898Y41237411D01*
X55965845Y40690174D01*
X55995645Y40663525D01*
X55995645Y71700381D01*
X55778613Y71719369D01*
X55770038Y71720880D01*
X55559588Y71777271D01*
X55551419Y71780244D01*
X55353955Y71872323D01*
X55346424Y71876671D01*
X55167951Y72001638D01*
X55161291Y72007227D01*
X55007227Y72161291D01*
X55001638Y72167951D01*
X54876671Y72346424D01*
X54872323Y72353955D01*
X54780244Y72551419D01*
X54777271Y72559588D01*
X54720880Y72770038D01*
X54719369Y72778613D01*
X54700381Y72995645D01*
X54700381Y73004355D01*
X54719369Y73221387D01*
X54720880Y73229962D01*
X54777271Y73440412D01*
X54780244Y73448581D01*
X54872323Y73646045D01*
X54876671Y73653576D01*
X55001638Y73832049D01*
X55007227Y73838709D01*
X55161291Y73992773D01*
X55167951Y73998362D01*
X55346424Y74123329D01*
X55353955Y74127677D01*
X55551419Y74219756D01*
X55559588Y74222729D01*
X55770038Y74279120D01*
X55778613Y74280631D01*
X55995645Y74299619D01*
X56004355Y74299619D01*
X56221387Y74280631D01*
X56229962Y74279120D01*
X56440412Y74222729D01*
X56448581Y74219756D01*
X56646045Y74127677D01*
X56653576Y74123329D01*
X56832049Y73998362D01*
X56838709Y73992773D01*
X56992773Y73838709D01*
X56998362Y73832049D01*
X57123329Y73653576D01*
X57127677Y73646045D01*
X57219756Y73448581D01*
X57222729Y73440412D01*
X57279120Y73229962D01*
X57280631Y73221387D01*
X57299619Y73004355D01*
X57299619Y72995645D01*
X57280631Y72778613D01*
X57279120Y72770038D01*
X57222729Y72559588D01*
X57219756Y72551419D01*
X57127677Y72353955D01*
X57123329Y72346424D01*
X56998362Y72167951D01*
X56992773Y72161291D01*
X56838709Y72007227D01*
X56832049Y72001638D01*
X56653576Y71876671D01*
X56646045Y71872323D01*
X56448581Y71780244D01*
X56440412Y71777271D01*
X56229962Y71720880D01*
X56221387Y71719369D01*
X56004355Y71700381D01*
X55995645Y71700381D01*
X55995645Y40663525D01*
X56012397Y40648545D01*
X56074568Y40642651D01*
X56128112Y40674791D01*
X56147820Y40710104D01*
X56162363Y40756229D01*
X57471832Y42316793D01*
X57504434Y42333765D01*
X58537657Y42424159D01*
X58572713Y42413106D01*
X58846428Y42183432D01*
X58904410Y42160234D01*
X58964848Y42175960D01*
X59004171Y42224475D01*
X59009188Y42277401D01*
X58982022Y42431467D01*
X58981410Y42436319D01*
X58967990Y42611742D01*
X58968204Y42621511D01*
X58988967Y42793728D01*
X58991086Y42803283D01*
X59045050Y42968142D01*
X59048985Y42977084D01*
X59134076Y43128251D01*
X59139685Y43136263D01*
X59252633Y43267924D01*
X59259686Y43274677D01*
X59396154Y43381778D01*
X59404400Y43387031D01*
X59559135Y43465447D01*
X59568246Y43468989D01*
X59735298Y43515710D01*
X59744929Y43517409D01*
X59917896Y43530642D01*
X59927665Y43530428D01*
X60099882Y43509665D01*
X60109437Y43507546D01*
X60274296Y43453582D01*
X60283238Y43449647D01*
X60434405Y43364556D01*
X60442417Y43358947D01*
X60574078Y43245999D01*
X60580831Y43238946D01*
X60687932Y43102478D01*
X60693185Y43094232D01*
X60771601Y42939497D01*
X60775143Y42930386D01*
X60822527Y42760964D01*
X60823613Y42756190D01*
X61043296Y41510305D01*
X61043908Y41505453D01*
X61057329Y41330031D01*
X61057115Y41320262D01*
X61036352Y41148045D01*
X61034233Y41138490D01*
X60980269Y40973631D01*
X60976334Y40964689D01*
X60891243Y40813522D01*
X60885634Y40805510D01*
X60772686Y40673849D01*
X60765633Y40667096D01*
X60629165Y40559995D01*
X60620919Y40554742D01*
X60466184Y40476326D01*
X60457073Y40472784D01*
X60290021Y40426063D01*
X60280390Y40424364D01*
X60107423Y40411131D01*
X60097654Y40411345D01*
X59925437Y40432108D01*
X59915882Y40434227D01*
X59751023Y40488191D01*
X59742081Y40492126D01*
X59590912Y40577218D01*
X59582900Y40582827D01*
X59559634Y40602787D01*
X59501909Y40626616D01*
X59417919Y40591168D01*
X58154077Y39084979D01*
X58121477Y39068008D01*
X57117390Y38980163D01*
X57059988Y38955567D01*
X57028372Y38901712D01*
X57039504Y38830544D01*
X57199978Y38552596D01*
X57201004Y38547685D01*
X57187349Y38526813D01*
X55602382Y37611733D01*
X55597474Y37610707D01*
X55597474Y6878135D01*
X58830276Y7260510D01*
X58830276Y21892914D01*
X58581240Y21910725D01*
X58574185Y21911739D01*
X58330205Y21964814D01*
X58323379Y21966819D01*
X58089443Y22054072D01*
X58082959Y22057033D01*
X57863824Y22176691D01*
X57857827Y22180545D01*
X57657951Y22330169D01*
X57652568Y22334834D01*
X57476016Y22511386D01*
X57471351Y22516769D01*
X57321727Y22716645D01*
X57317873Y22722642D01*
X57198215Y22941777D01*
X57195254Y22948261D01*
X57108001Y23182197D01*
X57105996Y23189023D01*
X57052921Y23433003D01*
X57051907Y23440058D01*
X57034096Y23689094D01*
X57034096Y23696224D01*
X57051907Y23945260D01*
X57052921Y23952315D01*
X57105996Y24196295D01*
X57108001Y24203121D01*
X57195254Y24437057D01*
X57198215Y24443541D01*
X57317873Y24662676D01*
X57321727Y24668673D01*
X57471351Y24868549D01*
X57476016Y24873932D01*
X57652568Y25050484D01*
X57657951Y25055149D01*
X57857827Y25204773D01*
X57863824Y25208627D01*
X58082959Y25328285D01*
X58089443Y25331246D01*
X58323379Y25418499D01*
X58330205Y25420504D01*
X58574185Y25473579D01*
X58581240Y25474593D01*
X58830276Y25492404D01*
X58837406Y25492404D01*
X59086442Y25474593D01*
X59093497Y25473579D01*
X59337477Y25420504D01*
X59344303Y25418499D01*
X59578239Y25331246D01*
X59584723Y25328285D01*
X59803858Y25208627D01*
X59809855Y25204773D01*
X60009731Y25055149D01*
X60015114Y25050484D01*
X60191666Y24873932D01*
X60196331Y24868549D01*
X60345955Y24668673D01*
X60349809Y24662676D01*
X60469467Y24443541D01*
X60472428Y24437057D01*
X60559681Y24203121D01*
X60561686Y24196295D01*
X60614761Y23952315D01*
X60615775Y23945260D01*
X60633586Y23696224D01*
X60633586Y23689094D01*
X60615775Y23440058D01*
X60614761Y23433003D01*
X60561686Y23189023D01*
X60559681Y23182197D01*
X60472428Y22948261D01*
X60469467Y22941777D01*
X60349809Y22722642D01*
X60345955Y22716645D01*
X60196331Y22516769D01*
X60191666Y22511386D01*
X60015114Y22334834D01*
X60009731Y22330169D01*
X59809855Y22180545D01*
X59803858Y22176691D01*
X59584723Y22057033D01*
X59578239Y22054072D01*
X59344303Y21966819D01*
X59337477Y21964814D01*
X59093497Y21911739D01*
X59086442Y21910725D01*
X58837406Y21892914D01*
X58830276Y21892914D01*
X58830276Y7260510D01*
X65011655Y7991640D01*
X65011655Y31837730D01*
X64975770Y31845686D01*
X64465472Y32203000D01*
X64445725Y32233997D01*
X64163902Y33832300D01*
X64171858Y33868185D01*
X64529171Y34378483D01*
X64560168Y34398230D01*
X65173665Y34506406D01*
X65209547Y34498451D01*
X65719846Y34141137D01*
X65739594Y34110140D01*
X66021417Y32511836D01*
X66013461Y32475951D01*
X65656148Y31965653D01*
X65625151Y31945906D01*
X65011655Y31837730D01*
X65011655Y7991640D01*
X75066730Y9180950D01*
X75066730Y54730550D01*
X74817694Y54748361D01*
X74810639Y54749375D01*
X74566659Y54802450D01*
X74559833Y54804455D01*
X74325897Y54891708D01*
X74319413Y54894669D01*
X74100278Y55014327D01*
X74094281Y55018181D01*
X73894405Y55167805D01*
X73889022Y55172470D01*
X73712470Y55349022D01*
X73707805Y55354405D01*
X73558181Y55554281D01*
X73554327Y55560278D01*
X73434669Y55779413D01*
X73431708Y55785897D01*
X73344455Y56019833D01*
X73342450Y56026659D01*
X73289375Y56270639D01*
X73288361Y56277694D01*
X73270550Y56526730D01*
X73270550Y56533860D01*
X73288361Y56782896D01*
X73289375Y56789951D01*
X73342450Y57033931D01*
X73344455Y57040757D01*
X73431708Y57274693D01*
X73434669Y57281177D01*
X73554327Y57500312D01*
X73558181Y57506309D01*
X73707805Y57706185D01*
X73712470Y57711568D01*
X73889022Y57888120D01*
X73894405Y57892785D01*
X74094281Y58042409D01*
X74100278Y58046263D01*
X74319413Y58165921D01*
X74325897Y58168882D01*
X74559833Y58256135D01*
X74566659Y58258140D01*
X74810639Y58311215D01*
X74817694Y58312229D01*
X75066730Y58330040D01*
X75073860Y58330040D01*
X75322896Y58312229D01*
X75329951Y58311215D01*
X75573931Y58258140D01*
X75580757Y58256135D01*
X75814693Y58168882D01*
X75821177Y58165921D01*
X76040312Y58046263D01*
X76046309Y58042409D01*
X76246185Y57892785D01*
X76251568Y57888120D01*
X76428120Y57711568D01*
X76432785Y57706185D01*
X76582409Y57506309D01*
X76586263Y57500312D01*
X76705921Y57281177D01*
X76708882Y57274693D01*
X76796135Y57040757D01*
X76798140Y57033931D01*
X76851215Y56789951D01*
X76852229Y56782896D01*
X76870040Y56533860D01*
X76870040Y56526730D01*
X76852229Y56277694D01*
X76851215Y56270639D01*
X76798140Y56026659D01*
X76796135Y56019833D01*
X76708882Y55785897D01*
X76705921Y55779413D01*
X76586263Y55560278D01*
X76582409Y55554281D01*
X76432785Y55354405D01*
X76428120Y55349022D01*
X76251568Y55172470D01*
X76246185Y55167805D01*
X76046309Y55018181D01*
X76040312Y55014327D01*
X75821177Y54894669D01*
X75814693Y54891708D01*
X75580757Y54804455D01*
X75573931Y54802450D01*
X75329951Y54749375D01*
X75322896Y54748361D01*
X75073860Y54730550D01*
X75066730Y54730550D01*
X75066730Y9180950D01*
X92598478Y11254599D01*
X92655104Y11280933D01*
X92686665Y11357577D01*
X92557394Y14877443D01*
X92557383Y14877765D01*
X92557382Y14877765D01*
X92557289Y14880726D01*
X92454403Y18770645D01*
X92454337Y18773724D01*
X92454332Y18774010D01*
X92391396Y22664239D01*
X92391389Y22664753D01*
X92391358Y22667575D01*
X92391357Y22667764D01*
X92368361Y26558793D01*
X92368359Y26561608D01*
X92368360Y26562097D01*
X92385311Y30452959D01*
X92385312Y30453116D01*
X92385340Y30456088D01*
X92385341Y30456196D01*
X92442238Y34346787D01*
X92442247Y34347306D01*
X92442299Y34349954D01*
X92442300Y34349954D01*
X92442311Y34350442D01*
X92539139Y38239898D01*
X92539153Y38240396D01*
X92539152Y38240396D01*
X92539232Y38243061D01*
X92539246Y38243507D01*
X92541000Y38293364D01*
X92534596Y38332254D01*
X73606156Y88380333D01*
X73559077Y88433513D01*
X35296001Y108505947D01*
X35234405Y108516239D01*
X35178714Y108487981D01*
X35153394Y108444864D01*
X25289715Y73921987D01*
X25286420Y73913485D01*
X25243997Y73828100D01*
X25233173Y73813683D01*
X25166401Y73752220D01*
X25151136Y73742625D01*
X25066006Y73708785D01*
X25049985Y73705326D01*
X24973254Y73701724D01*
X24965850Y73701927D01*
X-23965244Y78694895D01*
X-23997527Y78692932D01*
X-25179929Y78424591D01*
X-25182940Y78423859D01*
X-26413996Y78104060D01*
X-26416983Y78103234D01*
X-27637483Y77745459D01*
X-27640443Y77744541D01*
X-28849284Y77349112D01*
X-28852214Y77348103D01*
X-30048166Y76915428D01*
X-30051064Y76914329D01*
X-31233089Y76444779D01*
X-31235951Y76443590D01*
X-32402838Y75937649D01*
X-32405662Y75936373D01*
X-33556350Y75394498D01*
X-33559133Y75393134D01*
X-34692448Y74815877D01*
X-34695187Y74814428D01*
X-35810066Y74202334D01*
X-35812759Y74200800D01*
X-36908114Y73554466D01*
X-36910759Y73552850D01*
X-37985603Y72872857D01*
X-37988196Y72871160D01*
X-39041444Y72158194D01*
X-39043983Y72156417D01*
X-40074601Y71411180D01*
X-40077084Y71409326D01*
X-41084177Y70632463D01*
X-41086601Y70630532D01*
X-42069088Y69822874D01*
X-42071451Y69820869D01*
X-43028431Y68983165D01*
X-43030731Y68981088D01*
X-43961331Y68114097D01*
X-43963565Y68111950D01*
X-44866831Y67216559D01*
X-44868998Y67214343D01*
X-45744103Y66291374D01*
X-45746200Y66289092D01*
X-46592235Y65339508D01*
X-46594261Y65337163D01*
X-47410514Y64361756D01*
X-47412466Y64359349D01*
X-48198108Y63359113D01*
X-48199984Y63356646D01*
X-48954211Y62332604D01*
X-48956010Y62330081D01*
X-49678187Y61283094D01*
X-49679907Y61280516D01*
X-50369272Y60211693D01*
X-50370911Y60209063D01*
X-51026817Y59119404D01*
X-51028374Y59116724D01*
X-51650231Y58007206D01*
X-51651704Y58004479D01*
X-52238850Y56876288D01*
X-52240238Y56873517D01*
X-52792156Y55727645D01*
X-52793457Y55724833D01*
X-53309600Y54562418D01*
X-53310814Y54559566D01*
X-53790686Y53381724D01*
X-53791811Y53378837D01*
X-54234979Y52186630D01*
X-54236013Y52183708D01*
X-54641991Y50978434D01*
X-54642935Y50975482D01*
X-55011391Y49758145D01*
X-55012243Y49755166D01*
X-55342797Y48527010D01*
X-55343556Y48524005D01*
X-55635901Y47286164D01*
X-55636566Y47283137D01*
X-55890404Y46036878D01*
X-55890975Y46033832D01*
X-56106067Y44780350D01*
X-56106544Y44777288D01*
X-56282706Y43517632D01*
X-56283088Y43514557D01*
X-56420126Y42250132D01*
X-56420412Y42247046D01*
X-56518206Y40978919D01*
X-56518396Y40975826D01*
X-56576845Y39705334D01*
X-56576940Y39702236D01*
X-56595993Y38430523D01*
X-56595991Y38427424D01*
X-56575628Y37155731D01*
X-56575531Y37152634D01*
X-56515771Y35882139D01*
X-56515577Y35879046D01*
X-56416483Y34611084D01*
X-56416194Y34607998D01*
X-56277853Y33343678D01*
X-56277468Y33340603D01*
X-56100015Y32081173D01*
X-56099535Y32078111D01*
X-55883143Y30824797D01*
X-55882568Y30821752D01*
X-55627447Y29575759D01*
X-55626779Y29572733D01*
X-55333160Y28335195D01*
X-55332398Y28332191D01*
X-55000589Y27104406D01*
X-54999734Y27101427D01*
X-54630025Y25884471D01*
X-54629078Y25881520D01*
X-54221848Y24676636D01*
X-54220811Y24673716D01*
X-53776429Y23481994D01*
X-53775301Y23479107D01*
X-53294227Y22301783D01*
X-53293011Y22298933D01*
X-52775646Y21136992D01*
X-52774341Y21134181D01*
X-52221245Y19988881D01*
X-52219854Y19986111D01*
X-51631566Y18858562D01*
X-51630090Y18855837D01*
X-51007082Y17746947D01*
X-51005523Y17744269D01*
X-50348480Y16655257D01*
X-50346838Y16652629D01*
X-49656369Y15584509D01*
X-49654646Y15581933D01*
X-48931447Y14535770D01*
X-48929646Y14533248D01*
X-48174312Y13509912D01*
X-48172433Y13507448D01*
X-47385778Y12508040D01*
X-47383824Y12505634D01*
X-46566597Y11531107D01*
X-46564569Y11528764D01*
X-45717497Y10579982D01*
X-45715397Y10577702D01*
X-44839374Y9655667D01*
X-44837205Y9653454D01*
X-43933016Y8758994D01*
X-43930780Y8756849D01*
X-42999292Y7890819D01*
X-42996989Y7888744D01*
X-42039141Y7052018D01*
X-42036776Y7050016D01*
X-41053424Y6243344D01*
X-41050998Y6241416D01*
X-40043179Y5465646D01*
X-40040694Y5463794D01*
X-39009273Y4719590D01*
X-39006732Y4717815D01*
X-37952758Y4005940D01*
X-37950164Y4004246D01*
X-36874644Y3325375D01*
X-36871998Y3323761D01*
X-35775929Y2678524D01*
X-35773234Y2676994D01*
X-34657738Y2066056D01*
X-34654997Y2064609D01*
X-33521064Y1488506D01*
X-33518280Y1487146D01*
X-32367062Y946469D01*
X-32364236Y945195D01*
X-31196865Y440471D01*
X-31194002Y439285D01*
X-30011475Y-29055D01*
X-30008577Y-30151D01*
X-28812130Y-461613D01*
X-28809198Y-462619D01*
X-27600011Y-856784D01*
X-27597050Y-857699D01*
X-26376112Y-1214238D01*
X-26373124Y-1215060D01*
X-25141854Y-1533562D01*
X-25138842Y-1534292D01*
X-23898198Y-1814509D01*
X-23895165Y-1815145D01*
X-22646473Y-2056778D01*
X-22643422Y-2057319D01*
X-21387842Y-2260141D01*
X-21384775Y-2260588D01*
X-20123541Y-2424402D01*
X-20120462Y-2424754D01*
X-19004355Y-2534675D01*
X-19004355Y43700381D01*
X-19221387Y43719369D01*
X-19229962Y43720880D01*
X-19440412Y43777271D01*
X-19448581Y43780244D01*
X-19646045Y43872323D01*
X-19653576Y43876671D01*
X-19832049Y44001638D01*
X-19838709Y44007227D01*
X-19992773Y44161291D01*
X-19998362Y44167951D01*
X-20123329Y44346424D01*
X-20127677Y44353955D01*
X-20219756Y44551419D01*
X-20222729Y44559588D01*
X-20279120Y44770038D01*
X-20280631Y44778613D01*
X-20299619Y44995645D01*
X-20299619Y45004355D01*
X-20280631Y45221387D01*
X-20279120Y45229962D01*
X-20222729Y45440412D01*
X-20219756Y45448581D01*
X-20127677Y45646045D01*
X-20123329Y45653576D01*
X-19998362Y45832049D01*
X-19992773Y45838709D01*
X-19838709Y45992773D01*
X-19832049Y45998362D01*
X-19653576Y46123329D01*
X-19646045Y46127677D01*
X-19448581Y46219756D01*
X-19440412Y46222729D01*
X-19229962Y46279120D01*
X-19221387Y46280631D01*
X-19004355Y46299619D01*
X-18995645Y46299619D01*
X-18778613Y46280631D01*
X-18770038Y46279120D01*
X-18559588Y46222729D01*
X-18551419Y46219756D01*
X-18353955Y46127677D01*
X-18346424Y46123329D01*
X-18167951Y45998362D01*
X-18161291Y45992773D01*
X-18007227Y45838709D01*
X-18001638Y45832049D01*
X-17876671Y45653576D01*
X-17872323Y45646045D01*
X-17780244Y45448581D01*
X-17777271Y45440412D01*
X-17720880Y45229962D01*
X-17719369Y45221387D01*
X-17700381Y45004355D01*
X-17700381Y44995645D01*
X-17719369Y44778613D01*
X-17720880Y44770038D01*
X-17777271Y44559588D01*
X-17780244Y44551419D01*
X-17872323Y44353955D01*
X-17876671Y44346424D01*
X-18001638Y44167951D01*
X-18007227Y44161291D01*
X-18161291Y44007227D01*
X-18167951Y44001638D01*
X-18346424Y43876671D01*
X-18353955Y43872323D01*
X-18551419Y43780244D01*
X-18559588Y43777271D01*
X-18770038Y43720880D01*
X-18778613Y43719369D01*
X-18995645Y43700381D01*
X-19004355Y43700381D01*
X-19004355Y-2534675D01*
X-18854639Y-2549421D01*
X-18851551Y-2549676D01*
X-17582665Y-2635045D01*
X-17579570Y-2635206D01*
X-16308477Y-2681222D01*
X-16305378Y-2681286D01*
X-15863565Y-2683581D01*
X-15863565Y27180255D01*
X-16112601Y27198066D01*
X-16119656Y27199080D01*
X-16363636Y27252155D01*
X-16370462Y27254160D01*
X-16604398Y27341413D01*
X-16610882Y27344374D01*
X-16830017Y27464032D01*
X-16836014Y27467886D01*
X-17035890Y27617510D01*
X-17041273Y27622175D01*
X-17217825Y27798727D01*
X-17222490Y27804110D01*
X-17372114Y28003986D01*
X-17375968Y28009983D01*
X-17495626Y28229118D01*
X-17498587Y28235602D01*
X-17585840Y28469538D01*
X-17587845Y28476364D01*
X-17640920Y28720344D01*
X-17641934Y28727399D01*
X-17659745Y28976435D01*
X-17659745Y28983565D01*
X-17641934Y29232601D01*
X-17640920Y29239656D01*
X-17587845Y29483636D01*
X-17585840Y29490462D01*
X-17498587Y29724398D01*
X-17495626Y29730882D01*
X-17375968Y29950017D01*
X-17372114Y29956014D01*
X-17222490Y30155890D01*
X-17217825Y30161273D01*
X-17041273Y30337825D01*
X-17035890Y30342490D01*
X-16836014Y30492114D01*
X-16830017Y30495968D01*
X-16610882Y30615626D01*
X-16604398Y30618587D01*
X-16370462Y30705840D01*
X-16363636Y30707845D01*
X-16119656Y30760920D01*
X-16112601Y30761934D01*
X-15863565Y30779745D01*
X-15856435Y30779745D01*
X-15607399Y30761934D01*
X-15600344Y30760920D01*
X-15356364Y30707845D01*
X-15349538Y30705840D01*
X-15115602Y30618587D01*
X-15109118Y30615626D01*
X-14889983Y30495968D01*
X-14883986Y30492114D01*
X-14684110Y30342490D01*
X-14678727Y30337825D01*
X-14502175Y30161273D01*
X-14497510Y30155890D01*
X-14347886Y29956014D01*
X-14344032Y29950017D01*
X-14224374Y29730882D01*
X-14221413Y29724398D01*
X-14134160Y29490462D01*
X-14132155Y29483636D01*
X-14079080Y29239656D01*
X-14078066Y29232601D01*
X-14060255Y28983565D01*
X-14060255Y28976435D01*
X-14078066Y28727399D01*
X-14079080Y28720344D01*
X-14132155Y28476364D01*
X-14134160Y28469538D01*
X-14221413Y28235602D01*
X-14224374Y28229118D01*
X-14344032Y28009983D01*
X-14347886Y28003986D01*
X-14497510Y27804110D01*
X-14502175Y27798727D01*
X-14678727Y27622175D01*
X-14684110Y27617510D01*
X-14883986Y27467886D01*
X-14889983Y27464032D01*
X-15109118Y27344374D01*
X-15115602Y27341413D01*
X-15349538Y27254160D01*
X-15356364Y27252155D01*
X-15600344Y27199080D01*
X-15607399Y27198066D01*
X-15856435Y27180255D01*
X-15863565Y27180255D01*
X-15863565Y-2683581D01*
X-15033539Y-2687893D01*
X-15030441Y-2687861D01*
G37*
G04 #@! TO.N,N3*
G36*
X37959327Y31019500D02*
X38000000Y31100000D01*
X38000000Y47997536D01*
X37999880Y48002443D01*
X37980980Y48387164D01*
X37980018Y48396930D01*
X37923861Y48775506D01*
X37921946Y48785131D01*
X37828954Y49156376D01*
X37826105Y49165767D01*
X37697175Y49526102D01*
X37693420Y49535168D01*
X37529784Y49881148D01*
X37525158Y49889803D01*
X37328405Y50218065D01*
X37322953Y50226225D01*
X37094967Y50533629D01*
X37088741Y50541215D01*
X36831726Y50824787D01*
X36824787Y50831726D01*
X36541215Y51088741D01*
X36533629Y51094967D01*
X36226225Y51322953D01*
X36218065Y51328405D01*
X35889803Y51525158D01*
X35881148Y51529784D01*
X35535168Y51693420D01*
X35526102Y51697175D01*
X35165767Y51826105D01*
X35156376Y51828954D01*
X34785131Y51921946D01*
X34775506Y51923861D01*
X34396930Y51980018D01*
X34387164Y51980980D01*
X34004907Y51999759D01*
X33995093Y51999759D01*
X33612836Y51980980D01*
X33603070Y51980018D01*
X33224494Y51923861D01*
X33214869Y51921946D01*
X32843624Y51828954D01*
X32834233Y51826105D01*
X32473898Y51697175D01*
X32464832Y51693420D01*
X32118852Y51529784D01*
X32110197Y51525158D01*
X31781935Y51328405D01*
X31773775Y51322953D01*
X31466371Y51094967D01*
X31458785Y51088741D01*
X31175213Y50831726D01*
X31168274Y50824787D01*
X30911259Y50541215D01*
X30905033Y50533629D01*
X30677047Y50226225D01*
X30671595Y50218065D01*
X30474842Y49889803D01*
X30470216Y49881148D01*
X30306580Y49535168D01*
X30302825Y49526102D01*
X30173895Y49165767D01*
X30171046Y49156376D01*
X30078054Y48785131D01*
X30076139Y48775506D01*
X30019982Y48396930D01*
X30019020Y48387164D01*
X30002048Y48041691D01*
X30028200Y47969225D01*
X30290259Y47683238D01*
X30293054Y47679907D01*
X30553270Y47340787D01*
X30555765Y47337224D01*
X30785433Y46976716D01*
X30787615Y46972937D01*
X30984989Y46593787D01*
X30986829Y46589840D01*
X31150410Y46194919D01*
X31151892Y46190848D01*
X31280433Y45783171D01*
X31281561Y45778958D01*
X31374078Y45361642D01*
X31374834Y45357355D01*
X31430628Y44933558D01*
X31431007Y44929220D01*
X31449652Y44502176D01*
X31449652Y44497824D01*
X31431007Y44070780D01*
X31430628Y44066442D01*
X31374834Y43642645D01*
X31374078Y43638358D01*
X31281561Y43221042D01*
X31280433Y43216829D01*
X31151892Y42809152D01*
X31150410Y42805081D01*
X30986829Y42410160D01*
X30984989Y42406213D01*
X30787615Y42027063D01*
X30785433Y42023284D01*
X30555765Y41662776D01*
X30553270Y41659213D01*
X30293054Y41320093D01*
X30290259Y41316762D01*
X30038378Y41041883D01*
X30012674Y40984968D01*
X30016323Y40945589D01*
X31793014Y35023287D01*
X31828740Y34972065D01*
X31888797Y34952022D01*
X32232734Y34952022D01*
X32234791Y34951980D01*
X32257541Y34951038D01*
X32259565Y34950912D01*
X32723421Y34912476D01*
X32725533Y34912257D01*
X32748083Y34909446D01*
X32750095Y34909153D01*
X33209221Y34832539D01*
X33211269Y34832154D01*
X33233523Y34827488D01*
X33235504Y34827030D01*
X33686737Y34712762D01*
X33688748Y34712208D01*
X33710541Y34705720D01*
X33712477Y34705100D01*
X34152744Y34553956D01*
X34154701Y34553238D01*
X34175868Y34544979D01*
X34177753Y34544198D01*
X34604031Y34357215D01*
X34605917Y34356341D01*
X34626302Y34346375D01*
X34628184Y34345406D01*
X35037519Y34123885D01*
X35039354Y34122842D01*
X35058848Y34111226D01*
X35060595Y34110137D01*
X35450296Y33855533D01*
X35451996Y33854371D01*
X35470487Y33841168D01*
X35472147Y33839931D01*
X35839448Y33554049D01*
X35841098Y33552709D01*
X35858394Y33538059D01*
X35859987Y33536652D01*
X36199812Y33223821D01*
X36205935Y33217052D01*
X36262818Y33141273D01*
X36271132Y33124039D01*
X36298339Y33019705D01*
X36299892Y33009577D01*
X36317936Y32642273D01*
X36318898Y32632507D01*
X36370730Y32283088D01*
X36372645Y32273463D01*
X36458474Y31930816D01*
X36461322Y31921425D01*
X36580321Y31588842D01*
X36584077Y31579776D01*
X36735110Y31260443D01*
X36739736Y31251787D01*
X36861530Y31048589D01*
X36908757Y31007728D01*
X36947303Y31000000D01*
X37900000Y31000000D01*
X37959327Y31019500D01*
G37*
G04 --- BOARD END --- *

M02*
