G04 --- HEADER BEGIN --- *
%TF.GenerationSoftware,LibrePCB,LibrePCB,0.1.2*%
%TF.CreationDate,2019-01-02T03:04:05*%
%TF.ProjectId,test_project - default,7c04f9d5-7366-4c4b-9e17-852ed57b3966,v1*%
%TF.Part,Single*%
%FSLAX66Y66*%
%MOMM*%
G01*
G74*
G04 --- HEADER END --- *
G04 --- APERTURE LIST BEGIN --- *
%AMROTATEDOBROUND*1,1,$5,$1,$2,0*1,1,$5,$3,$4,0*20,1,$5,$1,$2,$3,$4,0*%
%AMROTATEDRECT*21,1,$1,$2,0,0,$3*%
%AMROTATEDOCTAGON*4,1,8,-($1/2),($2/2)-$3,-($1/2)+$3,($2/2),($1/2)-$3,($2/2),($1/2),($2/2)-$3,($1/2),-($2/2)+$3,($1/2)-$3,-($2/2),-($1/2)+$3,-($2/2),-($1/2),-($2/2)+$3,-($1/2),($2/2)-$3,$4*%
%ADD10C,0.2*%
%ADD11C,0.0*%
%ADD12C,3.0X3.0*%
%ADD13C,3.0*%
%ADD14C,5.254X4.746*%
%ADD15ROTATEDOBROUND,0.110266X-0.625352X-0.110266X0.625352X1.47*%
%ADD16ROTATEDRECT,2.74X1.47X120.0*%
%ADD17ROTATEDOCTAGON,2.2X1.2X0.351472X100.0*%
%ADD18ROTATEDRECT,2.2X1.2X120.0*%
%ADD19ROTATEDOBROUND,0.317499X-0.549926X-0.317499X0.549926X1.47*%
%ADD20ROTATEDOCTAGON,2.2X3.2X0.644365X140.0*%
%ADD21ROTATEDOBROUND,-0.433012X-0.249999X0.433012X0.249999X1.2*%
%ADD22ROTATEDOBROUND,0.596704X0.217182X-0.596704X-0.217182X1.47*%
%ADD23R,2.74X1.47*%
%ADD24ROTATEDOCTAGON,2.2X1.2X0.351472X200.0*%
%ADD25O,2.74X1.47*%
%ADD26ROTATEDOCTAGON,2.2X3.2X0.644365X160.0*%
%ADD27R,2.2X2.2*%
%ADD28P,2.2X8X22.5*%
%ADD29C,2.2*%
G04 --- APERTURE LIST END --- *
G04 --- BOARD BEGIN --- *
D10*
X47744137Y37820591D02*
G75*
G02*
X55364137Y24622364I-2789114J-10409113D01*
G01*
X72961773Y34782364D01*
G03*
X65341773Y47980591I810749J9266904D01*
G01*
X47744137Y37820591D01*
D11*
X66611773Y45780887D02*
G02*
X71691773Y36982069I2540000J-4399409D01*
G01*
X80490590Y42062069D01*
X75410591Y50860887D01*
X66611773Y45780887D01*
G36*
X66611773Y45780887D02*
G02*
X71691773Y36982069I2540000J-4399409D01*
G01*
X80490590Y42062069D01*
X75410591Y50860887D01*
X66611773Y45780887D01*
G37*
D12*
X69151773Y41381478D03*
D13*
X69151773Y41381478D03*
D14*
X69151773Y41381478D03*
D10*
X59672363Y47640294D02*
X59172364Y48506319D01*
X58966442Y48387430D01*
X58866201Y48274386D01*
X58831224Y48143855D01*
X58838033Y48038731D01*
X58892211Y47849335D01*
X58963322Y47726167D01*
X59100255Y47584550D01*
X59187891Y47526091D01*
X59318423Y47491116D01*
X59466442Y47521406D01*
X59672363Y47640294D01*
X58337758Y47914120D02*
X58272492Y47931608D01*
X58166812Y47925763D01*
X57959928Y47806319D01*
X57902026Y47717720D01*
X57884538Y47652454D01*
X57890383Y47546775D01*
X57938161Y47464021D01*
X58051205Y47363780D01*
X58831357Y47154739D01*
X58295383Y46845295D01*
%LPC*%
D15*
X60012660Y41970886D03*
D16*
X55613251Y39430886D03*
D17*
X62892955Y31902068D03*
D18*
X58493546Y29362068D03*
D19*
X53413546Y38160886D03*
D20*
X57812955Y40700886D03*
D21*
X60693251Y30632068D03*
D22*
X-620000Y39140000D03*
D23*
X-620000Y34060000D03*
D24*
X-10780000Y39140000D03*
D25*
X-620000Y31520000D03*
D26*
X-620000Y36600000D03*
D27*
X16000000Y46000000D03*
D28*
X20000000Y46000000D03*
D29*
X12000000Y46000000D03*
G04 --- BOARD END --- *

M02*
