G04 --- HEADER BEGIN --- *
G04 #@! TF.GenerationSoftware,LibrePCB,LibrePCB,0.1.2*
G04 #@! TF.CreationDate,2019-01-02T03:04:05*
G04 #@! TF.ProjectId,test_project,7c04f9d5-7366-4c4b-9e17-852ed57b3966,v1*
G04 #@! TF.Part,Single*
G04 #@! TF.SameCoordinates*
G04 #@! TF.FileFunction,Legend,Bot*
G04 #@! TF.FilePolarity,Positive*
%FSLAX66Y66*%
%MOMM*%
G01*
G75*
G04 --- HEADER END --- *
G04 --- APERTURE LIST BEGIN --- *
%ADD10C,0.2*%
%ADD11C,0.0*%
%ADD12C,0.01*%
%ADD13C,0.254*%
%AMROTATEDOBROUND14*1,1,1.47,0.110266,-0.625352*1,1,1.47,-0.110266,0.625352*20,1,1.47,0.110266,-0.625352,-0.110266,0.625352,0*%
%ADD14ROTATEDOBROUND14*%
%AMROTATEDRECT15*20,1,1.47,-1.37,0.0,1.37,0.0,120.0*%
%ADD15ROTATEDRECT15*%
%AMROTATEDOCTAGON16*4,1,8,1.1,0.248528,0.748528,0.6,-0.748528,0.6,-1.1,0.248528,-1.1,-0.248528,-0.748528,-0.6,0.748528,-0.6,1.1,-0.248528,1.1,0.248528,100.0*%
%ADD16ROTATEDOCTAGON16*%
%AMROTATEDRECT17*20,1,1.2,-1.1,0.0,1.1,0.0,120.0*%
%ADD17ROTATEDRECT17*%
%AMROTATEDOBROUND18*1,1,1.47,0.317499,-0.549926*1,1,1.47,-0.317499,0.549926*20,1,1.47,0.317499,-0.549926,-0.317499,0.549926,0*%
%ADD18ROTATEDOBROUND18*%
%AMROTATEDOCTAGON19*4,1,8,1.6,0.455635,0.955635,1.1,-0.955635,1.1,-1.6,0.455635,-1.6,-0.455635,-0.955635,-1.1,0.955635,-1.1,1.6,-0.455635,1.6,0.455635,50.0*%
%ADD19ROTATEDOCTAGON19*%
%AMROTATEDOBROUND20*1,1,1.2,-0.433012,-0.249999*1,1,1.2,0.433012,0.249999*20,1,1.2,-0.433012,-0.249999,0.433012,0.249999,0*%
%ADD20ROTATEDOBROUND20*%
%AMROTATEDOBROUND21*1,1,1.47,-0.596704,-0.217182*1,1,1.47,0.596704,0.217182*20,1,1.47,-0.596704,-0.217182,0.596704,0.217182,0*%
%ADD21ROTATEDOBROUND21*%
%ADD22R,2.74X1.47*%
%AMROTATEDOCTAGON23*4,1,8,1.1,0.248528,0.748528,0.6,-0.748528,0.6,-1.1,0.248528,-1.1,-0.248528,-0.748528,-0.6,0.748528,-0.6,1.1,-0.248528,1.1,0.248528,20.0*%
%ADD23ROTATEDOCTAGON23*%
%ADD24O,2.74X1.47*%
%AMROTATEDOCTAGON25*4,1,8,1.6,0.455635,0.955635,1.1,-0.955635,1.1,-1.6,0.455635,-1.6,-0.455635,-0.955635,-1.1,0.955635,-1.1,1.6,-0.455635,1.6,0.455635,70.0*%
%ADD25ROTATEDOCTAGON25*%
%ADD26R,2.2X2.2*%
%AMROTATEDOCTAGON27*4,1,8,1.1,0.455635,0.455635,1.1,-0.455635,1.1,-1.1,0.455635,-1.1,-0.455635,-0.455635,-1.1,0.455635,-1.1,1.1,-0.455635,1.1,0.455635,0.0*%
%ADD27ROTATEDOCTAGON27*%
%ADD28C,2.2*%
G04 --- APERTURE LIST END --- *
G04 --- BOARD BEGIN --- *
D10*
G04 #@! TO.C,D2*
X47744137Y37820591D02*
G02*
X55364137Y24622364I-2789114J-10409113D01*
G01*
X72961773Y34782364D01*
G03*
X65341773Y47980591I810749J9266904D01*
G01*
X47744137Y37820591D01*
D11*
X66611773Y45780887D02*
G02*
X71691773Y36982069I2540000J-4399409D01*
G01*
X80490590Y42062069D01*
X75410591Y50860887D01*
X66611773Y45780887D01*
D12*
G36*
X66611773Y45780887D02*
G02*
X71691773Y36982069I2540000J-4399409D01*
G01*
X80490590Y42062069D01*
X75410591Y50860887D01*
X66611773Y45780887D01*
G37*
G36*
X70651773Y41381478D02*
G02*
X67651773Y41381478I-1500000J0D01*
G01*
G02*
X70651773Y41381478I1500000J0D01*
G01*
G37*
D13*
X71651773Y41381478D02*
G02*
X66651773Y41381478I-2500000J0D01*
G01*
G02*
X71651773Y41381478I2500000J0D01*
G01*
D10*
X59672363Y47640294D02*
X59172364Y48506319D01*
X58966442Y48387430D01*
X58866201Y48274386D01*
X58831224Y48143855D01*
X58838033Y48038731D01*
X58892211Y47849335D01*
X58963322Y47726167D01*
X59100255Y47584550D01*
X59187891Y47526091D01*
X59318423Y47491116D01*
X59466442Y47521406D01*
X59672363Y47640294D01*
X58337758Y47914120D02*
X58272492Y47931608D01*
X58166812Y47925763D01*
X57959928Y47806319D01*
X57902026Y47717720D01*
X57884538Y47652454D01*
X57890383Y47546775D01*
X57938161Y47464021D01*
X58051205Y47363780D01*
X58831357Y47154739D01*
X58295383Y46845295D01*
%LPC*%
D14*
X60012660Y41970886D03*
D15*
X55613251Y39430886D03*
D16*
X62892955Y31902068D03*
D17*
X58493546Y29362068D03*
D18*
X53413546Y38160886D03*
D19*
X57812955Y40700886D03*
D20*
X60693251Y30632068D03*
D21*
G04 #@! TO.C,D1*
X-620000Y39140000D03*
D22*
X-620000Y34060000D03*
D23*
X-10780000Y39140000D03*
D24*
X-620000Y31520000D03*
D25*
X-620000Y36600000D03*
D26*
G04 #@! TD*
X16000000Y46000000D03*
D27*
X20000000Y46000000D03*
D28*
X12000000Y46000000D03*
G04 --- BOARD END --- *

M02*
